G04*
G04 #@! TF.GenerationSoftware,Altium Limited,Altium Designer,24.6.1 (21)*
G04*
G04 Layer_Physical_Order=1*
G04 Layer_Color=255*
%FSLAX44Y44*%
%MOMM*%
G71*
G04*
G04 #@! TF.SameCoordinates,AFD3FCCA-1615-4A8B-9115-EBC1D983F3DF*
G04*
G04*
G04 #@! TF.FilePolarity,Positive*
G04*
G01*
G75*
%ADD20C,1.4500*%
%ADD21R,1.4500X1.4500*%
%ADD22C,0.3810*%
%ADD23C,1.4380*%
%ADD24R,1.6000X1.6000*%
%ADD25C,1.6000*%
%ADD26C,2.0000*%
%ADD27C,1.2000*%
G36*
X8031Y144214D02*
X13903Y143813D01*
X19957Y143120D01*
X25811Y142190D01*
X31592Y141077D01*
X39688Y139108D01*
X46618Y136992D01*
X54222Y134239D01*
X55426Y133728D01*
X60258Y131741D01*
X65091Y129388D01*
X68538Y127619D01*
X72185Y125650D01*
X78567Y121893D01*
X84168Y118128D01*
X89000Y114750D01*
X92250Y112500D01*
X95250Y110000D01*
X97569Y107779D01*
X102821Y102818D01*
X108802Y96728D01*
X111319Y93883D01*
X115148Y89360D01*
X118650Y84801D01*
X123172Y78309D01*
X125616Y74407D01*
X127695Y71052D01*
X130795Y65289D01*
X133348Y60146D01*
X134114Y58615D01*
X136521Y52779D01*
X139366Y45120D01*
X140897Y40160D01*
X141791Y37115D01*
X142721Y33413D01*
X143815Y28489D01*
X144654Y24222D01*
X145493Y18860D01*
X146186Y13937D01*
X146532Y7718D01*
X146824Y-196D01*
X146623Y-7217D01*
X146313Y-13362D01*
X146040Y-16845D01*
X145529Y-20128D01*
X145128Y-23957D01*
X144235Y-29155D01*
X143523Y-32783D01*
X142502Y-37525D01*
X141335Y-42011D01*
X140296Y-45749D01*
X139110Y-49743D01*
X137578Y-54375D01*
X136193Y-58423D01*
X134788Y-61906D01*
X134515Y-62544D01*
X132764Y-66811D01*
X130722Y-71480D01*
X129044Y-74762D01*
X127385Y-78136D01*
X125871Y-80999D01*
X124303Y-83880D01*
X121805Y-88020D01*
X119343Y-91977D01*
X116279Y-96426D01*
X114018Y-99709D01*
X111243Y-103433D01*
X111243Y-103433D01*
X110378Y-104669D01*
X109816Y-105930D01*
X109815Y-105930D01*
X109780Y-106009D01*
X109153Y-107416D01*
X108800Y-110402D01*
X109114Y-112089D01*
X109351Y-113359D01*
X109953Y-114742D01*
X109896Y-114772D01*
X111884Y-117890D01*
X113580Y-120060D01*
X115440Y-121920D01*
X118650Y-124400D01*
X122461Y-126534D01*
X127038Y-128339D01*
X132910Y-129616D01*
X137141Y-130126D01*
X142502Y-130054D01*
X147500Y-129500D01*
X151620Y-128412D01*
X157310Y-126370D01*
X160300Y-124838D01*
X163619Y-122759D01*
X167066Y-120042D01*
X170075Y-117398D01*
X173941Y-114261D01*
X177333Y-111890D01*
X180779Y-110049D01*
X184025Y-108845D01*
X187946Y-108243D01*
X190645Y-108353D01*
X192286Y-108754D01*
X194110Y-109520D01*
X196043Y-110979D01*
X197830Y-113422D01*
X198705Y-115720D01*
X199289Y-119331D01*
X199252Y-121556D01*
X198887Y-125932D01*
X197684Y-131221D01*
X195888Y-137528D01*
X195879Y-137525D01*
X195513Y-138657D01*
X195195Y-141011D01*
X195441Y-143374D01*
X196237Y-145611D01*
X197538Y-147598D01*
X199272Y-149222D01*
X201339Y-150392D01*
X203624Y-151040D01*
X204802Y-151204D01*
X207487Y-151966D01*
X208607Y-152429D01*
X209756Y-153213D01*
X211543Y-155219D01*
X213038Y-158757D01*
X213622Y-162915D01*
X213385Y-166580D01*
X212601Y-171558D01*
X211762Y-175096D01*
X210230Y-179947D01*
X209318Y-182536D01*
X208279Y-185399D01*
X206692Y-189065D01*
X204905Y-193113D01*
X203118Y-196687D01*
X200966Y-200626D01*
X197830Y-205623D01*
X195751Y-208577D01*
X193654Y-211367D01*
X191630Y-213865D01*
X188493Y-217294D01*
X185721Y-220138D01*
X183351Y-222436D01*
X179922Y-225390D01*
X176056Y-228454D01*
X172409Y-230971D01*
X169054Y-233159D01*
X164385Y-235712D01*
X158367Y-238302D01*
X153644Y-239925D01*
X148812Y-241292D01*
X144946Y-242094D01*
X139329Y-243043D01*
X132144Y-243809D01*
X127731Y-244173D01*
X124376Y-244283D01*
X120054Y-244301D01*
X115732Y-244319D01*
X114054Y-244210D01*
X110480Y-243955D01*
X108292Y-244137D01*
X105520Y-244575D01*
X102785Y-245085D01*
X99575Y-245377D01*
X96329Y-245632D01*
X93229Y-245888D01*
X89600Y-245979D01*
X86226Y-245888D01*
X81412Y-245486D01*
X77200Y-245213D01*
X76488Y-245195D01*
X73954Y-245541D01*
X70288Y-245888D01*
X67225Y-245997D01*
X61681Y-245924D01*
X57705Y-245523D01*
X52672Y-245085D01*
X47566Y-244210D01*
X42278Y-242970D01*
X38558Y-241912D01*
X33853Y-240417D01*
X28017Y-238046D01*
X23057Y-235676D01*
X21161Y-234581D01*
X18754Y-233268D01*
X16055Y-231554D01*
X13356Y-229767D01*
X11058Y-228053D01*
X8960Y-226431D01*
X6671Y-224545D01*
X5948Y-223918D01*
X4357Y-222857D01*
X2593Y-222118D01*
X720Y-221729D01*
X-1192Y-221703D01*
X-3074Y-222042D01*
X-4858Y-222733D01*
X-6477Y-223751D01*
X-6960Y-224162D01*
X-7099Y-224256D01*
X-7105Y-224260D01*
X-7105Y-224260D01*
X-9913Y-226558D01*
X-13560Y-229329D01*
X-16515Y-231408D01*
X-19761Y-233378D01*
X-23262Y-235347D01*
X-25997Y-236806D01*
X-30848Y-238922D01*
X-34969Y-240526D01*
X-37522Y-241402D01*
X-41352Y-242532D01*
X-45254Y-243480D01*
X-50068Y-244465D01*
X-53533Y-245085D01*
X-57472Y-245450D01*
X-62870Y-245888D01*
X-67721Y-245961D01*
X-73502Y-245651D01*
X-78954Y-245195D01*
X-82784Y-245486D01*
X-86577Y-245815D01*
X-94527Y-245888D01*
X-100144Y-245450D01*
X-105724Y-244830D01*
X-110320Y-244028D01*
X-111779Y-243955D01*
X-115098Y-244210D01*
X-121790Y-244301D01*
X-126003Y-244319D01*
X-128045Y-244210D01*
X-132969Y-243882D01*
X-138221Y-243407D01*
X-146719Y-242058D01*
X-154049Y-240271D01*
X-161562Y-237718D01*
X-165775Y-235840D01*
X-171227Y-232721D01*
X-174948Y-230387D01*
X-179580Y-226959D01*
X-182898Y-224260D01*
X-185342Y-222035D01*
X-187476Y-219974D01*
X-190813Y-216491D01*
X-193329Y-213683D01*
X-195408Y-211130D01*
X-197742Y-208030D01*
X-199858Y-204966D01*
X-202119Y-201319D01*
X-204891Y-196286D01*
X-206423Y-193150D01*
X-208082Y-189521D01*
X-209851Y-185417D01*
X-210872Y-182536D01*
X-212605Y-177631D01*
X-213097Y-175753D01*
X-213535Y-174294D01*
X-214228Y-171339D01*
X-214592Y-169224D01*
X-214811Y-167255D01*
X-215103Y-165431D01*
X-215139Y-162841D01*
X-214975Y-160854D01*
X-214592Y-158720D01*
X-213881Y-156623D01*
X-212659Y-154672D01*
X-210690Y-152848D01*
X-209176Y-151991D01*
X-206714Y-151243D01*
X-206472Y-151196D01*
X-205312Y-151099D01*
X-203067Y-150508D01*
X-201018Y-149414D01*
X-199277Y-147877D01*
X-197937Y-145980D01*
X-197071Y-143825D01*
X-196725Y-141529D01*
X-196918Y-139214D01*
X-197215Y-138090D01*
X-197215Y-138090D01*
X-197178Y-138075D01*
X-197888Y-136217D01*
X-198691Y-133591D01*
X-199566Y-130126D01*
X-199967Y-128266D01*
X-200405Y-126151D01*
X-200733Y-124218D01*
X-200879Y-122103D01*
X-200842Y-120060D01*
X-200806Y-118018D01*
X-200549Y-116562D01*
X-200336Y-115820D01*
X-200160Y-115219D01*
X-199947Y-114494D01*
X-199665Y-113910D01*
X-199346Y-113274D01*
X-199028Y-112814D01*
X-198639Y-112072D01*
X-198232Y-111612D01*
X-197437Y-110745D01*
X-196624Y-110109D01*
X-195899Y-109614D01*
X-194873Y-109119D01*
X-193742Y-108695D01*
X-192946Y-108429D01*
X-192115Y-108235D01*
X-191355Y-108182D01*
X-190223Y-108146D01*
X-189145Y-108182D01*
X-187801Y-108288D01*
X-186493Y-108500D01*
X-185061Y-108942D01*
X-183717Y-109419D01*
X-182426Y-109985D01*
X-181171Y-110586D01*
X-179470Y-111562D01*
X-176151Y-113823D01*
X-173197Y-116158D01*
X-169841Y-119003D01*
X-166158Y-122030D01*
X-164006Y-123598D01*
X-159939Y-125768D01*
X-156493Y-127318D01*
X-151825Y-128741D01*
X-147047Y-129689D01*
X-142123Y-130163D01*
X-137455Y-130090D01*
X-134500Y-129616D01*
X-131692Y-129215D01*
X-128154Y-128230D01*
X-123340Y-126187D01*
X-119584Y-123890D01*
X-117578Y-122394D01*
X-115973Y-120935D01*
X-113639Y-118164D01*
X-112180Y-115975D01*
X-110684Y-113021D01*
X-110711Y-113009D01*
X-110186Y-111611D01*
X-109784Y-108659D01*
X-110270Y-105720D01*
X-111600Y-103055D01*
X-112547Y-101900D01*
X-112544Y-101897D01*
X-115717Y-97557D01*
X-117750Y-94500D01*
X-119401Y-92123D01*
X-122136Y-87746D01*
X-124507Y-83588D01*
X-126477Y-80233D01*
X-128556Y-76258D01*
X-131109Y-71006D01*
X-133023Y-66757D01*
X-135048Y-61851D01*
X-136415Y-58149D01*
X-137819Y-54338D01*
X-139442Y-49542D01*
X-140810Y-44673D01*
X-141795Y-40953D01*
X-142707Y-37160D01*
X-143728Y-32783D01*
X-144311Y-29355D01*
X-145132Y-24705D01*
X-145916Y-18924D01*
X-146481Y-12961D01*
X-146864Y-7034D01*
X-146937Y-3168D01*
X-146901Y3433D01*
X-146719Y8721D01*
X-146190Y13846D01*
X-145351Y20593D01*
X-144348Y26483D01*
X-143618Y30276D01*
X-142688Y34051D01*
X-141649Y37789D01*
X-140810Y40890D01*
X-139679Y44500D01*
X-138075Y49096D01*
X-136579Y53035D01*
X-135011Y56828D01*
X-133771Y59454D01*
X-132130Y62991D01*
X-130543Y65964D01*
X-128957Y68863D01*
X-126841Y72620D01*
X-123997Y77215D01*
X-121444Y80899D01*
X-118818Y84619D01*
X-115608Y88923D01*
X-113639Y91330D01*
X-111377Y93883D01*
X-108168Y97530D01*
X-105633Y100211D01*
X-102515Y103256D01*
X-100509Y105116D01*
X-96789Y108471D01*
X-94345Y110550D01*
X-92376Y112155D01*
X-90698Y113541D01*
X-88947Y114781D01*
X-87197Y116167D01*
X-85008Y117626D01*
X-82893Y119158D01*
X-80632Y120689D01*
X-78772Y121857D01*
X-76474Y123243D01*
X-74833Y124227D01*
X-72535Y125577D01*
X-70566Y126598D01*
X-69325Y127327D01*
X-67867Y128130D01*
X-66335Y128932D01*
X-63545Y130190D01*
X-60718Y131558D01*
X-55758Y133673D01*
X-53643Y134549D01*
X-50926Y135552D01*
X-48373Y136427D01*
X-46531Y137065D01*
X-44415Y137649D01*
X-40458Y138907D01*
X-37559Y139691D01*
X-35334Y140238D01*
X-30337Y141296D01*
X-25888Y142171D01*
X-22386Y142828D01*
X-17007Y143539D01*
X-10989Y144013D01*
X-5026Y144433D01*
X2451Y144542D01*
X8031Y144214D01*
D02*
G37*
%LPC*%
G36*
X-65974Y45940D02*
X-68526D01*
X-70990Y45280D01*
X-73200Y44004D01*
X-73218Y43986D01*
X-71183Y41951D01*
X-72951Y40183D01*
X-74986Y42218D01*
X-75004Y42200D01*
X-76280Y39990D01*
X-76940Y37526D01*
Y34974D01*
X-76280Y32510D01*
X-75004Y30300D01*
X-74986Y30282D01*
X-72951Y32317D01*
X-71183Y30549D01*
X-73218Y28514D01*
X-73200Y28496D01*
X-70990Y27220D01*
X-68526Y26560D01*
X-65974D01*
X-63510Y27220D01*
X-61300Y28496D01*
X-61282Y28514D01*
X-63317Y30549D01*
X-61549Y32317D01*
X-59514Y30282D01*
X-59496Y30300D01*
X-58220Y32510D01*
X-57560Y34974D01*
Y37526D01*
X-58220Y39990D01*
X-59496Y42200D01*
X-59514Y42218D01*
X-61549Y40183D01*
X-63317Y41951D01*
X-61282Y43986D01*
X-61300Y44004D01*
X-63510Y45280D01*
X-65974Y45940D01*
D02*
G37*
G36*
X86026Y96940D02*
X83474D01*
X81010Y96280D01*
X78800Y95004D01*
X76996Y93200D01*
X75720Y90990D01*
X75060Y88526D01*
Y85974D01*
X75720Y83510D01*
X76996Y81300D01*
X77762Y80534D01*
X77887Y80341D01*
X78432Y79779D01*
X78867Y79278D01*
X79237Y78795D01*
X79544Y78333D01*
X79791Y77894D01*
X79983Y77478D01*
X80124Y77084D01*
X80220Y76711D01*
X80259Y76457D01*
Y-3957D01*
X80220Y-4211D01*
X80124Y-4584D01*
X79983Y-4978D01*
X79791Y-5394D01*
X79544Y-5833D01*
X79237Y-6295D01*
X78867Y-6777D01*
X78432Y-7279D01*
X77887Y-7841D01*
X77762Y-8034D01*
X76996Y-8800D01*
X75720Y-11010D01*
X75060Y-13474D01*
Y-16026D01*
X75720Y-18490D01*
X76996Y-20700D01*
X78800Y-22504D01*
X81010Y-23780D01*
X83474Y-24440D01*
X84558D01*
X84782Y-24488D01*
X85566Y-24500D01*
X86227Y-24547D01*
X86830Y-24627D01*
X87374Y-24736D01*
X87859Y-24872D01*
X88289Y-25031D01*
X88667Y-25209D01*
X88999Y-25406D01*
X89206Y-25558D01*
X90634Y-26986D01*
X90635Y-26986D01*
X90635D01*
X92451Y-29234D01*
X92800Y-29689D01*
X94129Y-32897D01*
X94553Y-36118D01*
X94509Y-36339D01*
Y-88205D01*
X94121Y-88444D01*
X90552Y-88181D01*
X88969Y-86598D01*
X87031Y-85479D01*
X84869Y-84900D01*
X82631D01*
X81456Y-82109D01*
X81450Y-82014D01*
X81450D01*
Y-62514D01*
X61950D01*
Y-82014D01*
X68497D01*
X68527Y-82023D01*
X68683Y-82037D01*
X68750Y-82081D01*
X68880Y-82194D01*
X69058Y-82388D01*
X69271Y-82669D01*
X69510Y-83042D01*
X69764Y-83504D01*
X69884Y-83754D01*
X70093Y-84259D01*
X72260Y-87794D01*
X74926Y-90916D01*
X74949Y-90950D01*
X75468Y-91469D01*
X75250Y-92281D01*
Y-94519D01*
X75829Y-96681D01*
X76948Y-98619D01*
X78531Y-100202D01*
X80469Y-101321D01*
X82104Y-101759D01*
X81709Y-104759D01*
X62521D01*
Y-104740D01*
X57181Y-105160D01*
X51973Y-106411D01*
X47024Y-108460D01*
X42457Y-111259D01*
X38393Y-114730D01*
X38393Y-114730D01*
X36285Y-116863D01*
X26074Y-127074D01*
X26071Y-127074D01*
X26064Y-127068D01*
X22081Y-131610D01*
X18710Y-136655D01*
X16027Y-142097D01*
X14076Y-147843D01*
X12893Y-153794D01*
X12496Y-159848D01*
X12496Y-159848D01*
X12496Y-159848D01*
X12509Y-162621D01*
Y-167269D01*
X12564Y-167545D01*
X12119Y-173187D01*
X10736Y-178949D01*
X8469Y-184423D01*
X5373Y-189475D01*
X1704Y-193771D01*
X1473Y-193925D01*
X1471Y-193929D01*
X1468Y-193930D01*
X-12250Y-207648D01*
X-15250Y-206406D01*
Y-205604D01*
X-16102Y-202425D01*
X-17747Y-199575D01*
X-18783Y-198539D01*
X-18895Y-198360D01*
X-20668Y-196480D01*
X-21332Y-195670D01*
X-21904Y-194886D01*
X-22370Y-194154D01*
X-22732Y-193479D01*
X-22995Y-192868D01*
X-23168Y-192324D01*
X-23259Y-191865D01*
Y-187718D01*
X-23245D01*
X-23643Y-183675D01*
X-24823Y-179787D01*
X-26737Y-176205D01*
X-29315Y-173065D01*
X-29315Y-173065D01*
X-31148Y-170824D01*
X-31581Y-170260D01*
X-32964Y-166919D01*
X-33405Y-163569D01*
X-33359Y-163334D01*
Y-153795D01*
X-33339Y-153643D01*
X-33272Y-153334D01*
X-33177Y-153029D01*
X-33052Y-152723D01*
X-32894Y-152413D01*
X-32700Y-152097D01*
X-32465Y-151774D01*
X-32187Y-151442D01*
X-31810Y-151049D01*
X-31690Y-150861D01*
X-31048Y-150219D01*
X-29929Y-148281D01*
X-29350Y-146119D01*
Y-143881D01*
X-29929Y-141719D01*
X-31048Y-139781D01*
X-32631Y-138198D01*
X-34569Y-137079D01*
X-36731Y-136500D01*
X-38969D01*
X-41131Y-137079D01*
X-43069Y-138198D01*
X-44652Y-139781D01*
X-45771Y-141719D01*
X-46350Y-143881D01*
Y-146119D01*
X-45771Y-148281D01*
X-44652Y-150219D01*
X-44010Y-150861D01*
X-43890Y-151049D01*
X-43513Y-151443D01*
X-43235Y-151774D01*
X-43000Y-152097D01*
X-42806Y-152414D01*
X-42648Y-152723D01*
X-42523Y-153029D01*
X-42428Y-153334D01*
X-42361Y-153643D01*
X-42341Y-153795D01*
Y-163334D01*
X-42365D01*
X-41927Y-167778D01*
X-40631Y-172052D01*
X-38525Y-175990D01*
X-35692Y-179442D01*
X-35692Y-179442D01*
X-33866Y-181686D01*
X-33760Y-181824D01*
X-32583Y-184667D01*
X-32205Y-187536D01*
X-32241Y-187718D01*
Y-191865D01*
X-32332Y-192324D01*
X-32505Y-192868D01*
X-32768Y-193479D01*
X-33130Y-194154D01*
X-33596Y-194886D01*
X-34149Y-195644D01*
X-35659Y-197396D01*
X-36569Y-198323D01*
X-36699Y-198521D01*
X-37752Y-199575D01*
X-38801Y-201392D01*
X-38952Y-201449D01*
X-41948D01*
X-42099Y-201392D01*
X-43148Y-199575D01*
X-43427Y-199295D01*
X-45440Y-201308D01*
X-47208Y-199540D01*
X-45195Y-197527D01*
X-45475Y-197248D01*
X-48325Y-195602D01*
X-51504Y-194750D01*
X-54796D01*
X-57975Y-195602D01*
X-60825Y-197248D01*
X-61105Y-197527D01*
X-59092Y-199540D01*
X-60860Y-201308D01*
X-62873Y-199295D01*
X-63152Y-199575D01*
X-64798Y-202425D01*
X-65650Y-205604D01*
Y-208896D01*
X-64798Y-212075D01*
X-63152Y-214925D01*
X-62873Y-215205D01*
X-60860Y-213192D01*
X-59092Y-214960D01*
X-61105Y-216973D01*
X-61069Y-217009D01*
X-61192Y-218076D01*
X-62051Y-220009D01*
X-77997D01*
X-78189Y-220047D01*
X-81961Y-219676D01*
X-85773Y-218519D01*
X-89285Y-216642D01*
X-92215Y-214237D01*
X-92324Y-214074D01*
X-94385Y-212014D01*
X-94557Y-211899D01*
X-97035Y-208879D01*
X-98973Y-205254D01*
X-98974Y-205250D01*
X-96749Y-202250D01*
X-94500D01*
Y-181250D01*
X-115500D01*
Y-187202D01*
X-115716Y-187238D01*
X-115952Y-187259D01*
X-157870D01*
X-158186Y-187206D01*
X-158607Y-187089D01*
X-159063Y-186914D01*
X-159554Y-186674D01*
X-160079Y-186365D01*
X-160606Y-186002D01*
X-161858Y-184958D01*
X-162508Y-184324D01*
X-162703Y-184198D01*
X-163553Y-183348D01*
X-165947Y-181966D01*
X-168618Y-181250D01*
X-171382D01*
X-174053Y-181966D01*
X-176447Y-183348D01*
X-178402Y-185303D01*
X-179784Y-187697D01*
X-180500Y-190368D01*
Y-193132D01*
X-179784Y-195803D01*
X-178402Y-198197D01*
X-176447Y-200152D01*
X-174053Y-201534D01*
X-171382Y-202250D01*
X-168618D01*
X-165947Y-201534D01*
X-163553Y-200152D01*
X-162703Y-199302D01*
X-162508Y-199176D01*
X-161833Y-198518D01*
X-161222Y-197979D01*
X-160636Y-197519D01*
X-160079Y-197135D01*
X-159554Y-196826D01*
X-159063Y-196586D01*
X-158607Y-196411D01*
X-158186Y-196294D01*
X-157870Y-196241D01*
X-115952D01*
X-115716Y-196262D01*
X-115500Y-196298D01*
Y-202250D01*
X-109171D01*
X-109060Y-202498D01*
X-108934Y-202866D01*
X-108808Y-203341D01*
X-108679Y-203981D01*
X-108581Y-204215D01*
X-108531Y-204464D01*
X-108506Y-204500D01*
X-108034Y-206468D01*
X-106238Y-210802D01*
X-103787Y-214802D01*
X-100740Y-218369D01*
X-100740Y-218370D01*
X-98679Y-220429D01*
X-98676Y-220431D01*
X-98616Y-220482D01*
X-95189Y-223409D01*
X-91275Y-225807D01*
X-87035Y-227564D01*
X-82572Y-228635D01*
X-77997Y-228995D01*
Y-228991D01*
X-35227D01*
X-35208Y-229011D01*
Y-229011D01*
X-35196Y-229012D01*
X-32294Y-228783D01*
X-29790Y-228586D01*
X-24517Y-227320D01*
X-19507Y-225245D01*
X-14883Y-222412D01*
X-12980Y-220786D01*
X-10760Y-218890D01*
X-10758Y-218888D01*
X-10772Y-218874D01*
X7819Y-200283D01*
X7829Y-200292D01*
X7832Y-200289D01*
X7834Y-200287D01*
X9764Y-198086D01*
X11859Y-195698D01*
X15251Y-190621D01*
X17952Y-185144D01*
X19914Y-179362D01*
X21106Y-173373D01*
X21314Y-170194D01*
X21505Y-167280D01*
X21504Y-167267D01*
X21504D01*
X21491Y-167255D01*
Y-159862D01*
X21490Y-159858D01*
X21491Y-159854D01*
X21491Y-159840D01*
X21438Y-159575D01*
X21878Y-153987D01*
X23250Y-148271D01*
X25500Y-142839D01*
X28572Y-137826D01*
X32203Y-133575D01*
X32426Y-133426D01*
X44756Y-121095D01*
X44908Y-120868D01*
X48513Y-117910D01*
X52872Y-115580D01*
X57602Y-114145D01*
X62250Y-113687D01*
X62521Y-113741D01*
X93781D01*
X94029Y-113785D01*
X94213Y-113847D01*
X94299Y-113893D01*
X94331Y-113919D01*
X94357Y-113951D01*
X94403Y-114037D01*
X94465Y-114221D01*
X94509Y-114469D01*
Y-127979D01*
X94503D01*
X94871Y-132656D01*
X95393Y-134831D01*
X95429Y-135166D01*
X95616Y-135761D01*
X95801Y-136528D01*
X95908Y-137059D01*
X95934Y-137260D01*
X95977Y-137814D01*
X95982Y-138081D01*
X96000Y-138163D01*
Y-156500D01*
X117000D01*
Y-150548D01*
X117216Y-150512D01*
X117452Y-150491D01*
X159370D01*
X159686Y-150544D01*
X160107Y-150661D01*
X160563Y-150836D01*
X161054Y-151076D01*
X161579Y-151385D01*
X162106Y-151748D01*
X163358Y-152793D01*
X164008Y-153426D01*
X164203Y-153552D01*
X165053Y-154402D01*
X167447Y-155784D01*
X170118Y-156500D01*
X172882D01*
X175553Y-155784D01*
X177947Y-154402D01*
X179902Y-152447D01*
X181284Y-150053D01*
X182000Y-147382D01*
Y-144618D01*
X181284Y-141947D01*
X179902Y-139553D01*
X177947Y-137598D01*
X175553Y-136216D01*
X172882Y-135500D01*
X170118D01*
X167447Y-136216D01*
X165053Y-137598D01*
X164203Y-138448D01*
X164008Y-138574D01*
X163333Y-139232D01*
X162722Y-139771D01*
X162136Y-140231D01*
X161579Y-140615D01*
X161054Y-140924D01*
X160563Y-141164D01*
X160107Y-141339D01*
X159686Y-141455D01*
X159370Y-141509D01*
X117452D01*
X117217Y-141488D01*
X117000Y-141452D01*
Y-135500D01*
X105209D01*
X105138Y-135431D01*
X105000Y-135262D01*
X104829Y-134999D01*
X104637Y-134639D01*
X104563Y-134473D01*
X103834Y-132070D01*
X103451Y-128182D01*
X103491Y-127979D01*
Y-109250D01*
Y-36339D01*
X103491Y-36339D01*
X103512D01*
X103085Y-32002D01*
X101820Y-27832D01*
X99766Y-23989D01*
X97001Y-20620D01*
X95089Y-18412D01*
X95031Y-18289D01*
X94872Y-17859D01*
X94736Y-17374D01*
X94627Y-16830D01*
X94547Y-16228D01*
X94500Y-15566D01*
X94488Y-14783D01*
X94440Y-14558D01*
Y-13474D01*
X93780Y-11010D01*
X92504Y-8800D01*
X91738Y-8034D01*
X91613Y-7841D01*
X91068Y-7279D01*
X90633Y-6778D01*
X90263Y-6295D01*
X89956Y-5833D01*
X89709Y-5394D01*
X89517Y-4978D01*
X89376Y-4584D01*
X89280Y-4211D01*
X89241Y-3957D01*
Y14936D01*
X92241Y16010D01*
X94053Y13803D01*
X97631Y10866D01*
X101713Y8684D01*
X106143Y7340D01*
X110750Y6886D01*
X115357Y7340D01*
X119787Y8684D01*
X123869Y10866D01*
X127447Y13803D01*
X130384Y17381D01*
X132566Y21463D01*
X133910Y25893D01*
X134364Y30500D01*
X133910Y35107D01*
X132566Y39536D01*
X130384Y43619D01*
X127447Y47197D01*
X123869Y50134D01*
X119787Y52316D01*
X115357Y53660D01*
X110750Y54114D01*
X106143Y53660D01*
X101713Y52316D01*
X97631Y50134D01*
X94053Y47197D01*
X92241Y44990D01*
X89241Y46064D01*
Y76457D01*
X89280Y76711D01*
X89376Y77084D01*
X89517Y77478D01*
X89709Y77894D01*
X89956Y78333D01*
X90263Y78795D01*
X90633Y79278D01*
X91068Y79779D01*
X91613Y80341D01*
X91738Y80534D01*
X92504Y81300D01*
X93780Y83510D01*
X94440Y85974D01*
Y88526D01*
X93780Y90990D01*
X92504Y93200D01*
X90700Y95004D01*
X88490Y96280D01*
X86026Y96940D01*
D02*
G37*
G36*
X-44266Y-62486D02*
X-46834D01*
X-49313Y-63150D01*
X-51537Y-64434D01*
X-51560Y-64458D01*
X-49526Y-66492D01*
X-51294Y-68260D01*
X-53328Y-66225D01*
X-53352Y-66249D01*
X-54636Y-68472D01*
X-55300Y-70952D01*
Y-73520D01*
X-54636Y-75999D01*
X-53352Y-78222D01*
X-53328Y-78246D01*
X-51294Y-76212D01*
X-49526Y-77980D01*
X-51560Y-80014D01*
X-51537Y-80038D01*
X-49313Y-81321D01*
X-46834Y-81986D01*
X-44266D01*
X-41787Y-81321D01*
X-39563Y-80038D01*
X-39540Y-80014D01*
X-41574Y-77980D01*
X-39806Y-76212D01*
X-37772Y-78246D01*
X-37748Y-78222D01*
X-36465Y-75999D01*
X-35800Y-73520D01*
Y-70952D01*
X-36465Y-68472D01*
X-37748Y-66249D01*
X-37772Y-66225D01*
X-39806Y-68260D01*
X-41574Y-66492D01*
X-39540Y-64458D01*
X-39563Y-64434D01*
X-41787Y-63150D01*
X-44266Y-62486D01*
D02*
G37*
G36*
X47584Y-62514D02*
X45016D01*
X42537Y-63179D01*
X40313Y-64462D01*
X40290Y-64486D01*
X42324Y-66520D01*
X40556Y-68288D01*
X38522Y-66254D01*
X38498Y-66277D01*
X37215Y-68501D01*
X36550Y-70981D01*
Y-73548D01*
X37215Y-76027D01*
X38498Y-78251D01*
X38522Y-78274D01*
X40556Y-76240D01*
X42324Y-78008D01*
X40290Y-80042D01*
X40313Y-80066D01*
X42537Y-81350D01*
X45016Y-82014D01*
X47584D01*
X50063Y-81350D01*
X52287Y-80066D01*
X52310Y-80042D01*
X50276Y-78008D01*
X52044Y-76240D01*
X54078Y-78274D01*
X54102Y-78251D01*
X55385Y-76027D01*
X56050Y-73548D01*
Y-70981D01*
X55385Y-68501D01*
X54102Y-66277D01*
X54078Y-66254D01*
X52044Y-68288D01*
X50276Y-66520D01*
X52310Y-64486D01*
X52287Y-64462D01*
X50063Y-63179D01*
X47584Y-62514D01*
D02*
G37*
G36*
X-61200Y-62486D02*
X-80700D01*
Y-73132D01*
X-80705Y-73186D01*
X-80700Y-73202D01*
Y-75108D01*
X-80771Y-75307D01*
X-81058Y-75973D01*
X-81975Y-77729D01*
X-82573Y-78739D01*
X-82650Y-78958D01*
X-83738Y-80734D01*
X-85534Y-85068D01*
X-86143Y-87603D01*
X-86144Y-87605D01*
X-86151Y-87640D01*
X-86199Y-87837D01*
X-86283Y-88018D01*
X-86401Y-88501D01*
X-86523Y-88894D01*
X-86667Y-89274D01*
X-86834Y-89642D01*
X-87024Y-90000D01*
X-87239Y-90349D01*
X-87479Y-90691D01*
X-87746Y-91027D01*
X-88042Y-91357D01*
X-88417Y-91731D01*
X-88551Y-91930D01*
X-89302Y-92681D01*
X-90421Y-94619D01*
X-91000Y-96781D01*
Y-99019D01*
X-90421Y-101181D01*
X-89302Y-103119D01*
X-87719Y-104702D01*
X-85781Y-105821D01*
X-83619Y-106400D01*
X-81381D01*
X-79219Y-105821D01*
X-77281Y-104702D01*
X-75698Y-103119D01*
X-74579Y-101181D01*
X-74000Y-99019D01*
Y-96781D01*
X-74579Y-94619D01*
X-75698Y-92681D01*
X-76238Y-92141D01*
X-76339Y-91975D01*
X-76711Y-91569D01*
X-76961Y-91249D01*
X-77154Y-90953D01*
X-77296Y-90682D01*
X-77395Y-90436D01*
X-77458Y-90210D01*
X-77492Y-89994D01*
X-77500Y-89778D01*
X-77489Y-89633D01*
X-76473Y-86282D01*
X-74798Y-83149D01*
X-74773Y-83109D01*
X-74308Y-82448D01*
X-73942Y-81986D01*
X-73338D01*
X-73246Y-82004D01*
X-73153Y-81986D01*
X-61200D01*
Y-62486D01*
D02*
G37*
G36*
X-103618Y-136250D02*
X-106382D01*
X-109053Y-136966D01*
X-111447Y-138348D01*
X-112297Y-139198D01*
X-112492Y-139324D01*
X-113167Y-139982D01*
X-113778Y-140521D01*
X-114364Y-140981D01*
X-114921Y-141365D01*
X-115446Y-141674D01*
X-115937Y-141914D01*
X-116393Y-142089D01*
X-116814Y-142206D01*
X-117130Y-142259D01*
X-157870D01*
X-158186Y-142206D01*
X-158607Y-142089D01*
X-159063Y-141914D01*
X-159554Y-141674D01*
X-160079Y-141365D01*
X-160606Y-141002D01*
X-161858Y-139958D01*
X-162508Y-139324D01*
X-162703Y-139198D01*
X-163553Y-138348D01*
X-165947Y-136966D01*
X-168618Y-136250D01*
X-171382D01*
X-174053Y-136966D01*
X-176447Y-138348D01*
X-178402Y-140303D01*
X-179784Y-142697D01*
X-180500Y-145368D01*
Y-148132D01*
X-179784Y-150803D01*
X-178402Y-153197D01*
X-176447Y-155152D01*
X-174053Y-156534D01*
X-171382Y-157250D01*
X-168618D01*
X-165947Y-156534D01*
X-163553Y-155152D01*
X-162703Y-154302D01*
X-162508Y-154176D01*
X-161833Y-153518D01*
X-161222Y-152979D01*
X-160636Y-152519D01*
X-160079Y-152135D01*
X-159554Y-151826D01*
X-159063Y-151586D01*
X-158607Y-151411D01*
X-158186Y-151294D01*
X-157870Y-151241D01*
X-117130D01*
X-116814Y-151294D01*
X-116393Y-151411D01*
X-115937Y-151586D01*
X-115446Y-151826D01*
X-114921Y-152135D01*
X-114394Y-152498D01*
X-113142Y-153542D01*
X-112492Y-154176D01*
X-112297Y-154302D01*
X-111447Y-155152D01*
X-109053Y-156534D01*
X-106382Y-157250D01*
X-103618D01*
X-100947Y-156534D01*
X-99423Y-155654D01*
X-99254Y-155594D01*
X-96624Y-154658D01*
X-96585Y-154717D01*
X-92590Y-158712D01*
X-92448Y-158807D01*
X-90156Y-161599D01*
X-88359Y-164962D01*
X-87908Y-166448D01*
X-87903Y-166543D01*
X-87917Y-166734D01*
X-87957Y-166934D01*
X-88029Y-167155D01*
X-88142Y-167404D01*
X-88305Y-167685D01*
X-88527Y-167996D01*
X-88874Y-168404D01*
X-88934Y-168513D01*
X-89302Y-168881D01*
X-90421Y-170819D01*
X-91000Y-172981D01*
Y-175219D01*
X-90421Y-177381D01*
X-89302Y-179319D01*
X-87719Y-180902D01*
X-85781Y-182021D01*
X-83619Y-182600D01*
X-81381D01*
X-79219Y-182021D01*
X-77281Y-180902D01*
X-75698Y-179319D01*
X-74579Y-177381D01*
X-74000Y-175219D01*
Y-172981D01*
X-74579Y-170819D01*
X-75698Y-168881D01*
X-76683Y-167897D01*
X-76812Y-167719D01*
X-77206Y-167355D01*
X-77526Y-167027D01*
X-77820Y-166692D01*
X-78089Y-166349D01*
X-78335Y-165997D01*
X-78558Y-165636D01*
X-78759Y-165265D01*
X-78938Y-164882D01*
X-79098Y-164485D01*
X-79216Y-164135D01*
X-79336Y-163635D01*
X-81041Y-159520D01*
X-83368Y-155723D01*
X-86232Y-152369D01*
X-86238Y-152360D01*
X-86238Y-152360D01*
X-90233Y-148365D01*
X-90230Y-148352D01*
X-90230Y-148352D01*
X-92409Y-146402D01*
X-92807Y-145980D01*
X-93694Y-144919D01*
X-94070Y-144411D01*
X-95327Y-142445D01*
X-95714Y-141746D01*
X-95742Y-141713D01*
X-95757Y-141672D01*
X-95898Y-141515D01*
X-96598Y-140303D01*
X-98553Y-138348D01*
X-100947Y-136966D01*
X-103618Y-136250D01*
D02*
G37*
G36*
X84869Y-161100D02*
X82631D01*
X80469Y-161679D01*
X78531Y-162798D01*
X76948Y-164381D01*
X75829Y-166319D01*
X75250Y-168481D01*
Y-170719D01*
X75829Y-172881D01*
X76948Y-174819D01*
X78531Y-176402D01*
X78767Y-176538D01*
X78788Y-176561D01*
X79187Y-176856D01*
X79927Y-177489D01*
X80202Y-177761D01*
X80830Y-178485D01*
X81061Y-178796D01*
X81585Y-179619D01*
X81820Y-180056D01*
X81874Y-180121D01*
X81904Y-180200D01*
X82006Y-180308D01*
X83108Y-182369D01*
X85855Y-185716D01*
X85957Y-185841D01*
X87943Y-187849D01*
X87945Y-187851D01*
X88079Y-187961D01*
X91911Y-191106D01*
X92794Y-191578D01*
X92796Y-191580D01*
X93285Y-191901D01*
X93723Y-192228D01*
X94157Y-192591D01*
X95158Y-193564D01*
X95609Y-194063D01*
X97221Y-196126D01*
X97755Y-196899D01*
X97816Y-196958D01*
X98098Y-197447D01*
X100053Y-199402D01*
X102447Y-200784D01*
X105118Y-201500D01*
X107882D01*
X110553Y-200784D01*
X112947Y-199402D01*
X113797Y-198552D01*
X113992Y-198426D01*
X114667Y-197768D01*
X115278Y-197229D01*
X115864Y-196769D01*
X116421Y-196385D01*
X116946Y-196076D01*
X117437Y-195836D01*
X117893Y-195661D01*
X118314Y-195544D01*
X118630Y-195491D01*
X159370D01*
X159686Y-195544D01*
X160107Y-195661D01*
X160563Y-195836D01*
X161054Y-196076D01*
X161579Y-196385D01*
X162106Y-196748D01*
X163358Y-197792D01*
X164008Y-198426D01*
X164203Y-198552D01*
X165053Y-199402D01*
X167447Y-200784D01*
X170118Y-201500D01*
X172882D01*
X175553Y-200784D01*
X177947Y-199402D01*
X179902Y-197447D01*
X181284Y-195053D01*
X182000Y-192382D01*
Y-189618D01*
X181284Y-186947D01*
X179902Y-184553D01*
X177947Y-182598D01*
X175553Y-181216D01*
X172882Y-180500D01*
X170118D01*
X167447Y-181216D01*
X165053Y-182598D01*
X164203Y-183448D01*
X164008Y-183574D01*
X163333Y-184232D01*
X162722Y-184771D01*
X162136Y-185231D01*
X161579Y-185615D01*
X161054Y-185924D01*
X160563Y-186164D01*
X160107Y-186339D01*
X159686Y-186456D01*
X159370Y-186509D01*
X118630D01*
X118314Y-186456D01*
X117893Y-186339D01*
X117437Y-186164D01*
X116946Y-185924D01*
X116421Y-185615D01*
X115894Y-185252D01*
X114642Y-184207D01*
X113992Y-183574D01*
X113797Y-183448D01*
X112947Y-182598D01*
X110553Y-181216D01*
X107882Y-180500D01*
X105118D01*
X102447Y-181216D01*
X100623Y-182269D01*
X100523Y-182309D01*
X100288Y-182462D01*
X100053Y-182598D01*
X100002Y-182649D01*
X99779Y-182794D01*
X99163Y-183135D01*
X98615Y-183380D01*
X98141Y-183537D01*
X97745Y-183619D01*
X97424Y-183642D01*
X97163Y-183623D01*
X96937Y-183570D01*
X96717Y-183479D01*
X96671Y-183451D01*
X94400Y-181587D01*
X94321Y-181470D01*
X92327Y-179475D01*
X92127Y-179342D01*
X90264Y-176913D01*
X90123Y-176648D01*
X90056Y-176472D01*
X90020Y-176319D01*
X90006Y-176173D01*
X90012Y-176015D01*
X90045Y-175829D01*
X90114Y-175601D01*
X90232Y-175328D01*
X90407Y-175010D01*
X90505Y-174866D01*
X90552Y-174819D01*
X90644Y-174660D01*
X90704Y-174570D01*
X90727Y-174515D01*
X91671Y-172881D01*
X92250Y-170719D01*
Y-168481D01*
X91671Y-166319D01*
X90552Y-164381D01*
X88969Y-162798D01*
X87031Y-161679D01*
X84869Y-161100D01*
D02*
G37*
G36*
X61734Y-206236D02*
X59166D01*
X56687Y-206900D01*
X54463Y-208184D01*
X54440Y-208208D01*
X56474Y-210242D01*
X54706Y-212010D01*
X52672Y-209975D01*
X52648Y-209999D01*
X51364Y-212222D01*
X50700Y-214702D01*
Y-217269D01*
X51364Y-219749D01*
X52648Y-221973D01*
X52672Y-221996D01*
X54706Y-219962D01*
X56474Y-221730D01*
X54440Y-223764D01*
X54463Y-223788D01*
X56687Y-225071D01*
X59166Y-225736D01*
X61734D01*
X64213Y-225071D01*
X66437Y-223788D01*
X66460Y-223764D01*
X64426Y-221730D01*
X66194Y-219962D01*
X68228Y-221996D01*
X68252Y-221973D01*
X69535Y-219749D01*
X70200Y-217269D01*
Y-214702D01*
X69535Y-212222D01*
X68252Y-209999D01*
X68228Y-209975D01*
X66194Y-212010D01*
X64426Y-210242D01*
X66460Y-208208D01*
X66437Y-208184D01*
X64213Y-206900D01*
X61734Y-206236D01*
D02*
G37*
G36*
X39469Y-136500D02*
X37231D01*
X35069Y-137079D01*
X33131Y-138198D01*
X31548Y-139781D01*
X30429Y-141719D01*
X29850Y-143881D01*
Y-146119D01*
X30429Y-148281D01*
X30865Y-149035D01*
X30929Y-149243D01*
X31189Y-149722D01*
X31370Y-150115D01*
X31511Y-150489D01*
X31615Y-150845D01*
X31686Y-151185D01*
X31726Y-151513D01*
X31737Y-151833D01*
X31721Y-152148D01*
X31699Y-152300D01*
X31446Y-153226D01*
X31445Y-153252D01*
X31384Y-153431D01*
X30273Y-159015D01*
X29901Y-164696D01*
X29901D01*
X29908Y-164718D01*
X29908Y-203259D01*
X27095Y-206236D01*
X25300D01*
Y-225736D01*
X44800D01*
Y-206236D01*
X38947D01*
X38911Y-206019D01*
X38890Y-205784D01*
X38890Y-164710D01*
X38889Y-164706D01*
X38890Y-164702D01*
X38890Y-164688D01*
X38843Y-164454D01*
X39250Y-159283D01*
X40135Y-155600D01*
X41507Y-153156D01*
X41759Y-152954D01*
X42114Y-152707D01*
X42582Y-152427D01*
X42751Y-152274D01*
X43569Y-151802D01*
X45152Y-150219D01*
X46271Y-148281D01*
X46850Y-146119D01*
Y-143881D01*
X46271Y-141719D01*
X45152Y-139781D01*
X43569Y-138198D01*
X41631Y-137079D01*
X39469Y-136500D01*
D02*
G37*
%LPD*%
G36*
X89189Y81502D02*
X88657Y80890D01*
X88188Y80277D01*
X87781Y79666D01*
X87437Y79054D01*
X87156Y78443D01*
X86937Y77832D01*
X86780Y77222D01*
X86686Y76612D01*
X86655Y76003D01*
X82845D01*
X82814Y76612D01*
X82720Y77222D01*
X82563Y77832D01*
X82345Y78443D01*
X82063Y79054D01*
X81719Y79666D01*
X81312Y80277D01*
X80843Y80890D01*
X80311Y81502D01*
X79717Y82115D01*
X89783D01*
X89189Y81502D01*
D02*
G37*
G36*
X86686Y-4112D02*
X86780Y-4722D01*
X86937Y-5332D01*
X87156Y-5943D01*
X87437Y-6554D01*
X87781Y-7166D01*
X88188Y-7778D01*
X88657Y-8390D01*
X89189Y-9002D01*
X89783Y-9615D01*
X79717D01*
X80311Y-9002D01*
X80843Y-8390D01*
X81312Y-7778D01*
X81719Y-7166D01*
X82063Y-6554D01*
X82345Y-5943D01*
X82563Y-5332D01*
X82720Y-4722D01*
X82814Y-4112D01*
X82845Y-3503D01*
X86655D01*
X86686Y-4112D01*
D02*
G37*
G36*
X91953Y-15676D02*
X92010Y-16485D01*
X92111Y-17249D01*
X92256Y-17970D01*
X92445Y-18645D01*
X92678Y-19276D01*
X92955Y-19863D01*
X93276Y-20405D01*
X93641Y-20903D01*
X94050Y-21356D01*
X91356Y-24050D01*
X90903Y-23641D01*
X90405Y-23276D01*
X89863Y-22955D01*
X89277Y-22678D01*
X88645Y-22445D01*
X87970Y-22256D01*
X87249Y-22111D01*
X86485Y-22010D01*
X85676Y-21953D01*
X84822Y-21940D01*
X91940Y-14822D01*
X91953Y-15676D01*
D02*
G37*
G36*
X76735Y-79518D02*
X76446Y-79620D01*
X76227Y-79790D01*
X76078Y-80028D01*
X75999Y-80334D01*
X75990Y-80709D01*
X76051Y-81151D01*
X76182Y-81661D01*
X76383Y-82240D01*
X76653Y-82886D01*
X72353Y-83007D01*
X72032Y-82338D01*
X71702Y-81739D01*
X71364Y-81210D01*
X71017Y-80752D01*
X70661Y-80365D01*
X70296Y-80047D01*
X69923Y-79801D01*
X69541Y-79625D01*
X69150Y-79519D01*
X68751Y-79484D01*
X77094D01*
X76735Y-79518D01*
D02*
G37*
G36*
X79778Y-86728D02*
X80759Y-87582D01*
X80944Y-87708D01*
X81104Y-87800D01*
X81240Y-87856D01*
X81352Y-87877D01*
X81439Y-87863D01*
X78213Y-91089D01*
X78227Y-91002D01*
X78206Y-90890D01*
X78149Y-90754D01*
X78058Y-90594D01*
X77932Y-90409D01*
X77771Y-90201D01*
X77344Y-89710D01*
X76778Y-89122D01*
X79472Y-86428D01*
X79778Y-86728D01*
D02*
G37*
G36*
X100905Y-109250D02*
X97095Y-114965D01*
X97057Y-114241D01*
X96943Y-113593D01*
X96752Y-113022D01*
X96485Y-112527D01*
X96143Y-112107D01*
X95723Y-111765D01*
X95228Y-111498D01*
X94657Y-111307D01*
X94009Y-111193D01*
X93285Y-111155D01*
Y-107345D01*
X94009Y-107307D01*
X94657Y-107193D01*
X95228Y-107002D01*
X95723Y-106735D01*
X96143Y-106392D01*
X96485Y-105973D01*
X96752Y-105478D01*
X96943Y-104907D01*
X97057Y-104259D01*
X97095Y-103535D01*
X100905Y-109250D01*
D02*
G37*
G36*
X101819Y-134470D02*
X102074Y-135151D01*
X102346Y-135760D01*
X102633Y-136297D01*
X102937Y-136764D01*
X103257Y-137158D01*
X103593Y-137482D01*
X103945Y-137734D01*
X104314Y-137914D01*
X104698Y-138023D01*
X105100Y-138061D01*
X98531Y-138031D01*
X98524Y-137691D01*
X98470Y-136996D01*
X98423Y-136641D01*
X98202Y-135544D01*
X98102Y-135169D01*
X97861Y-134402D01*
X101819Y-134470D01*
D02*
G37*
G36*
X114477Y-142552D02*
X114593Y-142876D01*
X114785Y-143161D01*
X115054Y-143409D01*
X115399Y-143619D01*
X115822Y-143790D01*
X116321Y-143924D01*
X116897Y-144019D01*
X117550Y-144076D01*
X118279Y-144095D01*
Y-147905D01*
X117550Y-147924D01*
X116897Y-147981D01*
X116321Y-148076D01*
X115822Y-148210D01*
X115399Y-148381D01*
X115054Y-148591D01*
X114785Y-148838D01*
X114593Y-149124D01*
X114477Y-149448D01*
X114439Y-149810D01*
Y-142190D01*
X114477Y-142552D01*
D02*
G37*
G36*
X165787Y-151600D02*
X165066Y-150898D01*
X163649Y-149715D01*
X162951Y-149235D01*
X162262Y-148829D01*
X161580Y-148496D01*
X160906Y-148237D01*
X160240Y-148053D01*
X159581Y-147942D01*
X158930Y-147905D01*
Y-144095D01*
X159581Y-144058D01*
X160240Y-143947D01*
X160906Y-143762D01*
X161580Y-143504D01*
X162262Y-143171D01*
X162951Y-142765D01*
X163649Y-142284D01*
X164354Y-141730D01*
X165066Y-141102D01*
X165787Y-140400D01*
Y-151600D01*
D02*
G37*
G36*
X-34086Y-149740D02*
X-34476Y-150205D01*
X-34820Y-150680D01*
X-35119Y-151165D01*
X-35371Y-151661D01*
X-35578Y-152166D01*
X-35738Y-152682D01*
X-35853Y-153208D01*
X-35922Y-153744D01*
X-35945Y-154290D01*
X-39755D01*
X-39778Y-153744D01*
X-39847Y-153208D01*
X-39962Y-152682D01*
X-40122Y-152166D01*
X-40329Y-151661D01*
X-40581Y-151165D01*
X-40880Y-150680D01*
X-41224Y-150205D01*
X-41614Y-149740D01*
X-42050Y-149285D01*
X-33650D01*
X-34086Y-149740D01*
D02*
G37*
G36*
X-112939Y-195560D02*
X-112977Y-195198D01*
X-113093Y-194874D01*
X-113285Y-194589D01*
X-113553Y-194341D01*
X-113899Y-194131D01*
X-114322Y-193960D01*
X-114821Y-193827D01*
X-115397Y-193731D01*
X-116050Y-193674D01*
X-116779Y-193655D01*
Y-189845D01*
X-116050Y-189826D01*
X-115397Y-189769D01*
X-114821Y-189674D01*
X-114322Y-189540D01*
X-113899Y-189369D01*
X-113553Y-189159D01*
X-113285Y-188912D01*
X-113093Y-188626D01*
X-112977Y-188302D01*
X-112939Y-187940D01*
Y-195560D01*
D02*
G37*
G36*
X-163566Y-186852D02*
X-162149Y-188034D01*
X-161451Y-188515D01*
X-160762Y-188921D01*
X-160080Y-189254D01*
X-159406Y-189512D01*
X-158740Y-189697D01*
X-158081Y-189808D01*
X-157430Y-189845D01*
Y-193655D01*
X-158081Y-193692D01*
X-158740Y-193803D01*
X-159406Y-193988D01*
X-160080Y-194246D01*
X-160762Y-194579D01*
X-161451Y-194985D01*
X-162149Y-195466D01*
X-162854Y-196020D01*
X-163566Y-196648D01*
X-164287Y-197350D01*
Y-186150D01*
X-163566Y-186852D01*
D02*
G37*
G36*
X-25794Y-192183D02*
X-25641Y-192958D01*
X-25386Y-193760D01*
X-25030Y-194588D01*
X-24571Y-195443D01*
X-24011Y-196323D01*
X-23348Y-197230D01*
X-22584Y-198163D01*
X-20750Y-200109D01*
X-34750D01*
X-33782Y-199123D01*
X-32152Y-197230D01*
X-31489Y-196323D01*
X-30929Y-195443D01*
X-30470Y-194588D01*
X-30113Y-193760D01*
X-29859Y-192958D01*
X-29706Y-192183D01*
X-29655Y-191433D01*
X-25845D01*
X-25794Y-192183D01*
D02*
G37*
G36*
X-101367Y-199757D02*
X-101669Y-199869D01*
X-101921Y-200056D01*
X-102121Y-200318D01*
X-102271Y-200654D01*
X-102369Y-201066D01*
X-102417Y-201552D01*
X-102414Y-202113D01*
X-102359Y-202748D01*
X-102254Y-203459D01*
X-106180Y-203477D01*
X-106325Y-202763D01*
X-106493Y-202124D01*
X-106687Y-201561D01*
X-106906Y-201072D01*
X-107149Y-200659D01*
X-107418Y-200321D01*
X-107712Y-200058D01*
X-108030Y-199870D01*
X-108373Y-199757D01*
X-108742Y-199720D01*
X-101013D01*
X-101367Y-199757D01*
D02*
G37*
G36*
X-73242Y-79455D02*
X-73513Y-79183D01*
X-73818Y-79042D01*
X-74156Y-79030D01*
X-74528Y-79148D01*
X-74933Y-79397D01*
X-75372Y-79775D01*
X-75845Y-80283D01*
X-76351Y-80922D01*
X-76891Y-81691D01*
X-77465Y-82590D01*
X-80380Y-80038D01*
X-79747Y-78969D01*
X-78755Y-77070D01*
X-78397Y-76239D01*
X-78130Y-75488D01*
X-77955Y-74816D01*
X-77871Y-74224D01*
X-77879Y-73712D01*
X-77978Y-73278D01*
X-78169Y-72925D01*
X-73242Y-79455D01*
D02*
G37*
G36*
X-79915Y-88694D02*
X-80014Y-89215D01*
X-80053Y-89732D01*
X-80033Y-90244D01*
X-79953Y-90751D01*
X-79813Y-91254D01*
X-79614Y-91752D01*
X-79355Y-92245D01*
X-79036Y-92733D01*
X-78657Y-93217D01*
X-78219Y-93696D01*
X-86618Y-93536D01*
X-86192Y-93112D01*
X-85798Y-92673D01*
X-85437Y-92219D01*
X-85108Y-91750D01*
X-84811Y-91266D01*
X-84546Y-90767D01*
X-84313Y-90253D01*
X-84112Y-89725D01*
X-83943Y-89181D01*
X-83807Y-88623D01*
X-79915Y-88694D01*
D02*
G37*
G36*
X-110713Y-152350D02*
X-111434Y-151648D01*
X-112851Y-150465D01*
X-113549Y-149985D01*
X-114238Y-149579D01*
X-114920Y-149246D01*
X-115594Y-148988D01*
X-116260Y-148803D01*
X-116919Y-148692D01*
X-117570Y-148655D01*
Y-144845D01*
X-116919Y-144808D01*
X-116260Y-144697D01*
X-115594Y-144512D01*
X-114920Y-144254D01*
X-114238Y-143921D01*
X-113549Y-143515D01*
X-112851Y-143034D01*
X-112146Y-142480D01*
X-111434Y-141852D01*
X-110713Y-141150D01*
Y-152350D01*
D02*
G37*
G36*
X-163566Y-141852D02*
X-162149Y-143034D01*
X-161451Y-143515D01*
X-160762Y-143921D01*
X-160080Y-144254D01*
X-159406Y-144512D01*
X-158740Y-144697D01*
X-158081Y-144808D01*
X-157430Y-144845D01*
Y-148655D01*
X-158081Y-148692D01*
X-158740Y-148803D01*
X-159406Y-148988D01*
X-160080Y-149246D01*
X-160762Y-149579D01*
X-161451Y-149985D01*
X-162149Y-150465D01*
X-162854Y-151020D01*
X-163566Y-151648D01*
X-164287Y-152350D01*
Y-141150D01*
X-163566Y-141852D01*
D02*
G37*
G36*
X-97518Y-143749D02*
X-96170Y-145859D01*
X-95697Y-146497D01*
X-94714Y-147673D01*
X-94205Y-148213D01*
X-93151Y-149192D01*
X-94754Y-152890D01*
X-95175Y-152533D01*
X-95632Y-152267D01*
X-96124Y-152092D01*
X-96652Y-152008D01*
X-97215Y-152014D01*
X-97813Y-152111D01*
X-98448Y-152299D01*
X-99117Y-152577D01*
X-99822Y-152947D01*
X-100563Y-153407D01*
X-97944Y-142980D01*
X-97518Y-143749D01*
D02*
G37*
G36*
X-81489Y-165370D02*
X-81277Y-165900D01*
X-81035Y-166414D01*
X-80765Y-166913D01*
X-80466Y-167397D01*
X-80139Y-167866D01*
X-79782Y-168320D01*
X-79397Y-168759D01*
X-78984Y-169183D01*
X-78541Y-169591D01*
X-86929Y-170052D01*
X-86514Y-169563D01*
X-86163Y-169071D01*
X-85875Y-168577D01*
X-85649Y-168079D01*
X-85486Y-167580D01*
X-85386Y-167077D01*
X-85349Y-166572D01*
X-85375Y-166064D01*
X-85464Y-165553D01*
X-85615Y-165039D01*
X-81674Y-164825D01*
X-81489Y-165370D01*
D02*
G37*
G36*
X88231Y-173678D02*
X87940Y-174205D01*
X87717Y-174724D01*
X87561Y-175237D01*
X87472Y-175743D01*
X87452Y-176243D01*
X87499Y-176735D01*
X87614Y-177222D01*
X87797Y-177701D01*
X88047Y-178174D01*
X84064Y-178846D01*
X83785Y-178328D01*
X83161Y-177348D01*
X82817Y-176887D01*
X82065Y-176019D01*
X81656Y-175614D01*
X80775Y-174859D01*
X80302Y-174510D01*
X88590Y-173146D01*
X88231Y-173678D01*
D02*
G37*
G36*
X99854Y-195452D02*
X99277Y-194616D01*
X97560Y-192420D01*
X96993Y-191794D01*
X95866Y-190698D01*
X95306Y-190229D01*
X94749Y-189812D01*
X94194Y-189448D01*
X95002Y-185420D01*
X95563Y-185760D01*
X96154Y-186004D01*
X96773Y-186150D01*
X97421Y-186198D01*
X98097Y-186149D01*
X98803Y-186003D01*
X99538Y-185759D01*
X100302Y-185418D01*
X101094Y-184980D01*
X101915Y-184444D01*
X99854Y-195452D01*
D02*
G37*
G36*
X165787Y-196600D02*
X165066Y-195898D01*
X163649Y-194715D01*
X162951Y-194235D01*
X162262Y-193829D01*
X161580Y-193496D01*
X160906Y-193238D01*
X160240Y-193053D01*
X159581Y-192942D01*
X158930Y-192905D01*
Y-189095D01*
X159581Y-189058D01*
X160240Y-188947D01*
X160906Y-188762D01*
X161580Y-188504D01*
X162262Y-188171D01*
X162951Y-187765D01*
X163649Y-187285D01*
X164354Y-186730D01*
X165066Y-186102D01*
X165787Y-185400D01*
Y-196600D01*
D02*
G37*
G36*
X112934Y-186102D02*
X114351Y-187285D01*
X115049Y-187765D01*
X115738Y-188171D01*
X116420Y-188504D01*
X117094Y-188762D01*
X117760Y-188947D01*
X118419Y-189058D01*
X119070Y-189095D01*
Y-192905D01*
X118419Y-192942D01*
X117760Y-193053D01*
X117094Y-193238D01*
X116420Y-193496D01*
X115738Y-193829D01*
X115049Y-194235D01*
X114351Y-194715D01*
X113646Y-195270D01*
X112934Y-195898D01*
X112213Y-196600D01*
Y-185400D01*
X112934Y-186102D01*
D02*
G37*
G36*
X41272Y-150240D02*
X40732Y-150564D01*
X40233Y-150910D01*
X39775Y-151278D01*
X39360Y-151667D01*
X38985Y-152079D01*
X38653Y-152512D01*
X38362Y-152967D01*
X38113Y-153444D01*
X37905Y-153942D01*
X37739Y-154463D01*
X34064Y-153459D01*
X34186Y-152926D01*
X34260Y-152391D01*
X34288Y-151854D01*
X34269Y-151314D01*
X34203Y-150772D01*
X34090Y-150227D01*
X33930Y-149681D01*
X33724Y-149132D01*
X33470Y-148580D01*
X33169Y-148026D01*
X41272Y-150240D01*
D02*
G37*
G36*
X36323Y-205686D02*
X36380Y-206339D01*
X36475Y-206915D01*
X36609Y-207414D01*
X36780Y-207837D01*
X36990Y-208182D01*
X37237Y-208451D01*
X37523Y-208643D01*
X37847Y-208758D01*
X38209Y-208797D01*
X30589D01*
X30951Y-208758D01*
X31275Y-208643D01*
X31560Y-208451D01*
X31808Y-208182D01*
X32018Y-207837D01*
X32189Y-207414D01*
X32322Y-206915D01*
X32418Y-206339D01*
X32475Y-205686D01*
X32494Y-204956D01*
X36304D01*
X36323Y-205686D01*
D02*
G37*
D20*
X60450Y-215986D02*
D03*
X-45550Y-72236D02*
D03*
X46300Y-72264D02*
D03*
D21*
X35050Y-215986D02*
D03*
X-70950Y-72236D02*
D03*
X71700Y-72264D02*
D03*
D22*
X35779Y-154409D02*
G03*
X34399Y-164696I37647J-10287D01*
G01*
X-95500Y-217250D02*
G03*
X-77997Y-224500I17503J17503D01*
G01*
X-105000Y-197229D02*
G03*
X-97561Y-215189I25400J0D01*
G01*
X-93409Y-151541D02*
G03*
X-105000Y-146750I-11591J-11626D01*
G01*
X-82500Y-174100D02*
G03*
X-89414Y-155536I-23828J1695D01*
G01*
X83750Y-169600D02*
G03*
X89151Y-182651I18469J-0D01*
G01*
X91146Y-184646D02*
G03*
X106500Y-191000I15354J15373D01*
G01*
X99000Y-127979D02*
G03*
X106440Y-145940I25400J0D01*
G01*
X99000Y-36339D02*
G03*
X93811Y-23811I-17718J-0D01*
G01*
X62521Y-109250D02*
G03*
X41581Y-117920I0J-29625D01*
G01*
X29250Y-130250D02*
G03*
X17000Y-159848I29632J-29598D01*
G01*
X4649Y-197101D02*
G03*
X17000Y-167269I-29825J29821D01*
G01*
X4644Y-197106D02*
G03*
X4649Y-197101I-29820J29826D01*
G01*
X-35206Y-224500D02*
G03*
X-13948Y-215698I11J30046D01*
G01*
X-75061Y-76346D02*
G03*
X-82500Y-94307I17960J-17960D01*
G01*
X-27750Y-187718D02*
G03*
X-32500Y-176250I-16218J0D01*
G01*
X-37850Y-163334D02*
G03*
X-32500Y-176250I18266J0D01*
G01*
X71700Y-72264D02*
G03*
X78125Y-87775I21935J0D01*
G01*
X34399Y-164696D02*
X34399Y-164710D01*
X35779Y-154409D02*
X38350Y-145000D01*
X34399Y-164710D02*
X34399Y-210641D01*
X35050Y-215986D01*
X-77997Y-224500D02*
X-35206D01*
X-97561Y-215189D02*
X-95500Y-217250D01*
X-105000Y-197229D02*
Y-191750D01*
X-170000D02*
X-105000D01*
X-93409Y-151541D02*
X-89414Y-155536D01*
X-170000Y-146750D02*
X-105000D01*
X89151Y-182651D02*
X91146Y-184646D01*
X106500Y-191000D02*
X171500D01*
X99000Y-109250D02*
Y-36339D01*
X62521Y-109250D02*
X99000D01*
Y-127979D02*
Y-109250D01*
X106440Y-145940D02*
X106500Y-146000D01*
X171500D01*
X84750Y-14750D02*
X93811Y-23811D01*
X17000Y-159848D02*
X17000Y-159862D01*
X-13948Y-215698D02*
X4644Y-197106D01*
X-75061Y-76346D02*
X-70950Y-72236D01*
X-82500Y-97900D02*
Y-94307D01*
X29250Y-130250D02*
X41581Y-117920D01*
X17000Y-167269D02*
Y-159862D01*
X-27750Y-207250D02*
Y-187718D01*
X-37850Y-163334D02*
Y-145000D01*
X78125Y-87775D02*
X83750Y-93400D01*
X84750Y-14750D02*
Y87250D01*
D23*
D03*
Y-14750D02*
D03*
X-67250Y36250D02*
D03*
D24*
X-105000Y-191750D02*
D03*
X106500Y-146000D02*
D03*
D25*
X-170000Y-191750D02*
D03*
X-105000Y-146750D02*
D03*
X-170000D02*
D03*
X171500Y-146000D02*
D03*
X106500Y-191000D02*
D03*
X171500D02*
D03*
D26*
X-27750Y-207250D02*
D03*
X-53150D02*
D03*
D27*
X-37850Y-145000D02*
D03*
X38350D02*
D03*
X-82500Y-174100D02*
D03*
Y-97900D02*
D03*
X83750Y-169600D02*
D03*
Y-93400D02*
D03*
M02*
