G04*
G04 #@! TF.GenerationSoftware,Altium Limited,Altium Designer,24.6.1 (21)*
G04*
G04 Layer_Color=16711935*
%FSLAX44Y44*%
%MOMM*%
G71*
G04*
G04 #@! TF.SameCoordinates,6B41C1FE-43CF-4F28-8872-C2DD71ED003A*
G04*
G04*
G04 #@! TF.FilePolarity,Negative*
G04*
G01*
G75*
%ADD14C,2.2032*%
%ADD15C,1.8032*%
%ADD16R,1.8032X1.8032*%
%ADD17C,1.4032*%
%ADD18C,1.4500*%
%ADD19R,1.4500X1.4500*%
%ADD20C,1.6412*%
%ADD21C,0.2032*%
D14*
X-27750Y-207250D02*
D03*
X-53150D02*
D03*
D15*
X-170000Y-146750D02*
D03*
X-105000D02*
D03*
X-170000Y-191750D02*
D03*
X171500Y-191000D02*
D03*
X106500D02*
D03*
X171500Y-146000D02*
D03*
D16*
X-105000Y-191750D02*
D03*
X106500Y-146000D02*
D03*
D17*
X-37850Y-145000D02*
D03*
X38350D02*
D03*
X-82500Y-174100D02*
D03*
Y-97900D02*
D03*
X83750Y-169600D02*
D03*
Y-93400D02*
D03*
D18*
X60450Y-215986D02*
D03*
X-45550Y-72236D02*
D03*
X46300Y-72264D02*
D03*
D19*
X35050Y-215986D02*
D03*
X-70950Y-72236D02*
D03*
X71700Y-72264D02*
D03*
D20*
X-67250Y36250D02*
D03*
X84750Y-14750D02*
D03*
Y87250D02*
D03*
D21*
X110750Y30500D02*
D03*
M02*
