M48
;Layer_Color=9474304
;FILE_FORMAT=4:4
METRIC,LZ
;TYPE=PLATED
T01F00S00C0.8000
T02F00S00C0.9000
T03F00S00C0.9300
T04F00S00C1.0000
;TYPE=NON_PLATED
T05F00S00C3.5000
%
T01
X-000825Y-001741
X-0003785Y-00145
X0003835
X0008375Y-001696
Y-000934
X-000825Y-000979
T02
X0003505Y-00215986
X0006045
X000717Y-00072264
X000463
X-0004555Y-00072236
X-0007095
T03
X-0006725Y0003625
X0008475Y0008725
Y-0001475
T04
X-0005315Y-0020725
X-0002775
X00107Y-0019025
Y-0014525
X00172
Y-0019025
X-001055Y-00192
Y-00147
X-001705
Y-00192
T05
X0011075Y000305
M30
