G04*
G04 #@! TF.GenerationSoftware,Altium Limited,Altium Designer,24.6.1 (21)*
G04*
G04 Layer_Physical_Order=1*
G04 Layer_Color=255*
%FSLAX44Y44*%
%MOMM*%
G71*
G04*
G04 #@! TF.SameCoordinates,B658D58B-2674-4CD7-91C6-D5A2D1930BC1*
G04*
G04*
G04 #@! TF.FilePolarity,Positive*
G04*
G01*
G75*
%ADD15R,1.4500X1.4500*%
%ADD16C,1.4500*%
%ADD22C,0.3810*%
%ADD23C,1.4380*%
%ADD24C,1.2000*%
%ADD25C,1.6000*%
%ADD26R,1.6000X1.6000*%
%ADD27C,2.0000*%
G36*
X8031Y144214D02*
X13903Y143813D01*
X19957Y143120D01*
X25811Y142190D01*
X31592Y141077D01*
X39688Y139108D01*
X46618Y136992D01*
X54222Y134239D01*
X55426Y133728D01*
X60258Y131741D01*
X65091Y129388D01*
X68538Y127619D01*
X72185Y125650D01*
X78567Y121893D01*
X84168Y118128D01*
X89000Y114750D01*
X92250Y112500D01*
X95250Y110000D01*
X97569Y107779D01*
X102821Y102818D01*
X108802Y96728D01*
X111319Y93883D01*
X115148Y89360D01*
X118650Y84801D01*
X123172Y78309D01*
X125616Y74407D01*
X127695Y71052D01*
X130795Y65289D01*
X133348Y60146D01*
X134114Y58615D01*
X136521Y52779D01*
X139366Y45120D01*
X140897Y40160D01*
X141791Y37115D01*
X142721Y33413D01*
X143815Y28489D01*
X144654Y24222D01*
X145493Y18860D01*
X146186Y13937D01*
X146532Y7718D01*
X146824Y-196D01*
X146623Y-7217D01*
X146313Y-13362D01*
X146040Y-16845D01*
X145529Y-20128D01*
X145128Y-23957D01*
X144235Y-29155D01*
X143523Y-32783D01*
X142502Y-37525D01*
X141335Y-42011D01*
X140296Y-45749D01*
X139110Y-49743D01*
X137578Y-54375D01*
X136193Y-58423D01*
X134788Y-61906D01*
X134515Y-62544D01*
X132764Y-66811D01*
X130722Y-71480D01*
X129044Y-74762D01*
X127385Y-78136D01*
X125871Y-80999D01*
X124303Y-83880D01*
X121805Y-88020D01*
X119343Y-91977D01*
X116279Y-96426D01*
X114018Y-99709D01*
X111246Y-103429D01*
X108985Y-106274D01*
X107891Y-107769D01*
Y-109848D01*
X108693Y-111891D01*
X109896Y-114772D01*
X111884Y-117890D01*
X113580Y-120060D01*
X115440Y-121920D01*
X118650Y-124400D01*
X122461Y-126534D01*
X127038Y-128339D01*
X132910Y-129616D01*
X137141Y-130126D01*
X142502Y-130054D01*
X147500Y-129500D01*
X151620Y-128412D01*
X157310Y-126370D01*
X160300Y-124838D01*
X163619Y-122759D01*
X167066Y-120042D01*
X170075Y-117398D01*
X173941Y-114261D01*
X177333Y-111890D01*
X180779Y-110049D01*
X184025Y-108845D01*
X187946Y-108243D01*
X190645Y-108353D01*
X192286Y-108754D01*
X194110Y-109520D01*
X196043Y-110979D01*
X197830Y-113422D01*
X198705Y-115720D01*
X199289Y-119331D01*
X199252Y-121556D01*
X198887Y-125932D01*
X197684Y-131221D01*
X196116Y-136728D01*
X194474Y-141360D01*
X192468Y-146210D01*
X191192Y-148946D01*
X190171Y-151280D01*
X188347Y-154927D01*
X187472Y-156532D01*
X187326Y-157043D01*
X188092Y-157298D01*
X191812Y-154599D01*
X191885Y-154560D01*
X195423Y-152666D01*
X199945Y-151243D01*
X201915Y-151061D01*
X204249Y-151134D01*
X205543Y-151298D01*
X207239Y-151863D01*
X208607Y-152429D01*
X209756Y-153213D01*
X211543Y-155219D01*
X213038Y-158757D01*
X213622Y-162915D01*
X213385Y-166580D01*
X212601Y-171558D01*
X211762Y-175096D01*
X210230Y-179947D01*
X209318Y-182536D01*
X208279Y-185399D01*
X206692Y-189065D01*
X204905Y-193113D01*
X203118Y-196687D01*
X200966Y-200626D01*
X197830Y-205623D01*
X195751Y-208577D01*
X193654Y-211367D01*
X191630Y-213865D01*
X188493Y-217294D01*
X185721Y-220138D01*
X183351Y-222436D01*
X179922Y-225390D01*
X176056Y-228454D01*
X172409Y-230971D01*
X169054Y-233159D01*
X164385Y-235712D01*
X158367Y-238302D01*
X153644Y-239925D01*
X148812Y-241292D01*
X144946Y-242094D01*
X139329Y-243043D01*
X132144Y-243809D01*
X127731Y-244173D01*
X124376Y-244283D01*
X120054Y-244301D01*
X115732Y-244319D01*
X114054Y-244210D01*
X110480Y-243955D01*
X108292Y-244137D01*
X105520Y-244575D01*
X102785Y-245085D01*
X99575Y-245377D01*
X96329Y-245632D01*
X93229Y-245888D01*
X89600Y-245979D01*
X86226Y-245888D01*
X81412Y-245486D01*
X77200Y-245213D01*
X76488Y-245195D01*
X73954Y-245541D01*
X70288Y-245888D01*
X67225Y-245997D01*
X61681Y-245924D01*
X57705Y-245523D01*
X52672Y-245085D01*
X47566Y-244210D01*
X42278Y-242970D01*
X38558Y-241912D01*
X33853Y-240417D01*
X28017Y-238046D01*
X23057Y-235676D01*
X21161Y-234581D01*
X18754Y-233268D01*
X16055Y-231554D01*
X13356Y-229767D01*
X11058Y-228053D01*
X7849Y-225573D01*
X4420Y-222582D01*
X2068Y-220449D01*
X554Y-218899D01*
X-339Y-218187D01*
X-1743Y-219263D01*
X-4242Y-221652D01*
X-7105Y-224260D01*
X-9913Y-226558D01*
X-13560Y-229329D01*
X-16515Y-231408D01*
X-19761Y-233378D01*
X-23262Y-235347D01*
X-25997Y-236806D01*
X-30848Y-238922D01*
X-34969Y-240526D01*
X-37522Y-241402D01*
X-41352Y-242532D01*
X-45254Y-243480D01*
X-50068Y-244465D01*
X-53533Y-245085D01*
X-57472Y-245450D01*
X-62870Y-245888D01*
X-67721Y-245961D01*
X-73502Y-245651D01*
X-78954Y-245195D01*
X-82784Y-245486D01*
X-86577Y-245815D01*
X-94527Y-245888D01*
X-100144Y-245450D01*
X-105724Y-244830D01*
X-110320Y-244028D01*
X-111779Y-243955D01*
X-115098Y-244210D01*
X-121790Y-244301D01*
X-126003Y-244319D01*
X-128045Y-244210D01*
X-132969Y-243882D01*
X-138221Y-243407D01*
X-146719Y-242058D01*
X-154049Y-240271D01*
X-161562Y-237718D01*
X-165775Y-235840D01*
X-171227Y-232721D01*
X-174948Y-230387D01*
X-179580Y-226959D01*
X-182898Y-224260D01*
X-185342Y-222035D01*
X-187476Y-219974D01*
X-190813Y-216491D01*
X-193329Y-213683D01*
X-195408Y-211130D01*
X-197742Y-208030D01*
X-199858Y-204966D01*
X-202119Y-201319D01*
X-204891Y-196286D01*
X-206423Y-193150D01*
X-208082Y-189521D01*
X-209851Y-185417D01*
X-210872Y-182536D01*
X-212605Y-177631D01*
X-213097Y-175753D01*
X-213535Y-174294D01*
X-214228Y-171339D01*
X-214592Y-169224D01*
X-214811Y-167255D01*
X-215103Y-165431D01*
X-215139Y-162841D01*
X-214975Y-160854D01*
X-214592Y-158720D01*
X-213881Y-156623D01*
X-212659Y-154672D01*
X-210690Y-152848D01*
X-209176Y-151991D01*
X-206714Y-151243D01*
X-204563Y-151061D01*
X-202557Y-151134D01*
X-199639Y-151718D01*
X-196320Y-152994D01*
X-193566Y-154471D01*
X-193465Y-154541D01*
X-193465Y-154541D01*
X-190922Y-156277D01*
X-189700Y-157280D01*
X-188916Y-157334D01*
X-189609Y-155620D01*
X-190667Y-153432D01*
X-191121Y-152508D01*
X-191761Y-151207D01*
X-192746Y-149019D01*
X-194515Y-145025D01*
X-196065Y-141287D01*
X-196466Y-139937D01*
X-197888Y-136217D01*
X-198691Y-133591D01*
X-199566Y-130126D01*
X-199967Y-128266D01*
X-200405Y-126151D01*
X-200733Y-124218D01*
X-200879Y-122103D01*
X-200842Y-120060D01*
X-200806Y-118018D01*
X-200549Y-116562D01*
X-200336Y-115820D01*
X-200160Y-115219D01*
X-199947Y-114494D01*
X-199665Y-113910D01*
X-199346Y-113274D01*
X-199028Y-112814D01*
X-198639Y-112072D01*
X-198232Y-111612D01*
X-197437Y-110745D01*
X-196624Y-110109D01*
X-195899Y-109614D01*
X-194873Y-109119D01*
X-193742Y-108695D01*
X-192946Y-108429D01*
X-192115Y-108235D01*
X-191355Y-108182D01*
X-190223Y-108146D01*
X-189145Y-108182D01*
X-187801Y-108288D01*
X-186493Y-108500D01*
X-185061Y-108942D01*
X-183717Y-109419D01*
X-182426Y-109985D01*
X-181171Y-110586D01*
X-179470Y-111562D01*
X-176151Y-113823D01*
X-173197Y-116158D01*
X-169841Y-119003D01*
X-166158Y-122030D01*
X-164006Y-123598D01*
X-159939Y-125768D01*
X-156493Y-127318D01*
X-151825Y-128741D01*
X-147047Y-129689D01*
X-142123Y-130163D01*
X-137455Y-130090D01*
X-134500Y-129616D01*
X-131692Y-129215D01*
X-128154Y-128230D01*
X-123340Y-126187D01*
X-119584Y-123890D01*
X-117578Y-122394D01*
X-115973Y-120935D01*
X-113639Y-118164D01*
X-112180Y-115975D01*
X-110684Y-113021D01*
X-109517Y-110176D01*
X-109298Y-107696D01*
X-109262Y-106566D01*
X-110283Y-104888D01*
X-112544Y-101897D01*
X-115717Y-97557D01*
X-117750Y-94500D01*
X-119401Y-92123D01*
X-122136Y-87746D01*
X-124507Y-83588D01*
X-126477Y-80233D01*
X-128556Y-76258D01*
X-131109Y-71006D01*
X-133023Y-66757D01*
X-135048Y-61851D01*
X-136415Y-58149D01*
X-137819Y-54338D01*
X-139442Y-49542D01*
X-140810Y-44673D01*
X-141795Y-40953D01*
X-142707Y-37160D01*
X-143728Y-32783D01*
X-144311Y-29355D01*
X-145132Y-24705D01*
X-145916Y-18924D01*
X-146481Y-12961D01*
X-146864Y-7034D01*
X-146937Y-3168D01*
X-146901Y3433D01*
X-146719Y8721D01*
X-146190Y13846D01*
X-145351Y20593D01*
X-144348Y26483D01*
X-143618Y30276D01*
X-142688Y34051D01*
X-141649Y37789D01*
X-140810Y40890D01*
X-139679Y44500D01*
X-138075Y49096D01*
X-136579Y53035D01*
X-135011Y56828D01*
X-133771Y59454D01*
X-132130Y62991D01*
X-130543Y65964D01*
X-128957Y68863D01*
X-126841Y72620D01*
X-123997Y77215D01*
X-121444Y80899D01*
X-118818Y84619D01*
X-115608Y88923D01*
X-113639Y91330D01*
X-111377Y93883D01*
X-108168Y97530D01*
X-105633Y100211D01*
X-102515Y103256D01*
X-100509Y105116D01*
X-96789Y108471D01*
X-94345Y110550D01*
X-92376Y112155D01*
X-90698Y113541D01*
X-88947Y114781D01*
X-87197Y116167D01*
X-85008Y117626D01*
X-82893Y119158D01*
X-80632Y120689D01*
X-78772Y121857D01*
X-76474Y123243D01*
X-74833Y124227D01*
X-72535Y125577D01*
X-70566Y126598D01*
X-69325Y127327D01*
X-67867Y128130D01*
X-66335Y128932D01*
X-63545Y130190D01*
X-60718Y131558D01*
X-55758Y133673D01*
X-53643Y134549D01*
X-50926Y135552D01*
X-48373Y136427D01*
X-46531Y137065D01*
X-44415Y137649D01*
X-40458Y138907D01*
X-37559Y139691D01*
X-35334Y140238D01*
X-30337Y141296D01*
X-25888Y142171D01*
X-22386Y142828D01*
X-17007Y143539D01*
X-10989Y144013D01*
X-5026Y144433D01*
X2451Y144542D01*
X8031Y144214D01*
D02*
G37*
%LPC*%
G36*
X-65974Y45940D02*
X-68526D01*
X-70990Y45280D01*
X-73200Y44004D01*
X-73218Y43986D01*
X-71183Y41951D01*
X-72951Y40183D01*
X-74986Y42218D01*
X-75004Y42200D01*
X-76280Y39990D01*
X-76940Y37526D01*
Y34974D01*
X-76280Y32510D01*
X-75004Y30300D01*
X-74986Y30282D01*
X-72951Y32317D01*
X-71183Y30549D01*
X-73218Y28514D01*
X-73200Y28496D01*
X-70990Y27220D01*
X-68526Y26560D01*
X-65974D01*
X-63510Y27220D01*
X-61300Y28496D01*
X-61282Y28514D01*
X-63317Y30549D01*
X-61549Y32317D01*
X-59514Y30282D01*
X-59496Y30300D01*
X-58220Y32510D01*
X-57560Y34974D01*
Y37526D01*
X-58220Y39990D01*
X-59496Y42200D01*
X-59514Y42218D01*
X-61549Y40183D01*
X-63317Y41951D01*
X-61282Y43986D01*
X-61300Y44004D01*
X-63510Y45280D01*
X-65974Y45940D01*
D02*
G37*
G36*
X86026Y96940D02*
X83474D01*
X81010Y96280D01*
X78800Y95004D01*
X76996Y93200D01*
X75720Y90990D01*
X75060Y88526D01*
Y85974D01*
X75720Y83510D01*
X76996Y81300D01*
X78800Y79496D01*
X80259Y78654D01*
Y-6154D01*
X78800Y-6996D01*
X76996Y-8800D01*
X75720Y-11010D01*
X75060Y-13474D01*
Y-16026D01*
X75720Y-18490D01*
X76996Y-20700D01*
X78800Y-22504D01*
X81010Y-23780D01*
X83474Y-24440D01*
X86026D01*
X87653Y-24004D01*
X90634Y-26986D01*
X90635Y-26986D01*
X90635D01*
X92451Y-29234D01*
X92800Y-29689D01*
X94129Y-32897D01*
X94553Y-36118D01*
X94509Y-36339D01*
Y-88205D01*
X94121Y-88444D01*
X90552Y-88181D01*
X88969Y-86598D01*
X87031Y-85479D01*
X84869Y-84900D01*
X82631D01*
X81456Y-82109D01*
X81450Y-82014D01*
X81450D01*
Y-62514D01*
X61950D01*
Y-82014D01*
X69163D01*
X70093Y-84259D01*
X72260Y-87794D01*
X74926Y-90916D01*
X74949Y-90950D01*
X75468Y-91469D01*
X75250Y-92281D01*
Y-94519D01*
X75829Y-96681D01*
X76948Y-98619D01*
X78531Y-100202D01*
X80469Y-101321D01*
X82104Y-101759D01*
X81709Y-104759D01*
X62521D01*
Y-104740D01*
X57181Y-105160D01*
X51973Y-106411D01*
X47024Y-108460D01*
X42457Y-111259D01*
X38393Y-114730D01*
X38393Y-114730D01*
X36285Y-116863D01*
X26074Y-127074D01*
X26071Y-127074D01*
X26064Y-127068D01*
X22081Y-131610D01*
X18710Y-136655D01*
X16027Y-142097D01*
X14076Y-147843D01*
X12893Y-153794D01*
X12496Y-159848D01*
X12496Y-159848D01*
X12496Y-159848D01*
X12509Y-162621D01*
Y-167269D01*
X12564Y-167545D01*
X12119Y-173187D01*
X10736Y-178949D01*
X8469Y-184423D01*
X5373Y-189475D01*
X1704Y-193771D01*
X1473Y-193925D01*
X1471Y-193929D01*
X1468Y-193930D01*
X-12250Y-207648D01*
X-15250Y-206406D01*
Y-205604D01*
X-16102Y-202425D01*
X-17747Y-199575D01*
X-20075Y-197248D01*
X-22925Y-195602D01*
X-23259Y-195513D01*
Y-187718D01*
X-23245D01*
X-23643Y-183675D01*
X-24823Y-179787D01*
X-26737Y-176205D01*
X-29315Y-173065D01*
X-29315Y-173065D01*
X-31148Y-170824D01*
X-31581Y-170260D01*
X-32964Y-166919D01*
X-33405Y-163569D01*
X-33359Y-163334D01*
Y-152222D01*
X-32631Y-151802D01*
X-31048Y-150219D01*
X-29929Y-148281D01*
X-29350Y-146119D01*
Y-143881D01*
X-29929Y-141719D01*
X-31048Y-139781D01*
X-32631Y-138198D01*
X-34569Y-137079D01*
X-36731Y-136500D01*
X-38969D01*
X-41131Y-137079D01*
X-43069Y-138198D01*
X-44652Y-139781D01*
X-45771Y-141719D01*
X-46350Y-143881D01*
Y-146119D01*
X-45771Y-148281D01*
X-44652Y-150219D01*
X-43069Y-151802D01*
X-42341Y-152222D01*
Y-163334D01*
X-42365D01*
X-41927Y-167778D01*
X-40631Y-172052D01*
X-38525Y-175990D01*
X-35692Y-179442D01*
X-35692Y-179442D01*
X-33866Y-181686D01*
X-33760Y-181824D01*
X-32583Y-184667D01*
X-32205Y-187536D01*
X-32241Y-187718D01*
Y-195513D01*
X-32575Y-195602D01*
X-35425Y-197248D01*
X-37752Y-199575D01*
X-38801Y-201392D01*
X-38952Y-201449D01*
X-41948D01*
X-42099Y-201392D01*
X-43148Y-199575D01*
X-43427Y-199295D01*
X-45440Y-201308D01*
X-47208Y-199540D01*
X-45195Y-197527D01*
X-45475Y-197248D01*
X-48325Y-195602D01*
X-51504Y-194750D01*
X-54796D01*
X-57975Y-195602D01*
X-60825Y-197248D01*
X-61105Y-197527D01*
X-59092Y-199540D01*
X-60860Y-201308D01*
X-62873Y-199295D01*
X-63152Y-199575D01*
X-64798Y-202425D01*
X-65650Y-205604D01*
Y-208896D01*
X-64798Y-212075D01*
X-63152Y-214925D01*
X-62873Y-215205D01*
X-60860Y-213192D01*
X-59092Y-214960D01*
X-61105Y-216973D01*
X-61069Y-217009D01*
X-61192Y-218076D01*
X-62051Y-220009D01*
X-104694D01*
X-104698Y-220009D01*
X-104702Y-220009D01*
X-104716Y-220009D01*
X-105021Y-220070D01*
X-113213Y-219610D01*
X-121611Y-218183D01*
X-129796Y-215825D01*
X-137667Y-212565D01*
X-145122Y-208444D01*
X-152070Y-203515D01*
X-158143Y-198087D01*
X-158308Y-197840D01*
X-160585Y-195564D01*
X-160000Y-193382D01*
Y-190618D01*
X-160716Y-187947D01*
X-162098Y-185553D01*
X-164053Y-183598D01*
X-166009Y-182469D01*
Y-157500D01*
X-160000D01*
Y-136500D01*
X-181000D01*
Y-157500D01*
X-174991D01*
Y-182469D01*
X-176947Y-183598D01*
X-178902Y-185553D01*
X-180284Y-187947D01*
X-181000Y-190618D01*
Y-193382D01*
X-180284Y-196053D01*
X-178902Y-198447D01*
X-176947Y-200402D01*
X-174553Y-201784D01*
X-171882Y-202500D01*
X-169118D01*
X-166936Y-201915D01*
X-164660Y-204192D01*
X-164660Y-204192D01*
X-164664Y-204204D01*
X-158556Y-209740D01*
X-151866Y-214702D01*
X-144721Y-218984D01*
X-137191Y-222546D01*
X-129348Y-225352D01*
X-121267Y-227376D01*
X-113027Y-228598D01*
X-104707Y-229007D01*
Y-229007D01*
X-104699Y-228991D01*
X-104685Y-228991D01*
X-35227D01*
X-35208Y-229011D01*
Y-229011D01*
X-35196Y-229012D01*
X-32294Y-228783D01*
X-29790Y-228586D01*
X-24517Y-227320D01*
X-19507Y-225245D01*
X-14883Y-222412D01*
X-12980Y-220786D01*
X-10760Y-218890D01*
X-10758Y-218888D01*
X-10772Y-218874D01*
X7819Y-200283D01*
X7829Y-200292D01*
X7832Y-200289D01*
X7834Y-200287D01*
X9694Y-198165D01*
X9763Y-198087D01*
X9764Y-198086D01*
X11859Y-195698D01*
X15251Y-190621D01*
X17952Y-185144D01*
X19914Y-179362D01*
X21106Y-173373D01*
X21314Y-170194D01*
X21505Y-167280D01*
X21504Y-167267D01*
X21504D01*
X21491Y-167255D01*
Y-159862D01*
X21490Y-159858D01*
X21491Y-159854D01*
X21491Y-159840D01*
X21438Y-159575D01*
X21878Y-153987D01*
X23250Y-148271D01*
X25500Y-142839D01*
X28572Y-137826D01*
X32203Y-133575D01*
X32426Y-133426D01*
X44756Y-121095D01*
X44908Y-120868D01*
X48513Y-117910D01*
X52872Y-115580D01*
X57602Y-114145D01*
X62250Y-113687D01*
X62521Y-113741D01*
X94923D01*
X94938Y-113900D01*
X96294Y-118371D01*
X98497Y-122491D01*
X101461Y-126103D01*
X101475Y-126114D01*
X101494Y-126095D01*
X107148Y-131750D01*
X105906Y-134750D01*
X105618D01*
X102947Y-135466D01*
X100553Y-136848D01*
X98598Y-138803D01*
X97216Y-141197D01*
X96824Y-142658D01*
X93725Y-143942D01*
X89813Y-146339D01*
X87490Y-148323D01*
X86326Y-149317D01*
X85315Y-150315D01*
X85315Y-150315D01*
X84345Y-151497D01*
X82738Y-153455D01*
X80823Y-157037D01*
X79643Y-160925D01*
X79515Y-162230D01*
X78531Y-162798D01*
X76948Y-164381D01*
X75829Y-166319D01*
X75250Y-168481D01*
Y-170719D01*
X75829Y-172881D01*
X76948Y-174819D01*
X78531Y-176402D01*
X80469Y-177521D01*
X80901Y-177637D01*
X82711Y-181022D01*
X85267Y-184137D01*
X85276Y-184128D01*
X85276Y-184128D01*
X88034Y-186885D01*
X88059Y-186902D01*
X91236Y-189616D01*
X94824Y-191815D01*
X96764Y-192618D01*
X97216Y-194303D01*
X98598Y-196697D01*
X100553Y-198652D01*
X102947Y-200034D01*
X105618Y-200750D01*
X108382D01*
X111053Y-200034D01*
X113447Y-198652D01*
X115402Y-196697D01*
X116784Y-194303D01*
X117500Y-191632D01*
Y-188868D01*
X116784Y-186197D01*
X115402Y-183803D01*
X113447Y-181848D01*
X111053Y-180466D01*
X108382Y-179750D01*
X105618D01*
X102947Y-180466D01*
X100553Y-181848D01*
X98723Y-183677D01*
X97063Y-182790D01*
X94472Y-180663D01*
X94385Y-180534D01*
X91640Y-177788D01*
X91620Y-177762D01*
X90124Y-175246D01*
X90552Y-174819D01*
X91671Y-172881D01*
X92250Y-170719D01*
Y-168481D01*
X91671Y-166319D01*
X90552Y-164381D01*
X88969Y-162798D01*
X88502Y-162529D01*
X88583Y-161917D01*
X89760Y-159074D01*
X91522Y-156779D01*
X91676Y-156676D01*
X92680Y-155672D01*
X92788Y-155510D01*
X95716Y-153107D01*
X98540Y-151597D01*
X98598Y-151697D01*
X100553Y-153652D01*
X102947Y-155034D01*
X105618Y-155750D01*
X108382D01*
X111053Y-155034D01*
X113447Y-153652D01*
X115402Y-151697D01*
X116784Y-149303D01*
X117500Y-146632D01*
Y-145793D01*
X117909Y-145335D01*
X120500Y-144168D01*
X123843Y-146216D01*
X128549Y-148166D01*
X133503Y-149355D01*
X138582Y-149755D01*
Y-149741D01*
X138582Y-149741D01*
X162469D01*
X163598Y-151697D01*
X165553Y-153652D01*
X167509Y-154781D01*
Y-179750D01*
X161500D01*
Y-200750D01*
X182500D01*
Y-179750D01*
X176491D01*
Y-154781D01*
X178447Y-153652D01*
X180402Y-151697D01*
X181784Y-149303D01*
X182500Y-146632D01*
Y-143868D01*
X181784Y-141197D01*
X180402Y-138803D01*
X178447Y-136848D01*
X176053Y-135466D01*
X173382Y-134750D01*
X170618D01*
X167947Y-135466D01*
X165553Y-136848D01*
X163598Y-138803D01*
X162469Y-140759D01*
X138582D01*
X138337Y-140807D01*
X133989Y-140379D01*
X129573Y-139039D01*
X125502Y-136864D01*
X122125Y-134092D01*
X121986Y-133885D01*
X107843Y-119741D01*
X107751Y-119680D01*
X105964Y-117502D01*
X104591Y-114934D01*
X103746Y-112148D01*
X103471Y-109354D01*
X103491Y-109250D01*
Y-36339D01*
X103512D01*
X103085Y-32002D01*
X101820Y-27832D01*
X99766Y-23989D01*
X97001Y-20620D01*
X96986Y-20635D01*
X94004Y-17652D01*
X94440Y-16026D01*
Y-13474D01*
X93780Y-11010D01*
X92504Y-8800D01*
X90700Y-6996D01*
X89241Y-6154D01*
Y14488D01*
X92241Y15562D01*
X93851Y13601D01*
X97472Y10629D01*
X101604Y8420D01*
X106088Y7060D01*
X110750Y6601D01*
X115413Y7060D01*
X119896Y8420D01*
X124028Y10629D01*
X127649Y13601D01*
X130621Y17222D01*
X132830Y21354D01*
X134190Y25838D01*
X134649Y30500D01*
X134190Y35162D01*
X132830Y39646D01*
X130621Y43778D01*
X127649Y47399D01*
X124028Y50371D01*
X119896Y52580D01*
X115413Y53940D01*
X110750Y54399D01*
X106088Y53940D01*
X101604Y52580D01*
X97472Y50371D01*
X93851Y47399D01*
X92241Y45438D01*
X89241Y46512D01*
Y78654D01*
X90700Y79496D01*
X92504Y81300D01*
X93780Y83510D01*
X94440Y85974D01*
Y88526D01*
X93780Y90990D01*
X92504Y93200D01*
X90700Y95004D01*
X88490Y96280D01*
X86026Y96940D01*
D02*
G37*
G36*
X-44266Y-62486D02*
X-46834D01*
X-49313Y-63150D01*
X-51537Y-64434D01*
X-51560Y-64458D01*
X-49526Y-66492D01*
X-51294Y-68260D01*
X-53328Y-66225D01*
X-53352Y-66249D01*
X-54636Y-68472D01*
X-55300Y-70952D01*
Y-73520D01*
X-54636Y-75999D01*
X-53352Y-78222D01*
X-53328Y-78246D01*
X-51294Y-76212D01*
X-49526Y-77980D01*
X-51560Y-80014D01*
X-51537Y-80038D01*
X-49313Y-81321D01*
X-46834Y-81986D01*
X-44266D01*
X-41787Y-81321D01*
X-39563Y-80038D01*
X-39540Y-80014D01*
X-41574Y-77980D01*
X-39806Y-76212D01*
X-37772Y-78246D01*
X-37748Y-78222D01*
X-36465Y-75999D01*
X-35800Y-73520D01*
Y-70952D01*
X-36465Y-68472D01*
X-37748Y-66249D01*
X-37772Y-66225D01*
X-39806Y-68260D01*
X-41574Y-66492D01*
X-39540Y-64458D01*
X-39563Y-64434D01*
X-41787Y-63150D01*
X-44266Y-62486D01*
D02*
G37*
G36*
X47584Y-62514D02*
X45016D01*
X42537Y-63179D01*
X40313Y-64462D01*
X40290Y-64486D01*
X42324Y-66520D01*
X40556Y-68288D01*
X38522Y-66254D01*
X38498Y-66277D01*
X37215Y-68501D01*
X36550Y-70981D01*
Y-73548D01*
X37215Y-76027D01*
X38498Y-78251D01*
X38522Y-78274D01*
X40556Y-76240D01*
X42324Y-78008D01*
X40290Y-80042D01*
X40313Y-80066D01*
X42537Y-81350D01*
X45016Y-82014D01*
X47584D01*
X50063Y-81350D01*
X52287Y-80066D01*
X52310Y-80042D01*
X50276Y-78008D01*
X52044Y-76240D01*
X54078Y-78274D01*
X54102Y-78251D01*
X55385Y-76027D01*
X56050Y-73548D01*
Y-70981D01*
X55385Y-68501D01*
X54102Y-66277D01*
X54078Y-66254D01*
X52044Y-68288D01*
X50276Y-66520D01*
X52310Y-64486D01*
X52287Y-64462D01*
X50063Y-63179D01*
X47584Y-62514D01*
D02*
G37*
G36*
X-61200Y-62486D02*
X-80700D01*
Y-76046D01*
X-81287Y-76734D01*
X-83738Y-80734D01*
X-85534Y-85068D01*
X-86629Y-89630D01*
X-86698Y-90509D01*
X-87719Y-91098D01*
X-89302Y-92681D01*
X-90421Y-94619D01*
X-91000Y-96781D01*
Y-99019D01*
X-90421Y-101181D01*
X-89302Y-103119D01*
X-87719Y-104702D01*
X-85781Y-105821D01*
X-83619Y-106400D01*
X-81381D01*
X-79219Y-105821D01*
X-77281Y-104702D01*
X-75698Y-103119D01*
X-74579Y-101181D01*
X-74000Y-99019D01*
Y-96781D01*
X-74579Y-94619D01*
X-75698Y-92681D01*
X-77281Y-91098D01*
X-77727Y-90840D01*
X-77666Y-90216D01*
X-76473Y-86282D01*
X-74535Y-82657D01*
X-73984Y-81986D01*
X-61200D01*
Y-62486D01*
D02*
G37*
G36*
X-104118Y-136500D02*
X-106882D01*
X-109553Y-137216D01*
X-111947Y-138598D01*
X-113902Y-140553D01*
X-115284Y-142947D01*
X-116000Y-145618D01*
Y-148382D01*
X-115284Y-151053D01*
X-113902Y-153447D01*
X-111947Y-155402D01*
X-109553Y-156784D01*
X-106882Y-157500D01*
X-104118D01*
X-101447Y-156784D01*
X-99053Y-155402D01*
X-98525Y-154875D01*
X-95446Y-155656D01*
X-93115Y-157986D01*
X-92943Y-158101D01*
X-90465Y-161121D01*
X-88527Y-164747D01*
X-87745Y-167324D01*
X-89302Y-168881D01*
X-90421Y-170819D01*
X-91000Y-172981D01*
Y-175219D01*
X-90421Y-177381D01*
X-89302Y-179319D01*
X-88413Y-180207D01*
X-88795Y-181129D01*
X-90878Y-183843D01*
X-91079Y-183977D01*
X-91676Y-184574D01*
X-91754Y-184691D01*
X-93502Y-186033D01*
X-96491Y-186605D01*
X-97098Y-185553D01*
X-99053Y-183598D01*
X-101447Y-182216D01*
X-104118Y-181500D01*
X-106882D01*
X-109553Y-182216D01*
X-111947Y-183598D01*
X-113902Y-185553D01*
X-115284Y-187947D01*
X-116000Y-190618D01*
Y-193382D01*
X-115284Y-196053D01*
X-113902Y-198447D01*
X-111947Y-200402D01*
X-109553Y-201784D01*
X-106882Y-202500D01*
X-104118D01*
X-101447Y-201784D01*
X-99053Y-200402D01*
X-97098Y-198447D01*
X-95804Y-196205D01*
X-95052Y-196131D01*
X-91487Y-195050D01*
X-88201Y-193293D01*
X-85321Y-190930D01*
Y-190930D01*
X-84709Y-190344D01*
X-84709Y-190344D01*
X-81858Y-186869D01*
X-79734Y-182896D01*
X-79490Y-182094D01*
X-79219Y-182021D01*
X-77281Y-180902D01*
X-75698Y-179319D01*
X-74579Y-177381D01*
X-74000Y-175219D01*
Y-172981D01*
X-74579Y-170819D01*
X-75698Y-168881D01*
X-77281Y-167298D01*
X-78768Y-166440D01*
X-79466Y-163532D01*
X-81261Y-159198D01*
X-83713Y-155198D01*
X-86760Y-151631D01*
X-86764Y-151635D01*
X-89094Y-149304D01*
X-89076Y-149286D01*
X-92596Y-146398D01*
X-95158Y-145028D01*
X-95716Y-142947D01*
X-97098Y-140553D01*
X-99053Y-138598D01*
X-101447Y-137216D01*
X-104118Y-136500D01*
D02*
G37*
G36*
X61734Y-206236D02*
X59166D01*
X56687Y-206900D01*
X54463Y-208184D01*
X54440Y-208208D01*
X56474Y-210242D01*
X54706Y-212010D01*
X52672Y-209975D01*
X52648Y-209999D01*
X51364Y-212222D01*
X50700Y-214702D01*
Y-217269D01*
X51364Y-219749D01*
X52648Y-221973D01*
X52672Y-221996D01*
X54706Y-219962D01*
X56474Y-221730D01*
X54440Y-223764D01*
X54463Y-223788D01*
X56687Y-225071D01*
X59166Y-225736D01*
X61734D01*
X64213Y-225071D01*
X66437Y-223788D01*
X66460Y-223764D01*
X64426Y-221730D01*
X66194Y-219962D01*
X68228Y-221996D01*
X68252Y-221973D01*
X69535Y-219749D01*
X70200Y-217269D01*
Y-214702D01*
X69535Y-212222D01*
X68252Y-209999D01*
X68228Y-209975D01*
X66194Y-212010D01*
X64426Y-210242D01*
X66460Y-208208D01*
X66437Y-208184D01*
X64213Y-206900D01*
X61734Y-206236D01*
D02*
G37*
G36*
X39469Y-136500D02*
X37231D01*
X35069Y-137079D01*
X33131Y-138198D01*
X31548Y-139781D01*
X30429Y-141719D01*
X29850Y-143881D01*
Y-146119D01*
X30429Y-148281D01*
X31548Y-150219D01*
X33131Y-151802D01*
X33859Y-152222D01*
Y-160536D01*
X33853Y-163534D01*
X33513Y-164532D01*
X31980Y-166876D01*
X31872Y-167133D01*
X31684Y-167377D01*
X30856Y-169376D01*
X30604Y-171291D01*
X30559Y-171520D01*
Y-206236D01*
X25300D01*
Y-225736D01*
X44800D01*
Y-206236D01*
X39541D01*
Y-171762D01*
X39577Y-171676D01*
X40991Y-169580D01*
X41093Y-169340D01*
X41399Y-168941D01*
X42479Y-166332D01*
X42847Y-163534D01*
X42841D01*
Y-152222D01*
X43569Y-151802D01*
X45152Y-150219D01*
X46271Y-148281D01*
X46850Y-146119D01*
Y-143881D01*
X46271Y-141719D01*
X45152Y-139781D01*
X43569Y-138198D01*
X41631Y-137079D01*
X39469Y-136500D01*
D02*
G37*
%LPD*%
D15*
X-70950Y-72236D02*
D03*
X71700Y-72264D02*
D03*
X35050Y-215986D02*
D03*
D16*
X-45550Y-72236D02*
D03*
X46300Y-72264D02*
D03*
X60450Y-215986D02*
D03*
D22*
X37269Y-167068D02*
G03*
X38350Y-163534I-5235J3534D01*
G01*
X35702Y-169389D02*
G03*
X35050Y-171520I3158J-2132D01*
G01*
X4649Y-197101D02*
G03*
X17000Y-167269I-29825J29821D01*
G01*
X4644Y-197106D02*
G03*
X4649Y-197101I-29820J29826D01*
G01*
X-35206Y-224500D02*
G03*
X-13948Y-215698I11J30046D01*
G01*
X-161484Y-201016D02*
G03*
X-104707Y-224500I56776J56892D01*
G01*
X29250Y-130250D02*
G03*
X17000Y-159848I29632J-29598D01*
G01*
X62521Y-109250D02*
G03*
X41581Y-117920I0J-29625D01*
G01*
X99000Y-109250D02*
G03*
X104667Y-122917I19314J-0D01*
G01*
X99000Y-36339D02*
G03*
X93811Y-23811I-17718J-0D01*
G01*
X107000Y-145250D02*
G03*
X89504Y-152496I0J-24746D01*
G01*
X88500Y-153500D02*
G03*
X83750Y-164967I11467J-11467D01*
G01*
Y-169600D02*
G03*
X88452Y-180952I16055J0D01*
G01*
X102562Y-188412D02*
G03*
X107000Y-190250I4438J4438D01*
G01*
X91209Y-183709D02*
G03*
X107000Y-190250I15791J15791D01*
G01*
X-75061Y-76346D02*
G03*
X-82500Y-94307I17960J-17960D01*
G01*
X-92270Y-152480D02*
G03*
X-105500Y-147000I-13230J-13230D01*
G01*
X-82500Y-172771D02*
G03*
X-89939Y-154810I-25400J0D01*
G01*
X-87903Y-187153D02*
G03*
X-82500Y-174100I-13066J13053D01*
G01*
X-98745Y-192000D02*
G03*
X-88500Y-187750I-15J14510D01*
G01*
X-27750Y-187718D02*
G03*
X-32500Y-176250I-16218J0D01*
G01*
X-37850Y-163334D02*
G03*
X-32500Y-176250I18266J0D01*
G01*
X71700Y-72264D02*
G03*
X78125Y-87775I21935J0D01*
G01*
X118811Y-137060D02*
G03*
X138582Y-145250I19771J19771D01*
G01*
X38350Y-163534D02*
Y-145000D01*
X35050Y-215986D02*
Y-171520D01*
X35702Y-169389D02*
X37269Y-167068D01*
X-13948Y-215698D02*
X4644Y-197106D01*
X-104694Y-224500D02*
X-35206D01*
X-170500Y-192000D02*
X-161484Y-201016D01*
X-104707Y-224500D02*
X-104694Y-224500D01*
X-170500Y-192000D02*
Y-147000D01*
X17000Y-159848D02*
X17000Y-159862D01*
X104669Y-122919D02*
X118811Y-137060D01*
X104667Y-122917D02*
X104669Y-122919D01*
X84750Y-14750D02*
X93811Y-23811D01*
X62521Y-109250D02*
X99000D01*
X99000D01*
Y-36339D01*
Y-36339D01*
X172000Y-190250D02*
Y-145250D01*
X88500Y-153500D02*
X89504Y-152496D01*
X83750Y-169600D02*
Y-164967D01*
X88452Y-180952D02*
X91209Y-183709D01*
X-75061Y-76346D02*
X-70950Y-72236D01*
X-82500Y-97900D02*
Y-94307D01*
X29250Y-130250D02*
X41581Y-117920D01*
X17000Y-167269D02*
Y-159862D01*
X-92270Y-152480D02*
X-89939Y-154810D01*
X-82500Y-174100D02*
Y-172771D01*
X-88500Y-187750D02*
X-87903Y-187153D01*
X-105500Y-192000D02*
X-98745Y-192000D01*
X-27750Y-207250D02*
Y-187718D01*
X-37850Y-163334D02*
Y-145000D01*
X78125Y-87775D02*
X83750Y-93400D01*
X138582Y-145250D02*
X172000D01*
X84750Y-14750D02*
Y87250D01*
D23*
D03*
Y-14750D02*
D03*
X-67250Y36250D02*
D03*
D24*
X83750Y-169600D02*
D03*
Y-93400D02*
D03*
X-37850Y-145000D02*
D03*
X38350D02*
D03*
X-82500Y-174100D02*
D03*
Y-97900D02*
D03*
D25*
X107000Y-145250D02*
D03*
X172000D02*
D03*
X107000Y-190250D02*
D03*
X-105500Y-192000D02*
D03*
X-170500D02*
D03*
X-105500Y-147000D02*
D03*
D26*
X172000Y-190250D02*
D03*
X-170500Y-147000D02*
D03*
D27*
X-53150Y-207250D02*
D03*
X-27750D02*
D03*
M02*
