G04*
G04 #@! TF.GenerationSoftware,Altium Limited,Altium Designer,24.6.1 (21)*
G04*
G04 Layer_Color=8388736*
%FSLAX44Y44*%
%MOMM*%
G71*
G04*
G04 #@! TF.SameCoordinates,16D329C9-FA2D-49B9-971B-98F2B154D278*
G04*
G04*
G04 #@! TF.FilePolarity,Negative*
G04*
G01*
G75*
%ADD11C,0.2540*%
%ADD14C,1.8000*%
%ADD15R,1.8032X1.8032*%
%ADD16C,1.8032*%
%ADD17C,1.6412*%
%ADD18C,2.2032*%
%ADD19C,1.4032*%
%ADD20C,1.4500*%
%ADD21R,1.4500X1.4500*%
G36*
X55557Y109356D02*
X55776Y109181D01*
X55820Y109006D01*
X55842Y108809D01*
X55798Y94750D01*
X55645Y94509D01*
X55448Y94443D01*
X55185Y94399D01*
X55054Y94443D01*
X50280Y94487D01*
X50214Y94552D01*
X50126Y94771D01*
X50148Y101976D01*
X50104Y102239D01*
X49973Y102458D01*
X49754Y102414D01*
X49645Y102173D01*
X49579Y101889D01*
X49491Y101670D01*
X49426Y101604D01*
X49294Y101297D01*
X49250Y101122D01*
X48812Y100203D01*
X48703Y99918D01*
X48418Y99370D01*
X48265Y98954D01*
X48024Y98494D01*
X47915Y98210D01*
X47718Y97837D01*
X47542Y97443D01*
X47455Y97224D01*
X47104Y96480D01*
X46995Y96195D01*
X46754Y95735D01*
X46666Y95516D01*
X46513Y95100D01*
X46316Y94771D01*
X46272Y94640D01*
X46250Y94618D01*
X46228Y94596D01*
X46075Y94443D01*
X39878Y94421D01*
X39724Y94487D01*
X39615Y94596D01*
X39571Y94771D01*
X39549Y109028D01*
X39593Y109203D01*
X39659Y109269D01*
X39702Y109356D01*
X39900Y109422D01*
X40732Y109378D01*
X44914Y109400D01*
X45068Y109334D01*
X45177Y109269D01*
X45221Y109181D01*
X45309Y108962D01*
X45265Y108524D01*
X45243Y101713D01*
X45265Y101692D01*
X45221Y101648D01*
X45265Y101516D01*
X45309Y101429D01*
X45506Y101407D01*
X45593Y101495D01*
X45681Y101538D01*
X45790Y101648D01*
X45878Y101867D01*
X45922Y102042D01*
X46031Y102327D01*
X46272Y102874D01*
X46316Y103049D01*
X46425Y103334D01*
X46666Y103838D01*
X46776Y104122D01*
X46863Y104341D01*
X46929Y104407D01*
X47061Y104714D01*
X47214Y105130D01*
X47302Y105349D01*
X47367Y105414D01*
X47499Y105721D01*
X47586Y105940D01*
X47696Y106225D01*
X47893Y106553D01*
X48134Y107232D01*
X48331Y107561D01*
X48418Y107780D01*
X48484Y108020D01*
X48572Y108239D01*
X48637Y108305D01*
X48681Y108393D01*
X48856Y108787D01*
X49032Y109094D01*
X49229Y109291D01*
X49316Y109334D01*
X49535Y109422D01*
X50630Y109378D01*
X50915Y109400D01*
X54922Y109378D01*
X55054Y109422D01*
X55557Y109356D01*
D02*
G37*
G36*
X37053Y109378D02*
X37228Y109334D01*
X37337Y109225D01*
X37381Y109050D01*
X37359Y108415D01*
X37381Y94684D01*
X37272Y94531D01*
X37053Y94443D01*
X36461Y94421D01*
X32366Y94443D01*
X32235Y94399D01*
X31906Y94465D01*
X31753Y94574D01*
X31687Y94640D01*
X31644Y94947D01*
X31665Y99217D01*
X31622Y99743D01*
X31512Y99896D01*
X31446Y99962D01*
X31271Y100005D01*
X30176Y99962D01*
X28184Y99984D01*
X28030Y99918D01*
X27877Y99764D01*
X27789Y99326D01*
X27833Y99195D01*
X27789Y94596D01*
X27680Y94487D01*
X27373Y94399D01*
X27198Y94443D01*
X22534Y94421D01*
X22315Y94509D01*
X22183Y94640D01*
X22139Y94815D01*
X22183Y109181D01*
X22380Y109378D01*
X22687Y109422D01*
X23125Y109378D01*
X27570Y109400D01*
X27724Y109291D01*
X27833Y109050D01*
X27877Y104451D01*
X27987Y104298D01*
X28162Y104254D01*
X28381Y104210D01*
X28512Y104254D01*
X29738Y104210D01*
X30921Y104254D01*
X31052Y104210D01*
X31446Y104254D01*
X31600Y104407D01*
X31644Y104582D01*
Y106641D01*
Y106685D01*
X31687Y109181D01*
X31841Y109334D01*
X32016Y109378D01*
X32322Y109422D01*
X32366Y109378D01*
X32410Y109422D01*
X32541Y109378D01*
X34797Y109400D01*
X36834Y109378D01*
X36921Y109422D01*
X37053Y109378D01*
D02*
G37*
G36*
X-24484Y109422D02*
X-23849Y109400D01*
X-12352Y109422D01*
X-12111Y109225D01*
X-12067Y109050D01*
X-12111Y106115D01*
X-12220Y106006D01*
X-12571Y105918D01*
X-13140Y105962D01*
X-18724Y105940D01*
X-19140Y105962D01*
X-19228Y105874D01*
X-19316Y105830D01*
X-19425Y105546D01*
X-19381Y104976D01*
X-19403Y103947D01*
X-19272Y103816D01*
X-19053Y103728D01*
X-13753D01*
X-12855Y103750D01*
X-12636Y103706D01*
X-12461Y103619D01*
X-12373Y103400D01*
X-12395Y103027D01*
X-12373Y101341D01*
X-12417Y101210D01*
X-12373Y100772D01*
X-12417Y100553D01*
X-12571Y100400D01*
X-12921Y100312D01*
X-13096Y100356D01*
X-18987Y100378D01*
X-19162Y100334D01*
X-19228Y100268D01*
X-19294Y100246D01*
X-19381Y100027D01*
X-19338Y98144D01*
X-19228Y97991D01*
X-18878Y97903D01*
X-18746Y97947D01*
X-12373Y97969D01*
X-12155Y97881D01*
X-12023Y97750D01*
X-11979Y97575D01*
X-12023Y96874D01*
X-12001Y95801D01*
X-12023Y95078D01*
X-11979Y94947D01*
X-12023Y94640D01*
X-12176Y94487D01*
X-12483Y94399D01*
X-12790Y94443D01*
X-25009Y94487D01*
X-25119Y94596D01*
X-25163Y94903D01*
X-25141Y95363D01*
X-25163Y109050D01*
X-24987Y109356D01*
X-24922Y109422D01*
X-24615Y109466D01*
X-24484Y109422D01*
D02*
G37*
G36*
X58251Y109378D02*
X72551Y109400D01*
X72726Y109356D01*
X72792Y109291D01*
X72880Y109247D01*
X72989Y109006D01*
X72945Y108042D01*
X72967Y105305D01*
X72858Y105152D01*
X72792Y105086D01*
X72442Y104998D01*
X71894Y105020D01*
X71697Y104998D01*
X71566Y105042D01*
X68763Y104998D01*
X68741Y105020D01*
X68281Y105042D01*
X68062Y104911D01*
X67952Y104801D01*
X67865Y104451D01*
X67909Y103487D01*
X67865Y94640D01*
X67711Y94487D01*
X67536Y94443D01*
X67273Y94399D01*
X67142Y94443D01*
X62565Y94421D01*
X62390Y94465D01*
X62215Y94640D01*
X62171Y94947D01*
X62215Y95253D01*
X62171Y104801D01*
X62062Y104955D01*
X61711Y105042D01*
X60967Y104998D01*
X60835Y105042D01*
X57397Y105020D01*
X57244Y105086D01*
X57178Y105152D01*
X57090Y105458D01*
X57134Y105633D01*
X57112Y109072D01*
X57266Y109312D01*
X57550Y109422D01*
X58251Y109378D01*
D02*
G37*
G36*
X-4512Y109641D02*
X-2191Y109597D01*
X-2059Y109553D01*
X-1731Y109488D01*
X-1358Y109378D01*
X-1008Y109291D01*
X-679Y109225D01*
X-504Y109181D01*
X-285Y109094D01*
X87Y108940D01*
X394Y108853D01*
X613Y108765D01*
X919Y108590D01*
X1226Y108371D01*
X1313Y108327D01*
X1423Y108217D01*
X1467Y108130D01*
X1817Y107780D01*
X1861Y107692D01*
X1948Y107604D01*
X1992Y107517D01*
X2255Y107035D01*
X2430Y106728D01*
X2518Y106422D01*
X2605Y105458D01*
X2562Y104582D01*
X2518Y104451D01*
X2452Y104166D01*
X2014Y103465D01*
X1773Y103225D01*
X1729Y103137D01*
X1642Y103049D01*
X1598Y102962D01*
X1532Y102896D01*
X1445Y102852D01*
X1226Y102633D01*
X1138Y102590D01*
X832Y102458D01*
X547Y102349D01*
X415Y102130D01*
X459Y101954D01*
X525Y101889D01*
X810Y101779D01*
X1051Y101670D01*
X1401Y101538D01*
X1642Y101341D01*
X1795Y101232D01*
X2036Y101035D01*
X2518Y100553D01*
X2562Y100465D01*
X2781Y100115D01*
X2824Y100027D01*
X2956Y99721D01*
X3000Y99414D01*
X3043Y98976D01*
X3087Y98407D01*
X3043Y98232D01*
X3000Y97750D01*
X2956Y97618D01*
X2846Y97334D01*
X2496Y96633D01*
X2430Y96567D01*
X2386Y96480D01*
X2255Y96348D01*
X2211Y96261D01*
X2080Y96129D01*
X2036Y96042D01*
X1927Y95932D01*
X1839Y95888D01*
X1620Y95669D01*
X1532Y95625D01*
X1357Y95450D01*
X700Y95100D01*
X306Y94925D01*
X131Y94881D01*
X-220Y94750D01*
X-526Y94618D01*
X-1139Y94531D01*
X-1314Y94487D01*
X-1599Y94421D01*
X-1774Y94377D01*
X-2037Y94333D01*
X-2607Y94290D01*
X-3132Y94202D01*
X-4052Y94158D01*
X-5213Y94136D01*
X-5344Y94180D01*
X-6614Y94224D01*
X-6745Y94268D01*
X-7315Y94312D01*
X-7446Y94355D01*
X-8191Y94443D01*
X-8366Y94487D01*
X-8782Y94552D01*
X-9483Y94640D01*
X-9658Y94684D01*
X-9899Y94793D01*
X-10293Y95012D01*
X-10359Y95078D01*
X-10403Y95253D01*
X-10359Y96217D01*
X-10381Y97728D01*
X-10359Y98100D01*
X-10403Y98232D01*
X-10359Y98538D01*
X-10293Y98604D01*
X-10118Y98648D01*
X-9877Y98582D01*
X-9658Y98494D01*
X-9286Y98385D01*
X-8913Y98319D01*
X-8475Y98232D01*
X-8125Y98144D01*
X-7753Y98034D01*
X-7578Y97991D01*
X-6964Y97903D01*
X-6110Y97837D01*
X-4862Y97816D01*
X-4731Y97859D01*
X-4118Y97903D01*
X-3986Y97947D01*
X-3329Y98297D01*
X-3242Y98385D01*
X-3154Y98429D01*
X-3088Y98494D01*
X-3045Y98582D01*
X-2957Y98801D01*
X-2913Y98976D01*
X-2957Y99721D01*
X-3154Y99962D01*
X-3504Y100312D01*
X-3723Y100400D01*
X-3899Y100443D01*
X-4227Y100509D01*
X-4577Y100597D01*
X-5169Y100662D01*
X-5651Y100706D01*
X-5782Y100662D01*
X-6242Y100640D01*
X-6921Y100662D01*
X-7008Y100618D01*
X-7140Y100662D01*
X-7534Y100618D01*
X-7818Y100772D01*
X-7906Y101078D01*
X-7884Y102108D01*
X-7906Y103225D01*
X-7753Y103509D01*
X-7446Y103597D01*
X-7227Y103553D01*
X-7096Y103597D01*
X-6395Y103553D01*
X-6264Y103597D01*
X-4731Y103553D01*
X-4599Y103597D01*
X-4227Y103663D01*
X-3789Y103750D01*
X-3570Y103838D01*
X-3417Y103947D01*
X-3264Y104101D01*
X-3220Y104188D01*
X-3154Y104254D01*
X-3088Y104276D01*
X-3045Y104363D01*
X-2957Y104582D01*
X-3001Y105196D01*
X-3088Y105283D01*
X-3132Y105371D01*
X-3504Y105743D01*
X-3592Y105787D01*
X-3811Y105874D01*
X-3986Y105918D01*
X-4665Y106028D01*
X-4840Y106072D01*
X-5059Y106115D01*
X-5410Y106159D01*
X-5694Y106181D01*
X-5826Y106137D01*
X-6592Y106072D01*
X-6855Y106028D01*
X-7205Y105984D01*
X-7687Y105940D01*
X-7950Y105896D01*
X-8125Y105852D01*
X-8563Y105765D01*
X-8738Y105721D01*
X-9023Y105611D01*
X-9330Y105524D01*
X-9680Y105436D01*
X-9899Y105480D01*
X-10008Y105590D01*
X-10052Y105721D01*
Y105765D01*
X-10008Y106466D01*
X-9965Y108918D01*
X-9811Y109115D01*
X-9505Y109203D01*
X-9330Y109247D01*
X-8673Y109291D01*
X-8541Y109334D01*
X-7818Y109488D01*
X-7227Y109553D01*
X-6658Y109597D01*
X-4665Y109663D01*
X-4643Y109685D01*
X-4512Y109641D01*
D02*
G37*
G36*
X-60880Y111481D02*
X-60792Y111393D01*
X-60705Y111349D01*
X-60464Y111108D01*
X-60420Y111021D01*
X-60311Y110911D01*
X-60223Y110867D01*
X-60026Y110670D01*
X-59982Y110583D01*
X-59916Y110517D01*
X-59829Y110473D01*
X-58997Y109641D01*
X-58909Y109597D01*
X-58800Y109488D01*
X-58756Y109400D01*
X-58690Y109334D01*
X-58602Y109291D01*
X-58384Y109072D01*
X-58362Y109050D01*
X-58121Y108809D01*
X-58033Y108765D01*
X-57727Y108458D01*
X-57639Y108415D01*
X-57573Y108349D01*
X-57530Y108261D01*
X-57245Y107977D01*
X-57157Y107933D01*
X-57004Y107780D01*
X-56960Y107692D01*
X-56697Y107429D01*
X-56653Y107342D01*
X-56544Y107232D01*
X-56456Y107188D01*
X-54748Y105480D01*
X-54661Y105436D01*
X-54551Y105283D01*
X-54245Y104976D01*
X-54157Y104626D01*
X-54201Y103969D01*
X-54157Y103838D01*
X-54201Y103531D01*
X-54267Y103422D01*
X-54354Y103378D01*
X-54573Y103290D01*
X-54967Y103334D01*
X-55208Y103487D01*
X-55252Y103663D01*
X-55208Y104232D01*
X-55383Y104538D01*
X-55580Y104779D01*
X-55668Y104911D01*
X-55756Y104955D01*
X-55931Y105130D01*
X-56018Y105174D01*
X-56128Y105283D01*
X-56172Y105371D01*
X-56785Y105984D01*
X-56829Y106072D01*
X-57026Y106269D01*
X-57113Y106312D01*
X-57573Y106772D01*
X-57617Y106860D01*
X-57814Y107057D01*
X-57902Y107101D01*
X-58011Y107210D01*
X-58055Y107298D01*
X-58252Y107495D01*
X-58340Y107539D01*
X-58515Y107714D01*
X-58602Y107758D01*
X-58712Y107867D01*
X-58756Y107955D01*
X-59479Y108677D01*
X-59566Y108721D01*
X-59654Y108809D01*
X-59873Y108940D01*
X-60026Y109094D01*
X-60070Y109181D01*
X-60135Y109247D01*
X-60223Y109291D01*
X-60420Y109444D01*
X-60464Y109531D01*
X-60573Y109641D01*
X-60661Y109685D01*
X-60858Y109882D01*
X-60902Y109970D01*
X-61099Y110167D01*
X-61187Y110210D01*
X-61340Y110364D01*
X-61384Y110451D01*
X-61603Y110670D01*
X-61646Y110845D01*
X-61603Y111064D01*
X-61406Y111305D01*
X-61187Y111524D01*
X-60880Y111481D01*
D02*
G37*
G36*
X-62763Y109422D02*
X-62501Y109159D01*
X-62413Y109115D01*
X-62106Y108809D01*
X-61887Y108677D01*
X-61822Y108612D01*
X-61778Y108524D01*
X-61252Y107999D01*
X-61209Y107911D01*
X-60705Y107407D01*
X-60639Y107385D01*
X-60617Y107320D01*
X-60552Y107298D01*
X-60508Y107210D01*
X-60442Y107144D01*
X-60354Y107101D01*
X-59873Y106619D01*
X-59785Y106575D01*
X-59676Y106422D01*
X-59435Y106181D01*
X-59347Y106137D01*
X-59303Y106049D01*
X-59281Y106028D01*
X-59172Y105918D01*
X-59084Y105874D01*
X-58887Y105677D01*
X-58843Y105590D01*
X-58646Y105393D01*
X-58559Y105349D01*
X-58405Y105196D01*
X-58362Y105108D01*
X-58208Y104998D01*
X-58099Y104933D01*
X-58055Y104845D01*
X-57967Y104757D01*
X-57924Y104670D01*
X-57617Y104451D01*
X-57573Y104363D01*
X-57091Y103882D01*
X-57048Y103794D01*
X-56916Y103663D01*
X-56960Y103443D01*
X-57026Y103378D01*
X-57332Y103334D01*
X-57508Y103290D01*
X-57814Y103334D01*
X-57989Y103378D01*
X-58296Y103553D01*
X-58602Y103860D01*
X-58690Y103903D01*
X-59435Y104648D01*
X-59522Y104692D01*
X-59632Y104801D01*
X-59676Y104889D01*
X-59873Y105086D01*
X-59960Y105130D01*
X-60070Y105239D01*
X-60114Y105327D01*
X-60420Y105546D01*
X-60464Y105633D01*
X-60552Y105721D01*
X-60595Y105809D01*
X-60661Y105874D01*
X-60749Y105918D01*
X-61187Y106356D01*
X-61252Y106378D01*
X-61296Y106466D01*
X-61384Y106553D01*
X-61427Y106641D01*
X-61581Y106794D01*
X-61668Y106838D01*
X-61778Y106991D01*
X-61975Y107188D01*
X-62063Y107232D01*
X-62172Y107342D01*
X-62216Y107429D01*
X-62282Y107495D01*
X-62369Y107539D01*
X-62610Y107780D01*
X-62654Y107867D01*
X-62763Y107977D01*
X-62851Y108020D01*
X-63245Y108415D01*
X-63333Y108458D01*
X-63530Y108656D01*
X-63617Y108875D01*
X-63574Y109137D01*
X-63486Y109225D01*
X-63442Y109312D01*
X-63245Y109510D01*
X-62982Y109553D01*
X-62763Y109422D01*
D02*
G37*
G36*
X-64866Y107583D02*
X-64625Y107342D01*
X-64581Y107254D01*
X-64428Y107144D01*
X-64340Y107057D01*
X-64253Y107013D01*
X-64033Y106750D01*
X-63946Y106663D01*
X-63858Y106619D01*
X-63004Y105765D01*
X-62960Y105677D01*
X-62807Y105524D01*
X-62720Y105480D01*
X-62479Y105283D01*
X-62019Y104823D01*
X-61997Y104801D01*
X-61778Y104582D01*
X-61734Y104495D01*
X-61581Y104341D01*
X-61493Y104298D01*
X-61340Y104144D01*
X-61296Y104057D01*
X-61099Y103860D01*
X-60880Y103728D01*
X-60727Y103575D01*
X-60771Y103400D01*
X-60836Y103334D01*
X-61143Y103290D01*
X-61449Y103334D01*
X-62063Y103378D01*
X-62150Y103465D01*
X-62216Y103487D01*
X-62260Y103575D01*
X-62369Y103684D01*
X-62457Y103728D01*
X-62698Y103925D01*
X-62938Y104166D01*
X-63026Y104210D01*
X-63902Y105086D01*
X-63990Y105130D01*
X-64471Y105611D01*
X-64559Y105655D01*
X-64669Y105809D01*
X-65720Y106860D01*
X-65676Y107123D01*
X-65588Y107210D01*
X-65545Y107298D01*
X-65457Y107385D01*
X-65413Y107473D01*
X-65041Y107626D01*
X-64866Y107583D01*
D02*
G37*
G36*
X-66837Y105568D02*
X-66749Y105480D01*
X-66661Y105436D01*
X-66464Y105239D01*
X-66420Y105152D01*
X-66355Y105086D01*
X-66267Y105042D01*
X-65982Y104757D01*
X-65851Y104538D01*
X-65479Y104166D01*
X-65391Y104122D01*
X-64997Y103728D01*
X-64910Y103684D01*
X-64559Y103334D01*
X-64471Y103290D01*
X-64318Y103137D01*
X-64274Y103049D01*
X-64099Y102655D01*
X-64055Y101998D01*
X-64012Y101954D01*
X-64099Y101692D01*
X-64165Y101626D01*
X-64471Y101670D01*
X-64712Y101911D01*
X-64756Y101998D01*
X-65019Y102261D01*
X-65063Y102349D01*
X-65172Y102458D01*
X-65260Y102502D01*
X-65347Y102590D01*
X-65435Y102633D01*
X-65545Y102787D01*
X-65632Y102874D01*
X-65676Y102962D01*
X-65829Y103071D01*
X-65939Y103225D01*
X-66114Y103400D01*
X-66136Y103422D01*
X-66333Y103575D01*
X-66355Y103641D01*
X-66442Y103684D01*
X-66574Y103816D01*
X-66661Y103860D01*
X-66968Y104166D01*
X-67056Y104210D01*
X-67165Y104319D01*
X-67209Y104407D01*
X-67362Y104560D01*
X-67450Y104604D01*
X-67537Y104692D01*
X-67603Y104714D01*
X-67647Y104889D01*
X-67603Y105152D01*
X-67515Y105239D01*
X-67472Y105327D01*
X-67231Y105568D01*
X-67056Y105611D01*
X-66837Y105568D01*
D02*
G37*
G36*
X-61887Y101976D02*
X-56500Y101932D01*
X-56237Y101845D01*
X-56216Y101823D01*
X-55996Y101735D01*
X-55646Y101604D01*
X-55274Y101232D01*
X-55186Y101188D01*
X-55077Y101078D01*
X-54880Y100531D01*
X-54814Y100290D01*
X-54858Y99940D01*
X-55252Y99195D01*
X-55449Y98998D01*
X-55537Y98954D01*
X-55668Y98823D01*
X-55756Y98779D01*
X-55887Y98648D01*
X-55975Y98604D01*
X-56062Y98516D01*
X-56281Y98429D01*
X-56588Y98341D01*
X-56982Y98122D01*
X-57289Y97991D01*
X-57573Y97925D01*
X-57748Y97881D01*
X-57967Y97794D01*
X-58208Y97684D01*
X-58559Y97597D01*
X-58975Y97443D01*
X-59194Y97356D01*
X-59435Y97290D01*
X-59676Y97356D01*
X-59916Y97465D01*
X-60092Y97509D01*
X-60333Y97575D01*
X-60530Y97728D01*
X-60836Y97859D01*
X-61011Y97903D01*
X-61230Y97991D01*
X-61471Y98188D01*
X-61734Y98450D01*
X-61778Y98757D01*
X-61734Y98889D01*
X-61712Y99173D01*
X-61734Y99896D01*
X-61581Y100137D01*
X-61406Y100181D01*
X-60661Y100224D01*
X-60530Y100181D01*
X-59807Y100203D01*
X-59588Y100115D01*
X-59325Y99852D01*
X-59019Y99283D01*
X-58865Y99129D01*
X-58646Y99042D01*
X-57157Y99086D01*
X-56938Y99173D01*
X-56851Y99217D01*
X-56610Y99414D01*
X-56347Y99589D01*
X-56172Y99984D01*
X-56128Y100203D01*
X-56259Y100509D01*
X-56303Y100597D01*
X-56456Y100794D01*
X-56851Y100969D01*
X-57157Y101056D01*
X-57595Y101100D01*
X-61690Y101122D01*
X-61909Y101078D01*
X-62063Y100969D01*
X-62128Y100903D01*
X-62172Y100597D01*
X-62194Y98297D01*
X-62150Y98122D01*
X-62041Y97969D01*
X-61931Y97859D01*
X-61011Y97421D01*
X-60792Y97334D01*
X-60223Y97071D01*
X-59938Y97005D01*
X-59785Y96939D01*
X-59676Y96830D01*
X-59544Y96392D01*
X-59588Y95691D01*
X-59566Y95231D01*
X-59588Y95210D01*
X-59544Y95166D01*
X-59588Y95034D01*
X-59632Y94815D01*
X-59785Y94662D01*
X-59960Y94618D01*
X-60858Y94640D01*
X-61493Y94618D01*
X-61625Y94662D01*
X-61931Y94618D01*
X-62851Y94662D01*
X-62960Y94728D01*
X-63048Y94947D01*
X-63092Y95253D01*
X-63048Y95560D01*
X-63092Y96085D01*
X-63048Y96217D01*
X-63070Y97290D01*
X-63048Y98013D01*
X-63092Y98144D01*
X-63070Y98735D01*
X-63092Y98889D01*
X-63048Y99020D01*
X-63070Y101626D01*
X-63026Y101801D01*
X-62917Y101954D01*
X-62720Y102020D01*
X-61887Y101976D01*
D02*
G37*
G36*
X-55011Y98253D02*
X-54924Y98210D01*
X-54814Y98100D01*
X-54770Y97925D01*
X-54792Y96502D01*
X-54770Y95034D01*
X-54814Y94903D01*
X-54945Y94684D01*
X-55142Y94618D01*
X-55318Y94662D01*
X-55427Y94771D01*
X-55471Y95210D01*
X-55515Y95998D01*
X-55624Y96151D01*
X-55756Y96195D01*
X-55953Y95998D01*
X-56018Y95845D01*
X-56040Y95823D01*
X-56084Y95647D01*
X-56106Y95494D01*
X-56084Y94903D01*
X-56281Y94706D01*
X-56500Y94750D01*
X-56566Y94815D01*
X-56610Y94991D01*
X-56653Y95823D01*
X-56763Y96020D01*
X-56938Y96064D01*
X-57048Y95954D01*
X-57135Y95735D01*
X-57157Y95494D01*
X-57135Y94903D01*
X-57267Y94684D01*
X-57464Y94662D01*
X-57617Y94815D01*
X-57661Y95253D01*
X-57617Y95385D01*
X-57661Y95823D01*
X-57858Y96107D01*
X-58077Y96064D01*
X-58186Y95954D01*
X-58274Y95604D01*
X-58230Y95297D01*
X-58274Y94859D01*
X-58362Y94771D01*
X-58405Y94684D01*
X-58602Y94618D01*
X-58734Y94662D01*
X-58843Y94771D01*
X-58887Y94947D01*
X-58843Y96611D01*
X-58690Y96852D01*
X-58515Y96896D01*
X-57902Y96939D01*
X-57814Y97027D01*
X-57508Y97158D01*
X-57223Y97268D01*
X-56807Y97465D01*
X-56697Y97575D01*
X-56653Y97662D01*
X-56544Y97772D01*
X-56259Y97837D01*
X-56040Y97881D01*
X-55690Y98013D01*
X-55580Y98122D01*
X-55493Y98166D01*
X-55274Y98253D01*
X-55142Y98297D01*
X-55011Y98253D01*
D02*
G37*
G36*
X-40820Y109378D02*
X-32148Y109334D01*
X-32017Y109291D01*
X-31294Y109225D01*
X-31032Y109181D01*
X-30856Y109137D01*
X-30637Y109050D01*
X-30572Y108984D01*
X-30265Y108896D01*
X-30090Y108853D01*
X-29849Y108787D01*
X-29630Y108699D01*
X-29477Y108590D01*
X-29214Y108415D01*
X-28907Y108239D01*
X-28776Y108108D01*
X-28688Y108064D01*
X-28469Y107845D01*
X-28382Y107802D01*
X-28294Y107714D01*
X-28272Y107692D01*
X-28141Y107561D01*
X-28097Y107473D01*
X-27922Y107298D01*
X-27878Y107210D01*
X-27791Y107123D01*
X-27747Y107035D01*
X-27462Y106619D01*
X-27352Y106378D01*
X-27309Y106203D01*
X-27221Y105984D01*
X-27046Y105721D01*
X-26958Y105414D01*
X-26893Y104998D01*
X-26849Y104473D01*
X-26827Y103531D01*
X-26871Y103400D01*
X-26936Y102984D01*
X-26980Y102809D01*
X-27112Y102458D01*
X-27265Y102086D01*
X-27418Y101670D01*
X-27593Y101407D01*
X-27747Y101210D01*
X-27791Y101122D01*
X-27988Y100881D01*
X-28141Y100728D01*
X-28185Y100640D01*
X-28732Y100093D01*
X-28820Y100049D01*
X-29389Y99655D01*
X-29608Y99567D01*
X-29696Y99524D01*
X-30002Y99305D01*
X-30243Y99239D01*
X-30462Y99195D01*
X-31229Y98954D01*
X-31513Y98889D01*
X-31732Y98845D01*
X-32127Y98801D01*
X-36025Y98757D01*
X-36265Y98604D01*
X-36331Y98407D01*
X-36309Y94925D01*
X-36353Y94706D01*
X-36528Y94487D01*
X-36703Y94443D01*
X-37010Y94399D01*
X-37185Y94443D01*
X-41718Y94421D01*
X-41937Y94509D01*
X-41981Y94596D01*
X-42069Y94815D01*
X-42025Y95516D01*
X-42047Y109028D01*
X-41959Y109247D01*
X-41828Y109378D01*
X-41653Y109422D01*
X-40820Y109378D01*
D02*
G37*
G36*
X14080Y109575D02*
X14343Y109531D01*
X14978Y109334D01*
X15657Y109181D01*
X16008Y109050D01*
X16380Y108896D01*
X16599Y108809D01*
X16774Y108765D01*
X17059Y108656D01*
X17168Y108546D01*
X17256Y108502D01*
X17343Y108415D01*
X17738Y108196D01*
X17869Y108064D01*
X17957Y108020D01*
X18329Y107780D01*
X18373Y107692D01*
X18679Y107385D01*
X18723Y107298D01*
X18986Y107035D01*
X19030Y106947D01*
X19293Y106685D01*
X19380Y106466D01*
X19599Y106072D01*
X19818Y105590D01*
X19928Y105305D01*
X20103Y105042D01*
X20168Y104801D01*
X20212Y104495D01*
X20278Y104210D01*
X20387Y103838D01*
X20431Y103663D01*
X20519Y103049D01*
X20563Y101954D01*
X20497Y100487D01*
X20453Y100224D01*
X20387Y99984D01*
X20300Y99677D01*
X20256Y99502D01*
X20212Y99414D01*
Y99370D01*
X20168Y99108D01*
X19906Y98494D01*
X19730Y98100D01*
X19511Y97706D01*
X19336Y97312D01*
X19293Y97224D01*
X18942Y96874D01*
X18898Y96786D01*
X18745Y96589D01*
X18657Y96545D01*
X18592Y96480D01*
X18548Y96392D01*
X18351Y96195D01*
X18263Y96151D01*
X17957Y95845D01*
X17650Y95669D01*
X17519Y95538D01*
X17431Y95494D01*
X16161Y94881D01*
X15942Y94793D01*
X15635Y94662D01*
X15329Y94574D01*
X14978Y94487D01*
X14694Y94421D01*
X14475Y94377D01*
X14212Y94333D01*
X13993Y94290D01*
X13752Y94224D01*
X12745Y94180D01*
X12613Y94136D01*
X11299Y94180D01*
X11168Y94224D01*
X10511Y94268D01*
X10380Y94312D01*
X10204Y94355D01*
X9920Y94421D01*
X9263Y94552D01*
X9087Y94596D01*
X8737Y94728D01*
X8453Y94837D01*
X8234Y94925D01*
X7949Y95034D01*
X7270Y95407D01*
X6963Y95582D01*
X6416Y95998D01*
X6263Y96151D01*
X6175Y96195D01*
X5934Y96436D01*
X5803Y96655D01*
X5606Y96896D01*
X5496Y97005D01*
X5452Y97093D01*
X5365Y97180D01*
X5321Y97268D01*
X5233Y97356D01*
X5189Y97443D01*
X5014Y97706D01*
X4839Y98013D01*
X4489Y98757D01*
X4314Y99195D01*
X4270Y99370D01*
X4226Y99677D01*
X4073Y100356D01*
X4007Y100597D01*
X3963Y100772D01*
X3919Y101473D01*
X3963Y103181D01*
X4051Y103400D01*
X4095Y103575D01*
X4248Y104298D01*
X4292Y104517D01*
X4379Y104867D01*
X4467Y105086D01*
X4664Y105546D01*
X4773Y105830D01*
X4883Y105940D01*
X4927Y106028D01*
X5189Y106509D01*
X5255Y106619D01*
X5321Y106641D01*
X5365Y106728D01*
X5496Y106860D01*
X5540Y106947D01*
X5737Y107188D01*
X5934Y107385D01*
X6065Y107604D01*
X6394Y107933D01*
X6482Y107977D01*
X6722Y108174D01*
X6876Y108283D01*
X7270Y108502D01*
X7358Y108590D01*
X7445Y108634D01*
X7752Y108765D01*
X8431Y109006D01*
X8803Y109159D01*
X9110Y109247D01*
X9285Y109291D01*
X9657Y109356D01*
X9832Y109400D01*
X10336Y109553D01*
X10642Y109597D01*
X12526Y109641D01*
X14080Y109575D01*
D02*
G37*
G36*
X-58822Y113451D02*
X-58581Y113254D01*
X-58493Y113167D01*
X-58449Y113079D01*
X-58384Y113013D01*
X-58296Y112970D01*
X-57376Y112050D01*
X-57311Y112028D01*
X-57267Y111940D01*
X-56785Y111459D01*
X-56741Y111371D01*
X-55537Y110167D01*
X-55449Y110123D01*
X-55252Y109926D01*
X-55208Y109838D01*
X-55011Y109641D01*
X-54924Y109597D01*
X-54486Y109159D01*
X-54398Y109115D01*
X-54047Y108765D01*
X-53960Y108721D01*
X-53763Y108524D01*
X-53719Y108437D01*
X-53434Y108152D01*
X-53347Y108108D01*
X-53172Y107933D01*
X-53084Y107889D01*
X-52974Y107780D01*
X-52931Y107692D01*
X-52537Y107298D01*
X-52493Y107210D01*
X-51858Y106575D01*
X-51792Y106553D01*
X-51748Y106466D01*
X-51441Y106159D01*
X-51420Y106137D01*
X-51310Y105852D01*
X-51332Y104998D01*
X-51310Y104976D01*
X-51354Y104933D01*
X-51310Y104889D01*
X-51354Y104845D01*
X-51310Y104801D01*
X-51354Y104670D01*
X-51332Y103772D01*
X-51354Y103750D01*
X-51310Y103619D01*
X-51354Y103575D01*
X-51310Y103487D01*
X-51354Y103443D01*
X-51310Y103312D01*
X-51332Y100881D01*
X-51310Y100816D01*
X-51354Y100772D01*
X-51310Y100728D01*
X-51354Y100640D01*
X-51310Y100597D01*
X-51354Y100465D01*
X-51310Y98976D01*
X-51332Y98034D01*
X-51310Y97399D01*
X-51354Y97268D01*
X-51310Y96830D01*
X-51201Y96633D01*
X-51113Y96589D01*
X-50828Y96304D01*
X-50785Y96217D01*
X-50631Y96064D01*
X-50566Y96042D01*
X-50522Y95954D01*
X-50368Y95801D01*
X-50281Y95757D01*
X-48967Y94443D01*
X-48901Y94421D01*
X-48857Y94333D01*
X-48529Y94005D01*
X-48441Y93961D01*
X-48332Y93852D01*
X-48157Y93501D01*
X-48354Y93260D01*
X-48660Y93041D01*
X-48879Y92954D01*
X-49098Y93085D01*
X-49361Y93348D01*
X-49449Y93392D01*
X-49558Y93501D01*
X-49602Y93589D01*
X-49668Y93655D01*
X-49755Y93699D01*
X-50193Y94136D01*
X-50281Y94180D01*
X-50478Y94377D01*
X-50522Y94465D01*
X-50631Y94574D01*
X-50719Y94618D01*
X-50872Y94771D01*
X-50894Y94837D01*
X-50982Y94881D01*
X-51266Y95166D01*
X-51310Y95253D01*
X-51376Y95319D01*
X-51463Y95363D01*
X-51901Y95801D01*
X-51989Y95845D01*
X-52055Y95910D01*
X-52098Y95998D01*
X-52296Y96239D01*
X-52405Y96480D01*
X-52361Y97268D01*
X-52405Y97399D01*
X-52361Y97575D01*
X-52405Y105546D01*
X-52580Y105852D01*
X-52646Y105918D01*
X-52733Y105962D01*
X-52931Y106159D01*
X-52974Y106247D01*
X-53040Y106312D01*
X-53128Y106356D01*
X-53566Y106794D01*
X-53653Y106838D01*
X-53872Y107101D01*
X-54113Y107298D01*
X-54310Y107539D01*
X-54398Y107583D01*
X-54595Y107780D01*
X-54639Y107867D01*
X-54748Y107977D01*
X-54836Y108020D01*
X-55274Y108458D01*
X-55361Y108502D01*
X-55427Y108568D01*
X-55471Y108656D01*
X-55624Y108809D01*
X-55712Y108853D01*
X-55931Y109072D01*
X-56018Y109115D01*
X-56106Y109203D01*
X-56194Y109247D01*
X-56391Y109444D01*
X-56434Y109531D01*
X-56500Y109597D01*
X-56588Y109641D01*
X-56741Y109794D01*
X-56785Y109882D01*
X-57048Y110145D01*
X-57091Y110232D01*
X-57179Y110320D01*
X-57223Y110407D01*
X-57376Y110517D01*
X-57617Y110714D01*
X-58055Y111152D01*
X-58077Y111218D01*
X-58165Y111262D01*
X-58646Y111743D01*
X-58734Y111787D01*
X-58931Y111984D01*
X-58975Y112072D01*
X-59040Y112137D01*
X-59128Y112181D01*
X-59435Y112488D01*
X-59522Y112532D01*
X-59632Y112641D01*
X-59676Y112816D01*
X-59632Y113035D01*
X-59435Y113276D01*
X-59347Y113364D01*
X-59260Y113408D01*
X-59040Y113495D01*
X-58822Y113451D01*
D02*
G37*
G36*
X-53347Y94881D02*
X-53237Y94771D01*
X-53193Y94684D01*
X-52996Y94487D01*
X-52909Y94443D01*
X-52755Y94290D01*
Y94246D01*
X-52733Y94224D01*
X-52493Y93983D01*
X-52449Y93896D01*
X-52339Y93786D01*
X-52252Y93742D01*
X-52055Y93545D01*
X-52011Y93458D01*
X-51814Y93260D01*
X-51726Y93217D01*
X-51463Y92954D01*
X-51376Y92910D01*
X-50544Y92078D01*
X-50456Y92034D01*
X-50303Y91881D01*
X-50259Y91706D01*
X-50303Y91443D01*
X-50390Y91355D01*
X-50434Y91268D01*
X-50544Y91158D01*
X-50631Y91114D01*
X-50850Y91027D01*
X-51069Y91070D01*
X-51223Y91180D01*
X-51266Y91268D01*
X-51792Y91793D01*
X-51814Y91859D01*
X-51901Y91903D01*
X-52274Y92275D01*
X-52318Y92363D01*
X-52821Y92866D01*
X-52909Y92910D01*
X-52974Y92976D01*
X-53018Y93063D01*
X-53084Y93129D01*
X-53172Y93173D01*
X-53303Y93304D01*
X-53390Y93348D01*
X-53609Y93611D01*
X-53763Y93764D01*
X-53807Y94071D01*
X-53763Y94947D01*
X-53566Y95012D01*
X-53347Y94881D01*
D02*
G37*
G36*
X-56413Y93348D02*
X-55887Y93304D01*
X-55559Y93107D01*
X-55515Y93020D01*
X-55361Y92866D01*
X-55274Y92823D01*
X-55033Y92582D01*
X-54989Y92494D01*
X-54924Y92428D01*
X-54836Y92385D01*
X-54595Y92144D01*
X-54551Y92056D01*
X-54486Y91990D01*
X-54398Y91946D01*
X-54047Y91596D01*
X-53960Y91552D01*
X-53807Y91399D01*
X-53763Y91312D01*
X-53522Y91070D01*
X-53456Y91049D01*
X-53412Y90961D01*
X-53215Y90764D01*
X-53128Y90720D01*
X-52931Y90523D01*
X-52887Y90435D01*
X-52777Y90326D01*
X-52690Y90282D01*
X-52537Y90173D01*
X-52493Y90085D01*
X-52318Y89910D01*
X-52274Y89822D01*
X-52230Y89691D01*
X-52274Y89516D01*
X-52580Y89122D01*
X-52646Y89056D01*
X-52821Y89012D01*
X-53128Y89187D01*
X-53785Y89844D01*
X-53807Y89866D01*
X-53872Y89932D01*
X-53960Y89976D01*
X-54157Y90173D01*
X-54201Y90260D01*
X-54267Y90326D01*
X-54354Y90370D01*
X-55274Y91290D01*
X-55361Y91333D01*
X-55580Y91596D01*
X-55668Y91684D01*
X-55756Y91728D01*
X-55865Y91881D01*
X-56018Y92034D01*
X-56106Y92078D01*
X-56303Y92275D01*
X-56347Y92363D01*
X-56413Y92428D01*
X-56500Y92472D01*
X-56894Y92866D01*
X-56982Y92910D01*
X-57091Y93020D01*
X-57135Y93195D01*
X-57026Y93348D01*
X-56851Y93392D01*
X-56413Y93348D01*
D02*
G37*
G36*
X-59873Y93304D02*
X-59632Y93107D01*
X-59479Y92954D01*
X-59391Y92910D01*
X-59150Y92713D01*
X-58340Y91903D01*
X-58318Y91881D01*
X-57639Y91202D01*
X-57573Y91180D01*
X-57530Y91093D01*
X-57113Y90676D01*
X-57026Y90633D01*
X-56785Y90392D01*
X-56741Y90304D01*
X-56610Y90173D01*
X-56588Y90107D01*
X-56500Y90063D01*
X-56172Y89735D01*
X-56128Y89647D01*
X-55975Y89538D01*
X-55778Y89340D01*
X-55734Y89253D01*
X-55668Y89187D01*
X-55580Y89143D01*
X-54529Y88092D01*
X-54442Y88048D01*
X-54288Y87895D01*
X-54245Y87720D01*
X-54288Y87501D01*
X-54486Y87304D01*
X-54573Y87260D01*
X-54704Y87129D01*
X-54880Y87085D01*
X-54967Y87129D01*
X-55142Y87304D01*
X-55230Y87348D01*
X-55624Y87742D01*
X-55712Y87786D01*
X-55953Y87983D01*
X-56456Y88486D01*
X-56544Y88530D01*
X-56697Y88684D01*
X-56741Y88771D01*
X-56873Y88903D01*
X-56894Y88968D01*
X-56982Y89012D01*
X-57179Y89209D01*
X-57223Y89297D01*
X-57376Y89450D01*
X-57464Y89494D01*
X-57661Y89691D01*
X-57705Y89778D01*
X-57770Y89844D01*
X-57858Y89888D01*
X-58559Y90589D01*
X-58646Y90633D01*
X-58800Y90786D01*
X-58843Y90873D01*
X-59084Y91114D01*
X-59172Y91158D01*
X-59369Y91355D01*
X-59413Y91443D01*
X-59522Y91552D01*
X-59610Y91596D01*
X-60223Y92209D01*
X-60311Y92253D01*
X-60858Y92801D01*
X-60902Y92976D01*
X-60858Y93239D01*
X-60749Y93348D01*
X-59873Y93304D01*
D02*
G37*
G36*
X-62851D02*
X-62698Y93151D01*
X-62654Y92844D01*
X-62610Y92187D01*
X-62544Y92078D01*
X-62457Y92034D01*
X-62369Y91946D01*
X-62282Y91903D01*
X-62216Y91837D01*
X-62172Y91749D01*
X-61537Y91114D01*
X-61449Y91070D01*
X-61384Y91005D01*
X-61340Y90917D01*
X-61143Y90676D01*
X-60792Y90326D01*
X-60705Y90282D01*
X-60552Y90129D01*
X-60508Y90041D01*
X-60311Y89844D01*
X-60223Y89800D01*
X-59435Y89012D01*
X-59347Y88968D01*
X-59281Y88903D01*
X-59238Y88815D01*
X-59040Y88618D01*
X-58953Y88574D01*
X-58843Y88465D01*
X-58800Y88377D01*
X-58559Y88136D01*
X-58471Y88092D01*
X-58165Y87786D01*
X-58077Y87742D01*
X-57880Y87545D01*
X-57836Y87457D01*
X-57464Y87085D01*
X-57376Y87041D01*
X-56785Y86450D01*
X-56741Y86362D01*
X-56653Y86275D01*
X-56632Y86209D01*
X-56544Y86165D01*
X-56303Y85968D01*
X-56259Y85837D01*
X-56303Y85574D01*
X-56500Y85333D01*
X-56588Y85245D01*
X-56807Y85158D01*
X-57026Y85202D01*
X-57223Y85355D01*
X-57267Y85442D01*
X-57376Y85552D01*
X-57398Y85574D01*
X-57508Y85683D01*
X-57595Y85727D01*
X-59216Y87348D01*
X-59303Y87392D01*
X-59741Y87830D01*
X-59829Y87873D01*
X-60070Y88070D01*
X-60705Y88705D01*
X-60792Y88749D01*
X-60902Y88859D01*
X-60946Y88946D01*
X-61099Y89100D01*
X-61187Y89143D01*
X-61252Y89209D01*
X-61296Y89297D01*
X-61427Y89428D01*
X-61449Y89494D01*
X-61537Y89538D01*
X-61646Y89647D01*
X-61690Y89735D01*
X-61887Y89932D01*
X-61975Y89976D01*
X-62172Y90173D01*
X-62216Y90260D01*
X-62282Y90326D01*
X-62369Y90370D01*
X-62566Y90523D01*
X-62610Y90611D01*
X-63201Y91202D01*
X-63289Y91246D01*
X-63398Y91355D01*
X-63442Y91443D01*
X-63661Y91662D01*
X-63705Y91749D01*
X-63749Y91881D01*
X-63771Y92866D01*
X-63727Y93041D01*
X-63617Y93195D01*
X-63508Y93304D01*
X-63333Y93348D01*
X-62851Y93304D01*
D02*
G37*
G36*
X-68851Y103641D02*
X-68676Y103465D01*
X-68589Y103422D01*
X-68041Y102874D01*
X-67997Y102787D01*
X-67888Y102677D01*
X-67800Y102633D01*
X-67231Y102064D01*
X-67143Y102020D01*
X-65982Y100859D01*
X-65939Y100772D01*
X-65632Y100465D01*
X-65545Y100246D01*
X-65566Y99261D01*
X-65545Y94859D01*
X-65588Y94728D01*
X-65545Y94596D01*
X-65566Y91290D01*
X-65523Y91114D01*
X-65369Y90873D01*
X-65260Y90764D01*
X-65172Y90720D01*
X-64756Y90304D01*
X-64712Y90217D01*
X-64471Y89976D01*
X-64384Y89932D01*
X-63464Y89012D01*
X-63376Y88968D01*
X-62325Y87917D01*
X-62238Y87873D01*
X-61800Y87435D01*
X-61712Y87392D01*
X-61427Y87107D01*
X-61406Y87085D01*
X-61296Y86975D01*
X-61274Y86910D01*
X-61187Y86866D01*
X-61033Y86713D01*
X-60989Y86625D01*
X-60004Y85640D01*
X-59916Y85596D01*
X-59676Y85355D01*
X-59632Y85267D01*
X-59479Y85158D01*
X-59281Y84961D01*
X-59260Y84895D01*
X-59172Y84851D01*
X-58274Y83953D01*
X-58230Y83778D01*
X-58274Y83603D01*
X-58362Y83515D01*
X-58405Y83428D01*
X-58602Y83231D01*
X-58909Y83143D01*
X-59084Y83187D01*
X-59238Y83340D01*
X-59281Y83428D01*
X-59522Y83669D01*
X-59610Y83713D01*
X-59719Y83822D01*
X-59763Y83910D01*
X-59829Y83975D01*
X-59916Y84019D01*
X-60157Y84260D01*
X-60201Y84347D01*
X-60354Y84457D01*
X-60792Y84895D01*
X-60880Y84939D01*
X-60989Y85092D01*
X-61340Y85442D01*
X-61384Y85530D01*
X-61581Y85727D01*
X-61668Y85771D01*
X-61822Y85924D01*
X-61866Y86012D01*
X-61975Y86121D01*
X-62063Y86165D01*
X-62216Y86318D01*
X-62260Y86406D01*
X-62325Y86472D01*
X-62413Y86516D01*
X-62610Y86713D01*
X-62654Y86800D01*
X-62807Y86953D01*
X-62895Y86997D01*
X-63683Y87786D01*
X-63771Y87830D01*
X-64077Y88136D01*
X-64165Y88180D01*
X-64253Y88267D01*
X-64340Y88311D01*
X-65982Y89954D01*
X-66026Y90041D01*
X-66223Y90238D01*
X-66311Y90282D01*
X-66377Y90348D01*
X-66464Y90567D01*
X-66508Y90742D01*
X-66552Y99764D01*
X-66749Y100005D01*
X-66859Y100115D01*
X-66902Y100203D01*
X-67056Y100356D01*
X-67121Y100378D01*
X-67165Y100465D01*
X-67450Y100750D01*
X-67537Y100794D01*
X-67734Y100991D01*
X-67778Y101078D01*
X-67888Y101188D01*
X-67975Y101232D01*
X-68808Y102064D01*
X-68895Y102108D01*
X-69661Y102874D01*
X-69705Y103049D01*
X-69661Y103312D01*
X-69552Y103422D01*
X-69465Y103465D01*
X-69289Y103641D01*
X-69114Y103684D01*
X-68851Y103641D01*
D02*
G37*
G36*
X45723Y63440D02*
X50800Y63444D01*
X50832Y63431D01*
X50846Y63417D01*
X50855Y63345D01*
X50846Y63317D01*
X50855Y60836D01*
X53332Y60831D01*
X53359Y60840D01*
X53432Y60831D01*
X53454Y60808D01*
X53463Y60736D01*
X53454Y60709D01*
X53459Y55587D01*
X53441Y55541D01*
X53377Y55523D01*
X53314Y55532D01*
X50846Y55537D01*
X50841Y60831D01*
X48201Y60836D01*
X48169Y60822D01*
X48155Y60808D01*
X48146Y60745D01*
X48155Y60682D01*
X48146Y58163D01*
X48124Y58141D01*
X48051Y58132D01*
X48024Y58141D01*
X40261Y58132D01*
X40248Y58118D01*
X40239Y58082D01*
X40248Y55555D01*
X40270Y55532D01*
X40334Y55523D01*
X40361Y55532D01*
X42915Y55523D01*
X42938Y55473D01*
X42933Y50279D01*
X42947Y50247D01*
X42970Y50224D01*
X48151Y50233D01*
X48155Y52747D01*
X48146Y52774D01*
X48155Y52801D01*
X48146Y52892D01*
X48115Y52923D01*
X45601Y52919D01*
X45565Y52928D01*
X45547Y52946D01*
X45538Y53010D01*
X45547Y53100D01*
X45542Y55478D01*
X45556Y55510D01*
X45578Y55532D01*
X50846Y55528D01*
X50850Y50279D01*
X50837Y50247D01*
X50823Y50233D01*
X50787Y50224D01*
X48155Y50220D01*
X48160Y42317D01*
X50800Y42312D01*
X50832Y42326D01*
X50855Y42385D01*
X50846Y42475D01*
X50855Y47593D01*
X50877Y47615D01*
X50941Y47625D01*
X50968Y47615D01*
X53400Y47620D01*
X53445Y47602D01*
X53463Y47538D01*
X53454Y47475D01*
X53463Y42339D01*
X53486Y42317D01*
X53522Y42308D01*
X53694Y42317D01*
X56009Y42312D01*
X56104Y42317D01*
X56144Y42294D01*
X56153Y42258D01*
X56144Y39731D01*
X56122Y39708D01*
X56086Y39699D01*
X55914Y39708D01*
X53590Y39703D01*
X53504Y39708D01*
X53454Y39667D01*
X53459Y37009D01*
X58740Y37018D01*
X58753Y37031D01*
X58762Y37067D01*
Y38435D01*
Y38444D01*
X58758Y42253D01*
X58767Y42289D01*
X58785Y42308D01*
X58821Y42317D01*
X58943Y42312D01*
X61185Y42317D01*
X61212Y42308D01*
X61249Y42317D01*
X61339Y42308D01*
X61362Y42294D01*
X61371Y42258D01*
X61366Y37072D01*
X61375Y37036D01*
X61403Y37009D01*
X64047Y36999D01*
X64070Y36950D01*
X64061Y36750D01*
X64066Y34445D01*
X64047Y34409D01*
X64011Y34400D01*
X61394Y34391D01*
X61371Y34368D01*
X61362Y34305D01*
X61371Y34278D01*
X61366Y31855D01*
X61375Y31818D01*
X61403Y31791D01*
X66656Y31782D01*
X66679Y31732D01*
X66670Y31533D01*
X66674Y29137D01*
X66647Y29101D01*
X66611Y29092D01*
X64116Y29097D01*
X64084Y29083D01*
X64070Y29069D01*
X64061Y29033D01*
X64066Y28902D01*
X64061Y24006D01*
X64070Y23979D01*
X64061Y23906D01*
X64039Y23884D01*
X64002Y23874D01*
X61394Y23884D01*
X61371Y23906D01*
X61362Y23979D01*
X61371Y24006D01*
X61362Y26461D01*
X61339Y26483D01*
X61276Y26492D01*
X61212Y26483D01*
X58762Y26479D01*
X58753Y23897D01*
X58703Y23874D01*
X56176Y23884D01*
X56153Y23906D01*
X56144Y23979D01*
X56153Y24006D01*
X56149Y26483D01*
X48201Y26488D01*
X48169Y26474D01*
X48155Y26461D01*
X48146Y26397D01*
X48155Y26334D01*
X48146Y23906D01*
X48124Y23884D01*
X48087Y23874D01*
X45592Y23879D01*
X45560Y23865D01*
X45547Y23852D01*
X45538Y23788D01*
X45547Y23725D01*
X45542Y21230D01*
X45556Y21198D01*
X45615Y21175D01*
X45705Y21184D01*
X50791Y21180D01*
X50837Y21198D01*
X50855Y21261D01*
X50846Y21325D01*
X50855Y23852D01*
X50877Y23874D01*
X50941Y23884D01*
X51004Y23874D01*
X53409Y23879D01*
X53441Y23865D01*
X53454Y23852D01*
X53463Y23779D01*
X53454Y23752D01*
X53463Y21207D01*
X53486Y21184D01*
X53549Y21175D01*
X53577Y21184D01*
X66647Y21175D01*
X66670Y21153D01*
X66679Y21116D01*
X66670Y20944D01*
X66674Y18621D01*
X66661Y18589D01*
X66647Y18576D01*
X66575Y18567D01*
X66547Y18576D01*
X64093Y18567D01*
X64070Y18544D01*
X64061Y18508D01*
X64066Y18385D01*
X64061Y13462D01*
X64070Y13435D01*
X64061Y13345D01*
X64070Y13299D01*
X64102Y13268D01*
X66670Y13272D01*
X66674Y15740D01*
X66670Y15836D01*
X66701Y15876D01*
X66774Y15885D01*
X66801Y15876D01*
X71955Y15885D01*
X71969Y15899D01*
X71978Y15935D01*
X71969Y21162D01*
X71955Y21175D01*
X71919Y21184D01*
X69342Y21180D01*
X69306Y21189D01*
X69288Y21207D01*
X69278Y21243D01*
X69283Y21365D01*
X69274Y23874D01*
X66701Y23884D01*
X66679Y23906D01*
X66670Y23942D01*
X66674Y24065D01*
X66670Y26298D01*
X66679Y26325D01*
X66670Y26388D01*
X66679Y26461D01*
X66701Y26483D01*
X66765Y26492D01*
X66856Y26483D01*
X69233Y26488D01*
X69265Y26474D01*
X69278Y26461D01*
X69288Y26397D01*
X69278Y26307D01*
X69288Y23879D01*
X74464Y23874D01*
X74491Y23884D01*
X74555Y23874D01*
X74577Y23861D01*
X74587Y23825D01*
X74577Y13290D01*
X74564Y13277D01*
X74528Y13268D01*
X66674Y13259D01*
X66670Y5374D01*
X66683Y5360D01*
X69278Y5365D01*
X69283Y7824D01*
X69278Y7919D01*
X69310Y7960D01*
X69346Y7969D01*
X69469Y7964D01*
X74401Y7969D01*
X74428Y7960D01*
X74491Y7969D01*
X74564Y7960D01*
X74577Y7946D01*
X74587Y7910D01*
X74577Y2765D01*
X74528Y2742D01*
X74328Y2751D01*
X71982Y2742D01*
X71978Y93D01*
X72010Y52D01*
X74564Y43D01*
X74587Y20D01*
X74577Y-2534D01*
X74555Y-2557D01*
X64084Y-2548D01*
X64070Y-2534D01*
X64061Y-2471D01*
X64066Y-2376D01*
X64061Y-79D01*
X64070Y-52D01*
X64061Y20D01*
X64047Y43D01*
X64011Y52D01*
X61394Y61D01*
X61371Y84D01*
X61362Y147D01*
X61371Y174D01*
X61362Y2720D01*
X61339Y2742D01*
X61303Y2751D01*
X61181Y2747D01*
X58776Y2751D01*
X58762Y2738D01*
X58753Y75D01*
X58740Y61D01*
X58703Y52D01*
X50846Y57D01*
X50855Y2720D01*
X50877Y2742D01*
X50914Y2751D01*
X51027Y2747D01*
X58762Y2756D01*
X58753Y7937D01*
X58731Y7960D01*
X58694Y7969D01*
X58572Y7964D01*
X56348Y7969D01*
X56321Y7960D01*
X56231Y7969D01*
X56176Y7960D01*
X56153Y7937D01*
X56144Y7874D01*
X56153Y7847D01*
X56144Y5383D01*
X56122Y5360D01*
X56086Y5351D01*
X55914Y5360D01*
X48282Y5355D01*
X48196Y5360D01*
X48155Y5328D01*
X48146Y5265D01*
X48155Y5202D01*
X48151Y97D01*
X48169Y61D01*
X48205Y52D01*
X50846Y47D01*
X50850Y-2502D01*
X50837Y-2534D01*
X50814Y-2557D01*
X45560Y-2548D01*
X45538Y-2498D01*
X45547Y-2326D01*
X45542Y2606D01*
X45547Y2702D01*
X45515Y2742D01*
X45479Y2751D01*
X45347Y2747D01*
X43060Y2751D01*
X43033Y2742D01*
X42961Y2751D01*
X42938Y2774D01*
X42929Y2837D01*
X42938Y2928D01*
X42933Y5306D01*
X42947Y5337D01*
X42961Y5351D01*
X42997Y5360D01*
X43119Y5355D01*
X45415Y5360D01*
X45443Y5351D01*
X45515Y5360D01*
X45538Y5383D01*
X45547Y5419D01*
X45542Y5532D01*
X45547Y7837D01*
X45538Y7865D01*
X45547Y7937D01*
X45569Y7960D01*
X45606Y7969D01*
X45728Y7964D01*
X50723Y7969D01*
X50750Y7960D01*
X50823Y7969D01*
X50837Y7982D01*
X50855Y8046D01*
X50846Y8109D01*
X50850Y18512D01*
X50841Y18549D01*
X50823Y18567D01*
X50787Y18576D01*
X42938Y18580D01*
X42933Y23730D01*
X42938Y23834D01*
X42906Y23874D01*
X42843Y23884D01*
X42779Y23874D01*
X40239Y23879D01*
X40230Y26470D01*
X40180Y26492D01*
X40008Y26483D01*
X32376Y26488D01*
X32345Y26474D01*
X32331Y26461D01*
X32322Y26424D01*
X32327Y26293D01*
X32322Y24078D01*
X32331Y24051D01*
X32322Y23933D01*
X32349Y23888D01*
X32390Y23874D01*
X32494Y23879D01*
X34899Y23874D01*
X34926Y23884D01*
X34990Y23874D01*
X35012Y23861D01*
X35021Y23825D01*
X35026Y21184D01*
X37630Y21180D01*
X37634Y15876D01*
X40216Y15885D01*
X40230Y15899D01*
X40239Y15935D01*
X40248Y18553D01*
X40261Y18567D01*
X40298Y18576D01*
X42938Y18571D01*
X42933Y15931D01*
X42947Y15899D01*
X42970Y15876D01*
X48092Y15881D01*
X48128Y15872D01*
X48146Y15854D01*
X48155Y15818D01*
X48146Y13299D01*
X48133Y13277D01*
X48096Y13268D01*
X40302Y13272D01*
X40266Y13263D01*
X40239Y13236D01*
X40243Y10659D01*
X42874Y10663D01*
X42911Y10654D01*
X42929Y10636D01*
X42938Y10600D01*
X42929Y7991D01*
X42906Y7969D01*
X42870Y7960D01*
X42698Y7969D01*
X40284Y7964D01*
X40248Y7982D01*
X40239Y8019D01*
X40234Y10659D01*
X37653Y10668D01*
X37639Y10682D01*
X37630Y10718D01*
X37626Y15876D01*
X35085Y15881D01*
X35048Y15872D01*
X35021Y15845D01*
X35012Y13290D01*
X34999Y13277D01*
X34962Y13268D01*
X29736Y13277D01*
X29713Y13326D01*
X29718Y13449D01*
X29709Y18576D01*
X24469Y18571D01*
X24423Y18589D01*
X24405Y18653D01*
X24414Y18716D01*
X24410Y21184D01*
X21828Y21175D01*
X21806Y21153D01*
X21797Y21089D01*
X21806Y21062D01*
X21797Y18598D01*
X21774Y18576D01*
X21711Y18567D01*
X21674Y18576D01*
X19161Y18571D01*
X19129Y18585D01*
X19116Y18598D01*
X19106Y18635D01*
X19111Y23820D01*
X19093Y23865D01*
X19047Y23884D01*
X18875Y23874D01*
X16498Y23879D01*
X16507Y26461D01*
X16529Y26483D01*
X16593Y26492D01*
X16656Y26483D01*
X18961Y26488D01*
X19066Y26483D01*
X19106Y26515D01*
X19116Y26587D01*
X19106Y26615D01*
X19116Y29069D01*
X19138Y29092D01*
X19202Y29101D01*
X19265Y29092D01*
X24410Y29101D01*
X24414Y31687D01*
X24405Y31714D01*
X24419Y31764D01*
X24446Y31791D01*
X27105Y31796D01*
X27100Y34400D01*
X24437Y34409D01*
X24414Y34432D01*
X24405Y34495D01*
X24414Y34522D01*
X24410Y36954D01*
X24423Y36986D01*
X24446Y37009D01*
X27105Y37013D01*
X27109Y39653D01*
X27096Y39685D01*
X27082Y39699D01*
X27046Y39708D01*
X26914Y39703D01*
X24546Y39708D01*
X24519Y39699D01*
X24437Y39708D01*
X24423Y39722D01*
X24405Y39785D01*
X24414Y39848D01*
X24410Y42253D01*
X24419Y42289D01*
X24437Y42308D01*
X24473Y42317D01*
X24596Y42312D01*
X37444Y42317D01*
X37471Y42308D01*
X37535Y42317D01*
X37607Y42308D01*
X37621Y42294D01*
X37630Y42258D01*
X37634Y39708D01*
X42938Y39712D01*
X42929Y42312D01*
X40370Y42317D01*
X40343Y42308D01*
X40270Y42317D01*
X40248Y42330D01*
X40239Y42366D01*
X40230Y52901D01*
X40216Y52914D01*
X40180Y52923D01*
X37630Y52928D01*
X37621Y55510D01*
X37607Y55523D01*
X37571Y55532D01*
X35044Y55523D01*
X35030Y55510D01*
X35021Y55473D01*
X35026Y52923D01*
X37630Y52919D01*
X37621Y44939D01*
X37571Y44916D01*
X37372Y44925D01*
X35067Y44921D01*
X35030Y44939D01*
X35021Y44975D01*
X35017Y52923D01*
X29777Y52919D01*
X29741Y52928D01*
X29722Y52946D01*
X29713Y52982D01*
X29718Y53105D01*
X29713Y55346D01*
X29722Y55374D01*
X29713Y55410D01*
X29722Y55500D01*
X29754Y55532D01*
X32268Y55528D01*
X32313Y55546D01*
X32331Y55591D01*
X32322Y55763D01*
X32327Y58096D01*
X32304Y58127D01*
X32263Y58141D01*
X29777Y58136D01*
X29741Y58145D01*
X29722Y58163D01*
X29713Y58200D01*
X29718Y58322D01*
X29713Y60645D01*
X29722Y60672D01*
X29713Y60736D01*
X29722Y60808D01*
X29745Y60831D01*
X29808Y60840D01*
X29899Y60831D01*
X32177Y60836D01*
X32281Y60831D01*
X32322Y60863D01*
X32331Y60926D01*
X32322Y61017D01*
X32327Y63304D01*
X32322Y63399D01*
X32354Y63440D01*
X32417Y63449D01*
X32508Y63440D01*
X34976Y63444D01*
X35012Y63426D01*
X35021Y63390D01*
X35030Y58163D01*
X35053Y58141D01*
X35116Y58132D01*
X35144Y58141D01*
X37576Y58136D01*
X37607Y58150D01*
X37630Y58173D01*
X37639Y60817D01*
X37689Y60840D01*
X37861Y60831D01*
X45402Y60836D01*
X45497Y60831D01*
X45538Y60863D01*
X45547Y60899D01*
X45542Y61003D01*
X45547Y63317D01*
X45538Y63345D01*
X45547Y63417D01*
X45569Y63440D01*
X45633Y63449D01*
X45723Y63440D01*
D02*
G37*
G36*
X56385D02*
X74541Y63444D01*
X74577Y63426D01*
X74587Y63390D01*
Y62828D01*
Y62819D01*
X74577Y45002D01*
X74555Y44970D01*
X74519Y44962D01*
X74396Y44966D01*
X56339Y44962D01*
X56312Y44970D01*
X56249Y44962D01*
X56185Y44970D01*
X56163Y44993D01*
X56153Y45057D01*
X56149Y63385D01*
X56167Y63431D01*
X56212Y63449D01*
X56385Y63440D01*
D02*
G37*
G36*
X27073Y63431D02*
X27096Y63408D01*
X27105Y63372D01*
X27096Y63254D01*
X27087Y45002D01*
X27064Y44980D01*
X27001Y44962D01*
X8649Y44970D01*
X8617Y44993D01*
X8599Y45038D01*
X8595Y63385D01*
X8608Y63417D01*
X8622Y63431D01*
X8658Y63440D01*
X13187D01*
X27073Y63431D01*
D02*
G37*
G36*
X29845Y50224D02*
X32268Y50229D01*
X32313Y50211D01*
X32331Y50165D01*
X32322Y49966D01*
X32327Y44970D01*
X32313Y44939D01*
X32299Y44925D01*
X32236Y44916D01*
X32145Y44925D01*
X31421D01*
X29759Y44921D01*
X29727Y44943D01*
X29713Y44984D01*
X29718Y45106D01*
X29713Y50038D01*
X29722Y50066D01*
X29713Y50129D01*
X29722Y50202D01*
X29745Y50224D01*
X29818Y50233D01*
X29845Y50224D01*
D02*
G37*
G36*
X71955Y42308D02*
X71969Y42294D01*
X71978Y42258D01*
X71982Y39708D01*
X74451Y39703D01*
X74537Y39708D01*
X74577Y39685D01*
X74587Y39649D01*
X74577Y37031D01*
X74559Y37013D01*
X74555Y37009D01*
X72000Y37018D01*
X71978Y37040D01*
X71969Y39703D01*
X69410Y39708D01*
X69383Y39699D01*
X69310Y39708D01*
X69288Y39731D01*
X69278Y39767D01*
X69283Y39889D01*
X69278Y42122D01*
X69288Y42149D01*
X69278Y42212D01*
X69288Y42285D01*
X69310Y42308D01*
X69346Y42317D01*
X69469Y42312D01*
X71792Y42317D01*
X71819Y42308D01*
X71883Y42317D01*
X71955Y42308D01*
D02*
G37*
G36*
X66647D02*
X66670Y42285D01*
X66679Y42249D01*
X66670Y42077D01*
X66674Y39753D01*
X66661Y39722D01*
X66647Y39708D01*
X66584Y39699D01*
X66493Y39708D01*
X64106Y39703D01*
X64075Y39726D01*
X64061Y39767D01*
X64066Y39889D01*
X64061Y42122D01*
X64070Y42149D01*
X64061Y42212D01*
X64070Y42285D01*
X64093Y42308D01*
X64129Y42317D01*
X64251Y42312D01*
X66484Y42317D01*
X66511Y42308D01*
X66575Y42317D01*
X66602D01*
X66647Y42308D01*
D02*
G37*
G36*
X21774D02*
X21797Y42294D01*
X21806Y42258D01*
X21797Y37031D01*
X21783Y37018D01*
X21747Y37009D01*
X19129Y36999D01*
X19116Y36986D01*
X19106Y36950D01*
X19111Y34454D01*
X19097Y34423D01*
X19075Y34400D01*
X16520Y34391D01*
X16507Y34377D01*
X16498Y34341D01*
X16502Y29155D01*
X16493Y29119D01*
X16475Y29101D01*
X16439Y29092D01*
X11199Y29087D01*
X11190Y18598D01*
X11167Y18576D01*
X11095Y18567D01*
X11068Y18576D01*
X8644Y18571D01*
X8608Y18580D01*
X8590Y18598D01*
X8581Y18662D01*
X8590Y18752D01*
X8586Y29047D01*
X8599Y29078D01*
X8613Y29092D01*
X8676Y29101D01*
X8767Y29092D01*
X11194Y29101D01*
X11199Y34278D01*
X11190Y34305D01*
X11199Y34368D01*
X11212Y34391D01*
X11249Y34400D01*
X13866Y34409D01*
X13889Y34432D01*
X13898Y34495D01*
X13889Y34522D01*
X13894Y36954D01*
X13880Y36986D01*
X13857Y37009D01*
X11212Y37018D01*
X11190Y37067D01*
X11199Y37240D01*
X11194Y39563D01*
X11199Y39658D01*
X11167Y39699D01*
X11131Y39708D01*
X10999Y39703D01*
X8993Y39708D01*
X8984D01*
X8635Y39703D01*
X8604Y39717D01*
X8590Y39731D01*
X8581Y39794D01*
X8590Y39885D01*
X8586Y42262D01*
X8599Y42294D01*
X8613Y42308D01*
X8649Y42317D01*
X8771Y42312D01*
X21620Y42317D01*
X21647Y42308D01*
X21683Y42317D01*
X21774Y42308D01*
D02*
G37*
G36*
X69265Y36999D02*
X69288Y36950D01*
X69278Y36750D01*
X69283Y34445D01*
X69265Y34409D01*
X69238Y34400D01*
X69229D01*
X66693Y34409D01*
X66679Y34423D01*
X66670Y34486D01*
X66674Y34581D01*
X66670Y36823D01*
X66679Y36850D01*
X66670Y36913D01*
X66679Y36986D01*
X66693Y36999D01*
X66729Y37009D01*
X69265Y36999D01*
D02*
G37*
G36*
X74564Y31782D02*
X74587Y31760D01*
X74577Y29115D01*
X74564Y29101D01*
X74528Y29092D01*
X72164D01*
X69310Y29101D01*
X69288Y29124D01*
X69278Y29160D01*
X69283Y29282D01*
X69278Y31606D01*
X69288Y31633D01*
X69278Y31696D01*
X69288Y31769D01*
X69301Y31782D01*
X69337Y31791D01*
X74564Y31782D01*
D02*
G37*
G36*
X37861Y23874D02*
X40239Y23870D01*
Y22611D01*
Y22602D01*
X40230Y21207D01*
X40207Y21184D01*
X40144Y21175D01*
X40116Y21184D01*
X37630Y21189D01*
X37639Y23861D01*
X37689Y23884D01*
X37861Y23874D01*
D02*
G37*
G36*
X14047D02*
X16498Y23870D01*
X16502Y18630D01*
X16484Y18585D01*
X16421Y18567D01*
X16357Y18576D01*
X13943Y18571D01*
X13912Y18585D01*
X13898Y18598D01*
X13889Y18635D01*
Y22901D01*
Y22910D01*
X13898Y23852D01*
X13921Y23874D01*
X13984Y23884D01*
X14047Y23874D01*
D02*
G37*
G36*
X29845Y10659D02*
X32268Y10663D01*
X32313Y10645D01*
X32331Y10600D01*
X32322Y10401D01*
X32327Y5487D01*
X32322Y5401D01*
X32354Y5360D01*
X32417Y5351D01*
X32508Y5360D01*
X34976Y5355D01*
X35012Y5374D01*
X35021Y5410D01*
X35030Y7946D01*
X35044Y7960D01*
X35107Y7969D01*
X35202Y7964D01*
X37444Y7969D01*
X37471Y7960D01*
X37535Y7969D01*
X37607Y7960D01*
X37621Y7946D01*
X37630Y7910D01*
X37634Y2751D01*
X40103Y2747D01*
X40189Y2751D01*
X40230Y2729D01*
X40239Y2693D01*
X40230Y75D01*
X40207Y52D01*
X37653Y61D01*
X37630Y84D01*
X37621Y2747D01*
X32526Y2751D01*
X32499Y2742D01*
X32381Y2751D01*
X32336Y2724D01*
X32322Y2683D01*
X32327Y2552D01*
X32322Y247D01*
X32331Y220D01*
X32322Y129D01*
X32331Y75D01*
X32345Y61D01*
X32381Y52D01*
X34999Y43D01*
X35021Y20D01*
X35012Y-2534D01*
X34990Y-2557D01*
X34673D01*
X29736Y-2548D01*
X29722Y-2534D01*
X29713Y-2471D01*
X29718Y-2376D01*
X29713Y10473D01*
X29722Y10500D01*
X29713Y10564D01*
X29722Y10636D01*
X29745Y10659D01*
X29818Y10668D01*
X29845Y10659D01*
D02*
G37*
G36*
X27073Y15867D02*
X27096Y15845D01*
X27105Y15808D01*
X27096Y15691D01*
X27100Y-2502D01*
X27087Y-2534D01*
X27073Y-2548D01*
X27009Y-2557D01*
X8622Y-2548D01*
X8608Y-2534D01*
X8590Y-2471D01*
X8599Y-2434D01*
Y12330D01*
Y12339D01*
X8595Y15813D01*
X8604Y15849D01*
X8622Y15867D01*
X8658Y15876D01*
X27073Y15867D01*
D02*
G37*
%LPC*%
G36*
X-60530Y99348D02*
X-60749Y99217D01*
X-60814Y99151D01*
X-60858Y98976D01*
X-60792Y98735D01*
X-60617Y98560D01*
X-60333Y98450D01*
X-60092Y98341D01*
X-59916Y98297D01*
X-59654Y98341D01*
X-59588Y98407D01*
X-59632Y98757D01*
X-59741Y98910D01*
X-59763Y98932D01*
X-59807Y99020D01*
X-60004Y99217D01*
X-60223Y99305D01*
X-60530Y99348D01*
D02*
G37*
G36*
X-61931Y96808D02*
X-62019Y96764D01*
X-62128Y96655D01*
X-62172Y96348D01*
X-62216Y96173D01*
X-62172Y95910D01*
Y95866D01*
X-62128Y95779D01*
X-62019Y95669D01*
X-61800Y95582D01*
X-61362Y95538D01*
X-60661Y95582D01*
X-60552Y95647D01*
X-60464Y95866D01*
X-60508Y96173D01*
X-60661Y96326D01*
X-60880Y96414D01*
X-61274Y96589D01*
X-61493Y96677D01*
X-61931Y96808D01*
D02*
G37*
G36*
X-34820Y105962D02*
X-34864D01*
X-36353Y105918D01*
X-36506Y105765D01*
X-36550Y105458D01*
X-36506Y105020D01*
X-36528Y103465D01*
X-36506Y103268D01*
X-36550Y103137D01*
X-36506Y102524D01*
X-36309Y102283D01*
X-35959Y102195D01*
X-34732Y102239D01*
X-34601Y102283D01*
X-34295Y102327D01*
X-33944Y102414D01*
X-33725Y102502D01*
X-33243Y102765D01*
X-32871Y103137D01*
X-32696Y103531D01*
X-32630Y103772D01*
X-32586Y104035D01*
X-32564Y104276D01*
X-32608Y104407D01*
X-32696Y104626D01*
X-32762Y104867D01*
X-32915Y105108D01*
X-33134Y105327D01*
X-33178Y105414D01*
X-33506Y105611D01*
X-34076Y105874D01*
X-34492Y105940D01*
X-34820Y105962D01*
D02*
G37*
G36*
X12394Y106137D02*
X11912Y106093D01*
X11694Y106006D01*
X11518Y105962D01*
X11102Y105809D01*
X10620Y105327D01*
X10445Y104889D01*
X10270Y104495D01*
X10182Y104276D01*
X10029Y103203D01*
X9985Y102984D01*
X9963Y101166D01*
X10007Y101035D01*
X10073Y100356D01*
X10117Y99962D01*
X10161Y99699D01*
X10204Y99524D01*
X10226Y99502D01*
Y99458D01*
X10445Y98976D01*
X10555Y98691D01*
X10708Y98450D01*
X10774Y98385D01*
X10861Y98341D01*
X10949Y98253D01*
X11037Y98210D01*
X11168Y98078D01*
X11562Y97903D01*
X12175Y97816D01*
X12832Y97859D01*
X12964Y97903D01*
X13358Y98122D01*
X13446Y98210D01*
X13533Y98253D01*
X13862Y98494D01*
X14080Y98889D01*
X14256Y99151D01*
X14343Y99458D01*
X14387Y99764D01*
X14519Y100509D01*
X14562Y100684D01*
X14606Y101385D01*
X14650Y101954D01*
X14584Y102852D01*
X14519Y103443D01*
X14475Y103619D01*
X14409Y104122D01*
X14343Y104363D01*
X14256Y104670D01*
X14080Y104976D01*
X13993Y105064D01*
X13774Y105458D01*
X13708Y105524D01*
X13621Y105568D01*
X13358Y105830D01*
X13139Y105918D01*
X12964Y105962D01*
X12394Y106137D01*
D02*
G37*
G36*
X45451Y47625D02*
X45424Y47615D01*
X42992Y47620D01*
X42947Y47602D01*
X42929Y47557D01*
Y47520D01*
Y47511D01*
X42938Y47475D01*
X42943Y42317D01*
X45547Y42321D01*
X45542Y47471D01*
X45547Y47575D01*
X45515Y47615D01*
X45451Y47625D01*
D02*
G37*
G36*
X45560Y42317D02*
X45547Y42303D01*
X45538Y39731D01*
X45515Y39708D01*
X45479Y39699D01*
X45307Y39708D01*
X42943Y39699D01*
X42938Y37013D01*
X48119Y37004D01*
X48146Y36986D01*
X48155Y36950D01*
X48146Y34423D01*
X48133Y34409D01*
X48096Y34400D01*
X45560Y34391D01*
X45538Y34341D01*
X45547Y34169D01*
X45542Y31837D01*
X45560Y31800D01*
X45596Y31791D01*
X53432Y31782D01*
X53454Y31760D01*
X53463Y31696D01*
X53454Y31669D01*
X53463Y29124D01*
X53486Y29101D01*
X53522Y29092D01*
X53626Y29097D01*
X56031Y29092D01*
X56058Y29101D01*
X56122Y29092D01*
X56153Y29060D01*
X56158Y26483D01*
X58758Y26492D01*
X58762Y32801D01*
Y32810D01*
X58753Y34377D01*
X58740Y34391D01*
X58703Y34400D01*
X53477Y34409D01*
X53463Y34423D01*
X53454Y34459D01*
X53450Y37009D01*
X50868Y37018D01*
X50855Y37031D01*
X50846Y37067D01*
X50850Y39644D01*
X50841Y39681D01*
X50823Y39699D01*
X50787Y39708D01*
X50655Y39703D01*
X48278Y39708D01*
X48250Y39699D01*
X48178Y39708D01*
X48155Y39731D01*
X48146Y39794D01*
X48155Y39885D01*
X48146Y42312D01*
X45560Y42317D01*
D02*
G37*
G36*
X35216Y39708D02*
X35189Y39699D01*
X35098Y39708D01*
X35044Y39699D01*
X35030Y39685D01*
X35021Y39649D01*
X35030Y34423D01*
X35053Y34400D01*
X40216Y34391D01*
X40239Y34368D01*
X40230Y31814D01*
X40207Y31791D01*
X35044Y31782D01*
X35021Y31760D01*
Y29187D01*
Y29178D01*
X35030Y29115D01*
X35044Y29101D01*
X35080Y29092D01*
X35193Y29097D01*
X42924Y29092D01*
X42938Y29106D01*
X42929Y37004D01*
X37657Y37013D01*
X37630Y37040D01*
X37621Y39703D01*
X35216Y39708D01*
D02*
G37*
G36*
X29664Y37009D02*
X27109Y36999D01*
X27105Y34413D01*
X27118Y34400D01*
X29713Y34404D01*
Y35962D01*
Y35972D01*
X29718Y36963D01*
X29700Y36999D01*
X29664Y37009D01*
D02*
G37*
G36*
X32272Y34400D02*
X29718Y34391D01*
X29713Y31805D01*
X29727Y31791D01*
X32308Y31800D01*
X32331Y31850D01*
X32322Y32049D01*
Y33354D01*
Y33363D01*
X32327Y34355D01*
X32308Y34391D01*
X32272Y34400D01*
D02*
G37*
G36*
X29709Y31791D02*
X27109Y31782D01*
X27105Y29106D01*
X27118Y29092D01*
X29568Y29097D01*
X29673Y29092D01*
X29713Y29124D01*
X29722Y29187D01*
X29713Y29278D01*
Y31723D01*
Y31732D01*
X29709Y31791D01*
D02*
G37*
G36*
X45451Y29101D02*
X45388Y29092D01*
X42938Y29087D01*
Y27339D01*
Y27330D01*
X42933Y26538D01*
X42947Y26506D01*
X42961Y26492D01*
X42997Y26483D01*
X43110Y26488D01*
X45370Y26483D01*
X45397Y26492D01*
X45424Y26483D01*
X45515Y26492D01*
X45538Y26515D01*
X45547Y26551D01*
X45542Y26655D01*
X45547Y28915D01*
X45538Y28942D01*
X45547Y28970D01*
X45538Y29069D01*
X45515Y29092D01*
X45451Y29101D01*
D02*
G37*
G36*
X27100Y29092D02*
X24414Y29087D01*
X24419Y26483D01*
X27105Y26488D01*
Y27185D01*
Y27194D01*
X27100Y29092D01*
D02*
G37*
G36*
X21851Y26488D02*
X21815Y26470D01*
X21797Y26406D01*
Y26397D01*
X21801Y26393D01*
X21806Y23979D01*
X21797Y23951D01*
X21806Y23915D01*
X21815Y23897D01*
X21828Y23884D01*
X21865Y23874D01*
X21978Y23879D01*
X24401Y23874D01*
X24414Y23888D01*
X24410Y26483D01*
X21851Y26488D01*
D02*
G37*
G36*
X29627Y26492D02*
X29564Y26483D01*
X27109Y26474D01*
X27105Y24006D01*
X27114Y23979D01*
X27105Y23906D01*
X27082Y23884D01*
X27046Y23874D01*
X24414Y23870D01*
X24419Y21184D01*
X29713Y21189D01*
Y22638D01*
Y22647D01*
X29718Y26438D01*
X29704Y26470D01*
X29691Y26483D01*
X29627Y26492D01*
D02*
G37*
G36*
X35017Y21184D02*
X29718Y21175D01*
X29713Y20781D01*
Y20772D01*
X29722Y18580D01*
X34922Y18571D01*
X34962Y18567D01*
X35008Y18594D01*
X35021Y18607D01*
X35017Y21184D01*
D02*
G37*
G36*
X61312Y18576D02*
X53758D01*
X53477Y18567D01*
X53463Y18553D01*
X53454Y18517D01*
X53463Y10682D01*
X53477Y10668D01*
X53513Y10659D01*
X61348Y10668D01*
X61362Y10682D01*
X61371Y10718D01*
X61362Y18553D01*
X61348Y18567D01*
X61312Y18576D01*
D02*
G37*
G36*
X71892Y5360D02*
X71792Y5351D01*
X71765Y5360D01*
X69283Y5351D01*
X69278Y2946D01*
X69288Y2919D01*
X69278Y2801D01*
X69306Y2756D01*
X69356Y2742D01*
X69500Y2751D01*
X70470D01*
X71978Y2756D01*
X71969Y5337D01*
X71955Y5351D01*
X71892Y5360D01*
D02*
G37*
G36*
X64265D02*
X64238Y5351D01*
X64120Y5360D01*
X64075Y5333D01*
X64061Y5292D01*
Y5256D01*
Y5247D01*
X64070Y5183D01*
X64061Y5120D01*
X64066Y2878D01*
X64061Y2792D01*
X64093Y2751D01*
X64156Y2742D01*
X64247Y2751D01*
X66625Y2747D01*
X66656Y2760D01*
X66670Y2774D01*
X66679Y2837D01*
X66670Y2928D01*
X66661Y5355D01*
X64265Y5360D01*
D02*
G37*
%LPD*%
G36*
X56294Y15876D02*
X58699Y15881D01*
X58735Y15872D01*
X58753Y15854D01*
X58762Y15818D01*
X58753Y13290D01*
X58740Y13277D01*
X58703Y13268D01*
X56176Y13277D01*
X56153Y13299D01*
X56144Y13363D01*
X56153Y13390D01*
Y13480D01*
Y13490D01*
X56149Y15822D01*
X56167Y15867D01*
X56231Y15885D01*
X56294Y15876D01*
D02*
G37*
%LPC*%
G36*
X71919Y60822D02*
X58821Y60813D01*
X58789Y60790D01*
X58780Y60754D01*
Y52466D01*
Y52457D01*
X58776Y47670D01*
X58794Y47625D01*
X58839Y47606D01*
X58952Y47602D01*
X71846Y47606D01*
X71874Y47597D01*
X71946Y47606D01*
X71978Y47638D01*
X71987Y47674D01*
X71978Y60781D01*
X71955Y60813D01*
X71919Y60822D01*
D02*
G37*
%LPD*%
G36*
X61602Y58150D02*
X65334D01*
X69233Y58154D01*
X69269Y58145D01*
X69315Y58109D01*
X69324Y58046D01*
X69315Y57982D01*
X69306Y50283D01*
X69274Y50251D01*
X69238Y50242D01*
X61430Y50251D01*
X61398Y50283D01*
X61389Y50374D01*
X61398Y58118D01*
X61412Y58132D01*
X61457Y58150D01*
X61575Y58159D01*
X61602Y58150D01*
D02*
G37*
%LPC*%
G36*
X24337Y60822D02*
X20488D01*
X11294Y60813D01*
X11262Y60781D01*
X11253Y60745D01*
X11249Y47670D01*
X11262Y47638D01*
X11285Y47615D01*
X11357Y47597D01*
X11502Y47606D01*
X24360Y47602D01*
X24396Y47611D01*
X24442Y47647D01*
X24451Y47683D01*
X24446Y47806D01*
X24451Y60727D01*
X24432Y60781D01*
X24401Y60813D01*
X24337Y60822D01*
D02*
G37*
%LPD*%
G36*
X14147Y58150D02*
X21643Y58154D01*
X21742Y58145D01*
X21779Y58127D01*
X21797Y58064D01*
X21788Y57973D01*
X21779Y50274D01*
X21756Y50251D01*
X21720Y50242D01*
X13961Y50238D01*
X13916Y50247D01*
X13885Y50269D01*
X13871Y50310D01*
X13862Y50428D01*
X13871Y50464D01*
Y55781D01*
Y55790D01*
X13866Y58096D01*
X13885Y58132D01*
X13903Y58141D01*
X13948Y58159D01*
X14147Y58150D01*
D02*
G37*
%LPC*%
G36*
X24355Y13268D02*
X11285Y13259D01*
X11253Y13236D01*
X11244Y13200D01*
X11253Y13055D01*
X11262Y102D01*
X11285Y79D01*
X11357Y61D01*
X11475Y70D01*
X24360Y66D01*
X24396Y75D01*
X24428Y97D01*
X24442Y138D01*
X24451Y202D01*
Y8870D01*
Y8879D01*
X24446Y13132D01*
X24451Y13227D01*
X24419Y13259D01*
X24355Y13268D01*
D02*
G37*
%LPD*%
G36*
X21720Y10641D02*
X21756Y10632D01*
X21779Y10609D01*
X21788Y10573D01*
X21792Y2824D01*
X21779Y2747D01*
X21747Y2715D01*
X21711Y2706D01*
X13943Y2702D01*
X13912Y2715D01*
X13880Y2747D01*
X13862Y2819D01*
X13871Y2991D01*
X13866Y10514D01*
X13875Y10596D01*
X13898Y10627D01*
X13912Y10641D01*
X13975Y10650D01*
X14075Y10641D01*
X14102Y10650D01*
X19202D01*
X21570Y10645D01*
X21693Y10650D01*
X21720Y10641D01*
D02*
G37*
D11*
X-107960Y-9963D02*
X-104628Y-16628D01*
X-101295Y-9963D01*
X-97963Y-16628D02*
Y-6631D01*
Y-13296D02*
X-92965Y-9963D01*
X-97963Y-13296D02*
X-92965Y-16628D01*
X-87966D02*
Y-14962D01*
X-86300D01*
Y-16628D01*
X-87966D01*
X-72971Y-9963D02*
X-77970D01*
X-79636Y-11629D01*
Y-14962D01*
X-77970Y-16628D01*
X-72971D01*
X-67973D02*
X-64641D01*
X-62975Y-14962D01*
Y-11629D01*
X-64641Y-9963D01*
X-67973D01*
X-69639Y-11629D01*
Y-14962D01*
X-67973Y-16628D01*
X-59642D02*
Y-9963D01*
X-57976D01*
X-56310Y-11629D01*
Y-16628D01*
Y-11629D01*
X-54644Y-9963D01*
X-52978Y-11629D01*
Y-16628D01*
X-49646D02*
X-42981Y-9963D01*
X-39649Y-6631D02*
Y-16628D01*
Y-11629D01*
X-37983Y-9963D01*
X-34650D01*
X-32984Y-11629D01*
Y-16628D01*
X-29652Y-9963D02*
Y-14962D01*
X-27986Y-16628D01*
X-22987D01*
Y-18294D01*
X-24653Y-19960D01*
X-26320D01*
X-22987Y-16628D02*
Y-9963D01*
X-12991Y-6631D02*
Y-16628D01*
X-17989D01*
X-19655Y-14962D01*
Y-11629D01*
X-17989Y-9963D01*
X-12991D01*
X-9658D02*
Y-16628D01*
Y-13296D01*
X-7992Y-11629D01*
X-6326Y-9963D01*
X-4660D01*
X2005Y-16628D02*
X5337D01*
X7003Y-14962D01*
Y-11629D01*
X5337Y-9963D01*
X2005D01*
X338Y-11629D01*
Y-14962D01*
X2005Y-16628D01*
X10335D02*
Y-9963D01*
X15334D01*
X17000Y-11629D01*
Y-16628D01*
X21998Y-9963D02*
X25330D01*
X26997Y-11629D01*
Y-16628D01*
X21998D01*
X20332Y-14962D01*
X21998Y-13296D01*
X26997D01*
X30329Y-9963D02*
Y-14962D01*
X31995Y-16628D01*
X36993D01*
Y-9963D01*
X41992Y-8297D02*
Y-9963D01*
X40325D01*
X43658D01*
X41992D01*
Y-14962D01*
X43658Y-16628D01*
X48656D02*
X51988D01*
X50322D01*
Y-9963D01*
X48656D01*
X63651D02*
X58653D01*
X56987Y-11629D01*
Y-14962D01*
X58653Y-16628D01*
X63651D01*
X66984D02*
X71982D01*
X73648Y-14962D01*
X71982Y-13296D01*
X68650D01*
X66984Y-11629D01*
X68650Y-9963D01*
X73648D01*
D14*
X119750Y30500D02*
G03*
X119750Y30500I-9000J0D01*
G01*
D15*
X-105000Y-191750D02*
D03*
X106500Y-146000D02*
D03*
D16*
X-170000Y-191750D02*
D03*
X-105000Y-146750D02*
D03*
X-170000D02*
D03*
X171500Y-146000D02*
D03*
X106500Y-191000D02*
D03*
X171500D02*
D03*
D17*
X84750Y87250D02*
D03*
Y-14750D02*
D03*
X-67250Y36250D02*
D03*
D18*
X-27750Y-207250D02*
D03*
X-53150D02*
D03*
D19*
X-37850Y-145000D02*
D03*
X38350D02*
D03*
X-82500Y-174100D02*
D03*
Y-97900D02*
D03*
X83750Y-169600D02*
D03*
Y-93400D02*
D03*
D20*
X60450Y-215986D02*
D03*
X-45550Y-72236D02*
D03*
X46300Y-72264D02*
D03*
D21*
X35050Y-215986D02*
D03*
X-70950Y-72236D02*
D03*
X71700Y-72264D02*
D03*
M02*
