G04*
G04 #@! TF.GenerationSoftware,Altium Limited,Altium Designer,24.6.1 (21)*
G04*
G04 Layer_Physical_Order=2*
G04 Layer_Color=16711680*
%FSLAX44Y44*%
%MOMM*%
G71*
G04*
G04 #@! TF.SameCoordinates,BEBD32FA-6904-46B9-B97B-8B90A4C74CBC*
G04*
G04*
G04 #@! TF.FilePolarity,Positive*
G04*
G01*
G75*
%ADD20C,1.4500*%
%ADD21R,1.4500X1.4500*%
%ADD23R,1.6000X1.6000*%
%ADD24C,1.6000*%
%ADD25C,1.4380*%
%ADD26C,2.0000*%
%ADD27C,1.2000*%
G36*
X8031Y144214D02*
X13903Y143813D01*
X19957Y143120D01*
X25811Y142190D01*
X31592Y141077D01*
X39688Y139108D01*
X46618Y136992D01*
X54222Y134239D01*
X55426Y133728D01*
X60258Y131741D01*
X65091Y129388D01*
X68538Y127619D01*
X72185Y125650D01*
X78567Y121893D01*
X84168Y118128D01*
X89000Y114750D01*
X92250Y112500D01*
X95250Y110000D01*
X97569Y107779D01*
X102821Y102818D01*
X108802Y96728D01*
X111319Y93883D01*
X115148Y89360D01*
X118650Y84801D01*
X123172Y78309D01*
X125616Y74407D01*
X127695Y71052D01*
X130795Y65289D01*
X133348Y60146D01*
X134114Y58615D01*
X136521Y52779D01*
X139366Y45120D01*
X140897Y40160D01*
X141791Y37115D01*
X142721Y33413D01*
X143815Y28489D01*
X144654Y24222D01*
X145493Y18860D01*
X146186Y13937D01*
X146532Y7718D01*
X146824Y-196D01*
X146623Y-7217D01*
X146313Y-13362D01*
X146040Y-16845D01*
X145529Y-20128D01*
X145128Y-23957D01*
X144235Y-29155D01*
X143523Y-32783D01*
X142502Y-37525D01*
X141335Y-42011D01*
X140296Y-45749D01*
X139110Y-49743D01*
X137578Y-54375D01*
X136193Y-58423D01*
X134788Y-61906D01*
X134515Y-62544D01*
X132764Y-66811D01*
X130722Y-71480D01*
X129044Y-74762D01*
X127385Y-78136D01*
X125871Y-80999D01*
X124303Y-83880D01*
X121805Y-88020D01*
X119343Y-91977D01*
X116279Y-96426D01*
X114018Y-99709D01*
X111246Y-103429D01*
X108985Y-106274D01*
X107891Y-107769D01*
Y-109848D01*
X108693Y-111891D01*
X109896Y-114772D01*
X111884Y-117890D01*
X113580Y-120060D01*
X115440Y-121920D01*
X118650Y-124400D01*
X122461Y-126534D01*
X127038Y-128339D01*
X132910Y-129616D01*
X137141Y-130126D01*
X142502Y-130054D01*
X147500Y-129500D01*
X151620Y-128412D01*
X157310Y-126370D01*
X160300Y-124838D01*
X163619Y-122759D01*
X167066Y-120042D01*
X170075Y-117398D01*
X173941Y-114261D01*
X177333Y-111890D01*
X180779Y-110049D01*
X184025Y-108845D01*
X187946Y-108243D01*
X190645Y-108353D01*
X192286Y-108754D01*
X194110Y-109520D01*
X196043Y-110979D01*
X197830Y-113422D01*
X198705Y-115720D01*
X199289Y-119331D01*
X199252Y-121556D01*
X198887Y-125932D01*
X197684Y-131221D01*
X196116Y-136728D01*
X194474Y-141360D01*
X192468Y-146210D01*
X191192Y-148946D01*
X190171Y-151280D01*
X188347Y-154927D01*
X187472Y-156532D01*
X187326Y-157043D01*
X188092Y-157298D01*
X191812Y-154599D01*
X191885Y-154560D01*
X195423Y-152666D01*
X199945Y-151243D01*
X201915Y-151061D01*
X204249Y-151134D01*
X205543Y-151298D01*
X207239Y-151863D01*
X208607Y-152429D01*
X209756Y-153213D01*
X211543Y-155219D01*
X213038Y-158757D01*
X213622Y-162915D01*
X213385Y-166580D01*
X212601Y-171558D01*
X211762Y-175096D01*
X210230Y-179947D01*
X209318Y-182536D01*
X208279Y-185399D01*
X206692Y-189065D01*
X204905Y-193113D01*
X203118Y-196687D01*
X200966Y-200626D01*
X197830Y-205623D01*
X195751Y-208577D01*
X193654Y-211367D01*
X191630Y-213865D01*
X188493Y-217294D01*
X185721Y-220138D01*
X183351Y-222436D01*
X179922Y-225390D01*
X176056Y-228454D01*
X172409Y-230971D01*
X169054Y-233159D01*
X164385Y-235712D01*
X158367Y-238302D01*
X153644Y-239925D01*
X148812Y-241292D01*
X144946Y-242094D01*
X139329Y-243043D01*
X132144Y-243809D01*
X127731Y-244173D01*
X124376Y-244283D01*
X120054Y-244301D01*
X115732Y-244319D01*
X114054Y-244210D01*
X110480Y-243955D01*
X108292Y-244137D01*
X105520Y-244575D01*
X102785Y-245085D01*
X99575Y-245377D01*
X96329Y-245632D01*
X93229Y-245888D01*
X89600Y-245979D01*
X86226Y-245888D01*
X81412Y-245486D01*
X77200Y-245213D01*
X76488Y-245195D01*
X73954Y-245541D01*
X70288Y-245888D01*
X67225Y-245997D01*
X61681Y-245924D01*
X57705Y-245523D01*
X52672Y-245085D01*
X47566Y-244210D01*
X42278Y-242970D01*
X38558Y-241912D01*
X33853Y-240417D01*
X28017Y-238046D01*
X23057Y-235676D01*
X21161Y-234581D01*
X18754Y-233268D01*
X16055Y-231554D01*
X13356Y-229767D01*
X11058Y-228053D01*
X7849Y-225573D01*
X4420Y-222582D01*
X2068Y-220449D01*
X554Y-218899D01*
X-339Y-218187D01*
X-1743Y-219263D01*
X-4242Y-221652D01*
X-7105Y-224260D01*
X-9913Y-226558D01*
X-13560Y-229329D01*
X-16515Y-231408D01*
X-19761Y-233378D01*
X-23262Y-235347D01*
X-25997Y-236806D01*
X-30848Y-238922D01*
X-34969Y-240526D01*
X-37522Y-241402D01*
X-41352Y-242532D01*
X-45254Y-243480D01*
X-50068Y-244465D01*
X-53533Y-245085D01*
X-57472Y-245450D01*
X-62870Y-245888D01*
X-67721Y-245961D01*
X-73502Y-245651D01*
X-78954Y-245195D01*
X-82784Y-245486D01*
X-86577Y-245815D01*
X-94527Y-245888D01*
X-100144Y-245450D01*
X-105724Y-244830D01*
X-110320Y-244028D01*
X-111779Y-243955D01*
X-115098Y-244210D01*
X-121790Y-244301D01*
X-126003Y-244319D01*
X-128045Y-244210D01*
X-132969Y-243882D01*
X-138221Y-243407D01*
X-146719Y-242058D01*
X-154049Y-240271D01*
X-161562Y-237718D01*
X-165775Y-235840D01*
X-171227Y-232721D01*
X-174948Y-230387D01*
X-179580Y-226959D01*
X-182898Y-224260D01*
X-185342Y-222035D01*
X-187476Y-219974D01*
X-190813Y-216491D01*
X-193329Y-213683D01*
X-195408Y-211130D01*
X-197742Y-208030D01*
X-199858Y-204966D01*
X-202119Y-201319D01*
X-204891Y-196286D01*
X-206423Y-193150D01*
X-208082Y-189521D01*
X-209851Y-185417D01*
X-210872Y-182536D01*
X-212605Y-177631D01*
X-213097Y-175753D01*
X-213535Y-174294D01*
X-214228Y-171339D01*
X-214592Y-169224D01*
X-214811Y-167255D01*
X-215103Y-165431D01*
X-215139Y-162841D01*
X-214975Y-160854D01*
X-214592Y-158720D01*
X-213881Y-156623D01*
X-212659Y-154672D01*
X-210690Y-152848D01*
X-209176Y-151991D01*
X-206714Y-151243D01*
X-204563Y-151061D01*
X-202557Y-151134D01*
X-199639Y-151718D01*
X-196320Y-152994D01*
X-193566Y-154471D01*
X-193465Y-154541D01*
X-193465Y-154541D01*
X-190922Y-156277D01*
X-189700Y-157280D01*
X-188916Y-157334D01*
X-189609Y-155620D01*
X-190667Y-153432D01*
X-191121Y-152508D01*
X-191761Y-151207D01*
X-192746Y-149019D01*
X-194515Y-145025D01*
X-196065Y-141287D01*
X-196466Y-139937D01*
X-197888Y-136217D01*
X-198691Y-133591D01*
X-199566Y-130126D01*
X-199967Y-128266D01*
X-200405Y-126151D01*
X-200733Y-124218D01*
X-200879Y-122103D01*
X-200842Y-120060D01*
X-200806Y-118018D01*
X-200549Y-116562D01*
X-200336Y-115820D01*
X-200160Y-115219D01*
X-199947Y-114494D01*
X-199665Y-113910D01*
X-199346Y-113274D01*
X-199028Y-112814D01*
X-198639Y-112072D01*
X-198232Y-111612D01*
X-197437Y-110745D01*
X-196624Y-110109D01*
X-195899Y-109614D01*
X-194873Y-109119D01*
X-193742Y-108695D01*
X-192946Y-108429D01*
X-192115Y-108235D01*
X-191355Y-108182D01*
X-190223Y-108146D01*
X-189145Y-108182D01*
X-187801Y-108288D01*
X-186493Y-108500D01*
X-185061Y-108942D01*
X-183717Y-109419D01*
X-182426Y-109985D01*
X-181171Y-110586D01*
X-179470Y-111562D01*
X-176151Y-113823D01*
X-173197Y-116158D01*
X-169841Y-119003D01*
X-166158Y-122030D01*
X-164006Y-123598D01*
X-159939Y-125768D01*
X-156493Y-127318D01*
X-151825Y-128741D01*
X-147047Y-129689D01*
X-142123Y-130163D01*
X-137455Y-130090D01*
X-134500Y-129616D01*
X-131692Y-129215D01*
X-128154Y-128230D01*
X-123340Y-126187D01*
X-119584Y-123890D01*
X-117578Y-122394D01*
X-115973Y-120935D01*
X-113639Y-118164D01*
X-112180Y-115975D01*
X-110684Y-113021D01*
X-109517Y-110176D01*
X-109298Y-107696D01*
X-109262Y-106566D01*
X-110283Y-104888D01*
X-112544Y-101897D01*
X-115717Y-97557D01*
X-117750Y-94500D01*
X-119401Y-92123D01*
X-122136Y-87746D01*
X-124507Y-83588D01*
X-126477Y-80233D01*
X-128556Y-76258D01*
X-131109Y-71006D01*
X-133023Y-66757D01*
X-135048Y-61851D01*
X-136415Y-58149D01*
X-137819Y-54338D01*
X-139442Y-49542D01*
X-140810Y-44673D01*
X-141795Y-40953D01*
X-142707Y-37160D01*
X-143728Y-32783D01*
X-144311Y-29355D01*
X-145132Y-24705D01*
X-145916Y-18924D01*
X-146481Y-12961D01*
X-146864Y-7034D01*
X-146937Y-3168D01*
X-146901Y3433D01*
X-146719Y8721D01*
X-146190Y13846D01*
X-145351Y20593D01*
X-144348Y26483D01*
X-143618Y30276D01*
X-142688Y34051D01*
X-141649Y37789D01*
X-140810Y40890D01*
X-139679Y44500D01*
X-138075Y49096D01*
X-136579Y53035D01*
X-135011Y56828D01*
X-133771Y59454D01*
X-132130Y62991D01*
X-130543Y65964D01*
X-128957Y68863D01*
X-126841Y72620D01*
X-123997Y77215D01*
X-121444Y80899D01*
X-118818Y84619D01*
X-115608Y88923D01*
X-113639Y91330D01*
X-111377Y93883D01*
X-108168Y97530D01*
X-105633Y100211D01*
X-102515Y103256D01*
X-100509Y105116D01*
X-96789Y108471D01*
X-94345Y110550D01*
X-92376Y112155D01*
X-90698Y113541D01*
X-88947Y114781D01*
X-87197Y116167D01*
X-85008Y117626D01*
X-82893Y119158D01*
X-80632Y120689D01*
X-78772Y121857D01*
X-76474Y123243D01*
X-74833Y124227D01*
X-72535Y125577D01*
X-70566Y126598D01*
X-69325Y127327D01*
X-67867Y128130D01*
X-66335Y128932D01*
X-63545Y130190D01*
X-60718Y131558D01*
X-55758Y133673D01*
X-53643Y134549D01*
X-50926Y135552D01*
X-48373Y136427D01*
X-46531Y137065D01*
X-44415Y137649D01*
X-40458Y138907D01*
X-37559Y139691D01*
X-35334Y140238D01*
X-30337Y141296D01*
X-25888Y142171D01*
X-22386Y142828D01*
X-17007Y143539D01*
X-10989Y144013D01*
X-5026Y144433D01*
X2451Y144542D01*
X8031Y144214D01*
D02*
G37*
%LPC*%
G36*
X86026Y96940D02*
X83474D01*
X81010Y96280D01*
X78800Y95004D01*
X76996Y93200D01*
X75720Y90990D01*
X75060Y88526D01*
Y85974D01*
X75720Y83510D01*
X76996Y81300D01*
X78800Y79496D01*
X81010Y78220D01*
X83474Y77560D01*
X86026D01*
X88490Y78220D01*
X90700Y79496D01*
X92504Y81300D01*
X93780Y83510D01*
X94440Y85974D01*
Y88526D01*
X93780Y90990D01*
X92504Y93200D01*
X90700Y95004D01*
X88490Y96280D01*
X86026Y96940D01*
D02*
G37*
G36*
X-65974Y45940D02*
X-68526D01*
X-70990Y45280D01*
X-73200Y44004D01*
X-73218Y43986D01*
X-71183Y41951D01*
X-72951Y40183D01*
X-74986Y42218D01*
X-75004Y42200D01*
X-76280Y39990D01*
X-76940Y37526D01*
Y34974D01*
X-76280Y32510D01*
X-75004Y30300D01*
X-74986Y30282D01*
X-72951Y32317D01*
X-71183Y30549D01*
X-73218Y28514D01*
X-73200Y28496D01*
X-70990Y27220D01*
X-68526Y26560D01*
X-65974D01*
X-63510Y27220D01*
X-61300Y28496D01*
X-61282Y28514D01*
X-63317Y30549D01*
X-61549Y32317D01*
X-59514Y30282D01*
X-59496Y30300D01*
X-58220Y32510D01*
X-57560Y34974D01*
Y37526D01*
X-58220Y39990D01*
X-59496Y42200D01*
X-59514Y42218D01*
X-61549Y40183D01*
X-63317Y41951D01*
X-61282Y43986D01*
X-61300Y44004D01*
X-63510Y45280D01*
X-65974Y45940D01*
D02*
G37*
G36*
X110750Y54114D02*
X106143Y53660D01*
X101713Y52316D01*
X97631Y50134D01*
X94053Y47197D01*
X91116Y43619D01*
X88934Y39536D01*
X87590Y35107D01*
X87136Y30500D01*
X87590Y25893D01*
X88934Y21463D01*
X91116Y17381D01*
X94053Y13803D01*
X97631Y10866D01*
X101713Y8684D01*
X106143Y7340D01*
X110750Y6886D01*
X115357Y7340D01*
X119787Y8684D01*
X123869Y10866D01*
X127447Y13803D01*
X130384Y17381D01*
X132566Y21463D01*
X133910Y25893D01*
X134364Y30500D01*
X133910Y35107D01*
X132566Y39536D01*
X130384Y43619D01*
X127447Y47197D01*
X123869Y50134D01*
X119787Y52316D01*
X115357Y53660D01*
X110750Y54114D01*
D02*
G37*
G36*
X86026Y-5060D02*
X83474D01*
X81010Y-5720D01*
X78800Y-6996D01*
X76996Y-8800D01*
X75720Y-11010D01*
X75060Y-13474D01*
Y-16026D01*
X75720Y-18490D01*
X76996Y-20700D01*
X78800Y-22504D01*
X81010Y-23780D01*
X83474Y-24440D01*
X86026D01*
X88490Y-23780D01*
X90700Y-22504D01*
X92504Y-20700D01*
X93780Y-18490D01*
X94440Y-16026D01*
Y-13474D01*
X93780Y-11010D01*
X92504Y-8800D01*
X90700Y-6996D01*
X88490Y-5720D01*
X86026Y-5060D01*
D02*
G37*
G36*
X-44266Y-62486D02*
X-46834D01*
X-49313Y-63150D01*
X-51537Y-64434D01*
X-51560Y-64458D01*
X-49526Y-66492D01*
X-51294Y-68260D01*
X-53328Y-66225D01*
X-53352Y-66249D01*
X-54636Y-68472D01*
X-55300Y-70952D01*
Y-73520D01*
X-54636Y-75999D01*
X-53352Y-78222D01*
X-53328Y-78246D01*
X-51294Y-76212D01*
X-49526Y-77980D01*
X-51560Y-80014D01*
X-51537Y-80038D01*
X-49313Y-81321D01*
X-46834Y-81986D01*
X-44266D01*
X-41787Y-81321D01*
X-39563Y-80038D01*
X-39540Y-80014D01*
X-41574Y-77980D01*
X-39806Y-76212D01*
X-37772Y-78246D01*
X-37748Y-78222D01*
X-36465Y-75999D01*
X-35800Y-73520D01*
Y-70952D01*
X-36465Y-68472D01*
X-37748Y-66249D01*
X-37772Y-66225D01*
X-39806Y-68260D01*
X-41574Y-66492D01*
X-39540Y-64458D01*
X-39563Y-64434D01*
X-41787Y-63150D01*
X-44266Y-62486D01*
D02*
G37*
G36*
X47584Y-62514D02*
X45016D01*
X42537Y-63179D01*
X40313Y-64462D01*
X40290Y-64486D01*
X42324Y-66520D01*
X40556Y-68288D01*
X38522Y-66254D01*
X38498Y-66277D01*
X37215Y-68501D01*
X36550Y-70981D01*
Y-73548D01*
X37215Y-76027D01*
X38498Y-78251D01*
X38522Y-78274D01*
X40556Y-76240D01*
X42324Y-78008D01*
X40290Y-80042D01*
X40313Y-80066D01*
X42537Y-81350D01*
X45016Y-82014D01*
X47584D01*
X50063Y-81350D01*
X52287Y-80066D01*
X52310Y-80042D01*
X50276Y-78008D01*
X52044Y-76240D01*
X54078Y-78274D01*
X54102Y-78251D01*
X55385Y-76027D01*
X56050Y-73548D01*
Y-70981D01*
X55385Y-68501D01*
X54102Y-66277D01*
X54078Y-66254D01*
X52044Y-68288D01*
X50276Y-66520D01*
X52310Y-64486D01*
X52287Y-64462D01*
X50063Y-63179D01*
X47584Y-62514D01*
D02*
G37*
G36*
X-61200Y-62486D02*
X-80700D01*
Y-81986D01*
X-61200D01*
Y-62486D01*
D02*
G37*
G36*
X81450Y-62514D02*
X61950D01*
Y-82014D01*
X81450D01*
Y-62514D01*
D02*
G37*
G36*
X84869Y-84900D02*
X82631D01*
X80469Y-85479D01*
X78531Y-86598D01*
X76948Y-88181D01*
X75829Y-90119D01*
X75250Y-92281D01*
Y-94519D01*
X75829Y-96681D01*
X76948Y-98619D01*
X78531Y-100202D01*
X80469Y-101321D01*
X82631Y-101900D01*
X84869D01*
X87031Y-101321D01*
X88969Y-100202D01*
X90552Y-98619D01*
X91671Y-96681D01*
X92250Y-94519D01*
Y-92281D01*
X91671Y-90119D01*
X90552Y-88181D01*
X88969Y-86598D01*
X87031Y-85479D01*
X84869Y-84900D01*
D02*
G37*
G36*
X-81381Y-89400D02*
X-83619D01*
X-85781Y-89979D01*
X-87719Y-91098D01*
X-89302Y-92681D01*
X-90421Y-94619D01*
X-91000Y-96781D01*
Y-99019D01*
X-90421Y-101181D01*
X-89302Y-103119D01*
X-87719Y-104702D01*
X-85781Y-105821D01*
X-83619Y-106400D01*
X-81381D01*
X-79219Y-105821D01*
X-77281Y-104702D01*
X-75698Y-103119D01*
X-74579Y-101181D01*
X-74000Y-99019D01*
Y-96781D01*
X-74579Y-94619D01*
X-75698Y-92681D01*
X-77281Y-91098D01*
X-79219Y-89979D01*
X-81381Y-89400D01*
D02*
G37*
G36*
X39469Y-136500D02*
X37231D01*
X35069Y-137079D01*
X33131Y-138198D01*
X31548Y-139781D01*
X30429Y-141719D01*
X29850Y-143881D01*
Y-146119D01*
X30429Y-148281D01*
X31548Y-150219D01*
X33131Y-151802D01*
X35069Y-152921D01*
X37231Y-153500D01*
X39469D01*
X41631Y-152921D01*
X43569Y-151802D01*
X45152Y-150219D01*
X46271Y-148281D01*
X46850Y-146119D01*
Y-143881D01*
X46271Y-141719D01*
X45152Y-139781D01*
X43569Y-138198D01*
X41631Y-137079D01*
X39469Y-136500D01*
D02*
G37*
G36*
X-36731D02*
X-38969D01*
X-41131Y-137079D01*
X-43069Y-138198D01*
X-44652Y-139781D01*
X-45771Y-141719D01*
X-46350Y-143881D01*
Y-146119D01*
X-45771Y-148281D01*
X-44652Y-150219D01*
X-43069Y-151802D01*
X-41131Y-152921D01*
X-38969Y-153500D01*
X-36731D01*
X-34569Y-152921D01*
X-32631Y-151802D01*
X-31048Y-150219D01*
X-29929Y-148281D01*
X-29350Y-146119D01*
Y-143881D01*
X-29929Y-141719D01*
X-31048Y-139781D01*
X-32631Y-138198D01*
X-34569Y-137079D01*
X-36731Y-136500D01*
D02*
G37*
G36*
X172882Y-135500D02*
X170118D01*
X167447Y-136216D01*
X165053Y-137598D01*
X163098Y-139553D01*
X161716Y-141947D01*
X161000Y-144618D01*
Y-147382D01*
X161716Y-150053D01*
X163098Y-152447D01*
X165053Y-154402D01*
X167447Y-155784D01*
X170118Y-156500D01*
X172882D01*
X175553Y-155784D01*
X177947Y-154402D01*
X179902Y-152447D01*
X181284Y-150053D01*
X182000Y-147382D01*
Y-144618D01*
X181284Y-141947D01*
X179902Y-139553D01*
X177947Y-137598D01*
X175553Y-136216D01*
X172882Y-135500D01*
D02*
G37*
G36*
X117000D02*
X96000D01*
Y-156500D01*
X117000D01*
Y-135500D01*
D02*
G37*
G36*
X-103618Y-136250D02*
X-106382D01*
X-109053Y-136966D01*
X-111447Y-138348D01*
X-113402Y-140303D01*
X-114784Y-142697D01*
X-115500Y-145368D01*
Y-148132D01*
X-114784Y-150803D01*
X-113402Y-153197D01*
X-111447Y-155152D01*
X-109053Y-156534D01*
X-106382Y-157250D01*
X-103618D01*
X-100947Y-156534D01*
X-98553Y-155152D01*
X-96598Y-153197D01*
X-95216Y-150803D01*
X-94500Y-148132D01*
Y-145368D01*
X-95216Y-142697D01*
X-96598Y-140303D01*
X-98553Y-138348D01*
X-100947Y-136966D01*
X-103618Y-136250D01*
D02*
G37*
G36*
X-168618D02*
X-171382D01*
X-174053Y-136966D01*
X-176447Y-138348D01*
X-178402Y-140303D01*
X-179784Y-142697D01*
X-180500Y-145368D01*
Y-148132D01*
X-179784Y-150803D01*
X-178402Y-153197D01*
X-176447Y-155152D01*
X-174053Y-156534D01*
X-171382Y-157250D01*
X-168618D01*
X-165947Y-156534D01*
X-163553Y-155152D01*
X-161598Y-153197D01*
X-160216Y-150803D01*
X-159500Y-148132D01*
Y-145368D01*
X-160216Y-142697D01*
X-161598Y-140303D01*
X-163553Y-138348D01*
X-165947Y-136966D01*
X-168618Y-136250D01*
D02*
G37*
G36*
X84869Y-161100D02*
X82631D01*
X80469Y-161679D01*
X78531Y-162798D01*
X76948Y-164381D01*
X75829Y-166319D01*
X75250Y-168481D01*
Y-170719D01*
X75829Y-172881D01*
X76948Y-174819D01*
X78531Y-176402D01*
X80469Y-177521D01*
X82631Y-178100D01*
X84869D01*
X87031Y-177521D01*
X88969Y-176402D01*
X90552Y-174819D01*
X91671Y-172881D01*
X92250Y-170719D01*
Y-168481D01*
X91671Y-166319D01*
X90552Y-164381D01*
X88969Y-162798D01*
X87031Y-161679D01*
X84869Y-161100D01*
D02*
G37*
G36*
X-81381Y-165600D02*
X-83619D01*
X-85781Y-166179D01*
X-87719Y-167298D01*
X-89302Y-168881D01*
X-90421Y-170819D01*
X-91000Y-172981D01*
Y-175219D01*
X-90421Y-177381D01*
X-89302Y-179319D01*
X-87719Y-180902D01*
X-85781Y-182021D01*
X-83619Y-182600D01*
X-81381D01*
X-79219Y-182021D01*
X-77281Y-180902D01*
X-75698Y-179319D01*
X-74579Y-177381D01*
X-74000Y-175219D01*
Y-172981D01*
X-74579Y-170819D01*
X-75698Y-168881D01*
X-77281Y-167298D01*
X-79219Y-166179D01*
X-81381Y-165600D01*
D02*
G37*
G36*
X-26104Y-194750D02*
X-29396D01*
X-32575Y-195602D01*
X-35425Y-197248D01*
X-37752Y-199575D01*
X-38801Y-201392D01*
X-38952Y-201449D01*
X-41948D01*
X-42099Y-201392D01*
X-43148Y-199575D01*
X-43427Y-199295D01*
X-45440Y-201308D01*
X-47208Y-199540D01*
X-45195Y-197527D01*
X-45475Y-197248D01*
X-48325Y-195602D01*
X-51504Y-194750D01*
X-54796D01*
X-57975Y-195602D01*
X-60825Y-197248D01*
X-61105Y-197527D01*
X-59092Y-199540D01*
X-60860Y-201308D01*
X-62873Y-199295D01*
X-63152Y-199575D01*
X-64798Y-202425D01*
X-65650Y-205604D01*
Y-208896D01*
X-64798Y-212075D01*
X-63152Y-214925D01*
X-62873Y-215205D01*
X-60860Y-213192D01*
X-59092Y-214960D01*
X-61105Y-216973D01*
X-60825Y-217253D01*
X-57975Y-218898D01*
X-54796Y-219750D01*
X-51504D01*
X-48325Y-218898D01*
X-45475Y-217253D01*
X-45195Y-216973D01*
X-47208Y-214960D01*
X-45440Y-213192D01*
X-43427Y-215205D01*
X-43148Y-214925D01*
X-42099Y-213109D01*
X-41948Y-213051D01*
X-38952D01*
X-38801Y-213109D01*
X-37752Y-214925D01*
X-35425Y-217253D01*
X-32575Y-218898D01*
X-29396Y-219750D01*
X-26104D01*
X-22925Y-218898D01*
X-20075Y-217253D01*
X-17747Y-214925D01*
X-16102Y-212075D01*
X-15250Y-208896D01*
Y-205604D01*
X-16102Y-202425D01*
X-17747Y-199575D01*
X-20075Y-197248D01*
X-22925Y-195602D01*
X-26104Y-194750D01*
D02*
G37*
G36*
X172882Y-180500D02*
X170118D01*
X167447Y-181216D01*
X165053Y-182598D01*
X163098Y-184553D01*
X161716Y-186947D01*
X161000Y-189618D01*
Y-192382D01*
X161716Y-195053D01*
X163098Y-197447D01*
X165053Y-199402D01*
X167447Y-200784D01*
X170118Y-201500D01*
X172882D01*
X175553Y-200784D01*
X177947Y-199402D01*
X179902Y-197447D01*
X181284Y-195053D01*
X182000Y-192382D01*
Y-189618D01*
X181284Y-186947D01*
X179902Y-184553D01*
X177947Y-182598D01*
X175553Y-181216D01*
X172882Y-180500D01*
D02*
G37*
G36*
X107882D02*
X105118D01*
X102447Y-181216D01*
X100053Y-182598D01*
X98098Y-184553D01*
X96716Y-186947D01*
X96000Y-189618D01*
Y-192382D01*
X96716Y-195053D01*
X98098Y-197447D01*
X100053Y-199402D01*
X102447Y-200784D01*
X105118Y-201500D01*
X107882D01*
X110553Y-200784D01*
X112947Y-199402D01*
X114902Y-197447D01*
X116284Y-195053D01*
X117000Y-192382D01*
Y-189618D01*
X116284Y-186947D01*
X114902Y-184553D01*
X112947Y-182598D01*
X110553Y-181216D01*
X107882Y-180500D01*
D02*
G37*
G36*
X-94500Y-181250D02*
X-115500D01*
Y-202250D01*
X-94500D01*
Y-181250D01*
D02*
G37*
G36*
X-168618D02*
X-171382D01*
X-174053Y-181966D01*
X-176447Y-183348D01*
X-178402Y-185303D01*
X-179784Y-187697D01*
X-180500Y-190368D01*
Y-193132D01*
X-179784Y-195803D01*
X-178402Y-198197D01*
X-176447Y-200152D01*
X-174053Y-201534D01*
X-171382Y-202250D01*
X-168618D01*
X-165947Y-201534D01*
X-163553Y-200152D01*
X-161598Y-198197D01*
X-160216Y-195803D01*
X-159500Y-193132D01*
Y-190368D01*
X-160216Y-187697D01*
X-161598Y-185303D01*
X-163553Y-183348D01*
X-165947Y-181966D01*
X-168618Y-181250D01*
D02*
G37*
G36*
X61734Y-206236D02*
X59166D01*
X56687Y-206900D01*
X54463Y-208184D01*
X54440Y-208208D01*
X56474Y-210242D01*
X54706Y-212010D01*
X52672Y-209975D01*
X52648Y-209999D01*
X51364Y-212222D01*
X50700Y-214702D01*
Y-217269D01*
X51364Y-219749D01*
X52648Y-221973D01*
X52672Y-221996D01*
X54706Y-219962D01*
X56474Y-221730D01*
X54440Y-223764D01*
X54463Y-223788D01*
X56687Y-225071D01*
X59166Y-225736D01*
X61734D01*
X64213Y-225071D01*
X66437Y-223788D01*
X66460Y-223764D01*
X64426Y-221730D01*
X66194Y-219962D01*
X68228Y-221996D01*
X68252Y-221973D01*
X69535Y-219749D01*
X70200Y-217269D01*
Y-214702D01*
X69535Y-212222D01*
X68252Y-209999D01*
X68228Y-209975D01*
X66194Y-212010D01*
X64426Y-210242D01*
X66460Y-208208D01*
X66437Y-208184D01*
X64213Y-206900D01*
X61734Y-206236D01*
D02*
G37*
G36*
X44800D02*
X25300D01*
Y-225736D01*
X44800D01*
Y-206236D01*
D02*
G37*
%LPD*%
D20*
X60450Y-215986D02*
D03*
X-45550Y-72236D02*
D03*
X46300Y-72264D02*
D03*
D21*
X35050Y-215986D02*
D03*
X-70950Y-72236D02*
D03*
X71700Y-72264D02*
D03*
D23*
X-105000Y-191750D02*
D03*
X106500Y-146000D02*
D03*
D24*
X-170000Y-191750D02*
D03*
X-105000Y-146750D02*
D03*
X-170000D02*
D03*
X171500Y-146000D02*
D03*
X106500Y-191000D02*
D03*
X171500D02*
D03*
D25*
X84750Y87250D02*
D03*
Y-14750D02*
D03*
X-67250Y36250D02*
D03*
D26*
X-27750Y-207250D02*
D03*
X-53150D02*
D03*
D27*
X-37850Y-145000D02*
D03*
X38350D02*
D03*
X-82500Y-174100D02*
D03*
Y-97900D02*
D03*
X83750Y-169600D02*
D03*
Y-93400D02*
D03*
M02*
